<?xml version="1.0" encoding="UTF-8" standalone="no"?>
<!-- Created with Inkscape (http://www.inkscape.org/) -->

<svg
   width="50mm"
   height="22mm"
   viewBox="0 0 50 22"
   version="1.1"
   id="svg5"
   xml:space="preserve"
   sodipodi:docname="logo.svg"
   inkscape:version="1.2.2 (732a01da63, 2022-12-09)"
   xmlns:inkscape="http://www.inkscape.org/namespaces/inkscape"
   xmlns:sodipodi="http://sodipodi.sourceforge.net/DTD/sodipodi-0.dtd"
   xmlns="http://www.w3.org/2000/svg"
   xmlns:svg="http://www.w3.org/2000/svg"><sodipodi:namedview
     id="namedview7"
     pagecolor="#ffffff"
     bordercolor="#000000"
     borderopacity="0.25"
     inkscape:showpageshadow="2"
     inkscape:pageopacity="0.0"
     inkscape:pagecheckerboard="0"
     inkscape:deskcolor="#d1d1d1"
     inkscape:document-units="mm"
     showgrid="false"
     inkscape:zoom="3.6845678"
     inkscape:cx="37.317809"
     inkscape:cy="61.065506"
     inkscape:window-width="1366"
     inkscape:window-height="697"
     inkscape:window-x="-8"
     inkscape:window-y="-8"
     inkscape:window-maximized="1"
     inkscape:current-layer="layer1" /><defs
     id="defs2" /><g
     inkscape:label="Camada 1"
     inkscape:groupmode="layer"
     id="layer1"><g
       id="g2730"
       transform="matrix(0.93193927,0,0,0.93193927,5.038801,6.077986)"><path
         style="fill:#000000;fill-opacity:1;stroke-width:0.0459866"
         d="M 6.538215,16.572921 C 6.086651,16.546271 5.620763,16.268612 5.351902,15.865899 5.199542,15.637685 5.193095,15.611617 5.008628,14.477881 L 4.82063,13.322448 4.595654,13.177012 C 4.461677,13.090402 4.293076,12.919446 4.17882,12.754353 3.993605,12.486729 3.982777,12.453645 3.866168,11.799145 L 3.745375,11.121166 3.462398,11.500574 c -0.373944,0.501374 -0.396656,0.503855 -1.168667,0.127629 l -0.589596,-0.287329 -0.0234,0.364158 c -0.01287,0.200288 -0.03293,0.504634 -0.04458,0.676325 -0.03319,0.489171 -0.02707,0.485427 -1.040565,0.636441 -1.070567,0.159518 -0.99145,0.198572 -1.307021,-0.645189 -0.125361,-0.335186 -0.234476,-0.614278 -0.242476,-0.620205 -0.008,-0.0059 -0.215154,0.178559 -0.460342,0.409964 -0.472709,0.446138 -0.606044,0.533579 -0.760099,0.498483 -0.0527,-0.01201 -0.411643,-0.257535 -0.797657,-0.545622 -0.596673,-0.445303 -0.70498,-0.544835 -0.722767,-0.664206 -0.01508,-0.101248 0.06025,-0.306968 0.270077,-0.73754 l 0.290999,-0.597126 -0.269814,-0.01478 c -1.375367,-0.07535 -1.26608,0.0078 -1.429219,-1.087095 C -4.995847,7.91975 -5.075874,8.030865 -3.784126,7.558538 l 0.252177,-0.09221 -0.469565,-0.50864 C -4.259775,6.677937 -4.475777,6.417519 -4.481519,6.378983 c -0.0057,-0.03854 0.01031,-0.129656 0.03568,-0.202489 0.06938,-0.199199 0.997337,-1.412468 1.096298,-1.433365 0.198592,-0.04194 0.298153,-0.012 0.845453,0.254187 0.316001,0.153692 0.578834,0.273652 0.584073,0.266578 0.0052,-0.0071 0.0271,-0.302685 0.04857,-0.656912 0.04231,-0.697803 0.08471,-0.81582 0.322767,-0.898254 0.137433,-0.04759 0.14675,-0.06441 0.123208,-0.222401 -0.01401,-0.094 -0.02134,-0.357346 -0.01628,-0.585201 0.06683,-3.015102 1.961691,-5.577641 4.826976,-6.527837 0.262067,-0.08691 0.668494,-0.173995 1.130379,-0.242213 L 5.236794,-3.975435 5.743807,-4.48995 c 0.506406,-0.5139 0.620263,-0.585056 0.821169,-0.5132 0.05224,0.01868 0.350719,0.285422 0.663282,0.592749 0.586156,0.576335 0.698266,0.641584 0.903575,0.525897 0.203811,-0.114843 0.231361,-0.227964 0.225343,-0.925224 -0.0079,-0.916537 0.0074,-1.014507 0.174368,-1.11416 0.119053,-0.07107 0.283423,-0.08178 1.31513,-0.0857 1.068331,-0.0041 1.188563,0.0042 1.280108,0.08818 0.128326,0.117697 0.14262,0.222295 0.148535,1.086833 0.0053,0.775813 0.03354,0.873767 0.271554,0.942109 0.229517,0.0659 0.321779,0.0069 0.895734,-0.573014 0.805388,-0.813719 0.68689,-0.829988 1.779527,0.244299 0.965816,0.949595 0.999478,1.005821 0.773756,1.292439 -0.06989,0.08874 -0.339121,0.374624 -0.5983,0.635296 -0.509682,0.51262 -0.553893,0.605047 -0.406251,0.849301 0.107754,0.178265 0.206562,0.196757 0.985914,0.184524 0.836427,-0.01313 0.925252,0.0011 1.02235,0.163754 0.0712,0.119284 0.08188,0.282329 0.08579,1.309469 0.0038,0.993403 -0.008,1.190057 -0.0769,1.283076 -0.101853,0.13752 -0.205088,0.152844 -1.073007,0.159285 -0.845902,0.0063 -0.806347,-3.59e-4 -0.920974,0.154409 -0.180709,0.243989 -0.114002,0.371578 0.521519,0.997495 0.472995,0.46585 0.575106,0.589881 0.596072,0.724034 0.03176,0.203673 0.01079,0.23027 -0.929783,1.17595 -0.596445,0.599679 -0.768427,0.747954 -0.888255,0.765809 -0.194997,0.02905 -0.232247,0.0038 -0.731949,-0.495361 -0.59727,-0.596679 -0.7158,-0.683746 -0.894563,-0.65711 -0.08841,0.01317 -0.188349,0.07008 -0.248861,0.141694 -0.09169,0.108518 -0.100755,0.192484 -0.09719,0.90037 0.004,0.790461 -0.03035,0.980721 -0.191144,1.059437 -0.0974,0.04768 -2.387998,0.07 -2.515204,0.0245 C 8.456088,6.38315 8.419036,6.202446 8.416631,5.381475 8.415031,4.823149 8.397201,4.572978 8.354391,4.506244 8.277501,4.386407 8.013579,4.295699 7.890541,4.346825 7.838201,4.368575 7.551054,4.633497 7.252436,4.935545 6.953818,5.237592 6.666491,5.502591 6.613935,5.524429 6.561375,5.546269 6.462436,5.544569 6.394063,5.520629 6.283732,5.482039 4.857135,4.120013 4.686127,3.890002 4.599547,3.773553 4.571363,3.564902 4.628597,3.464167 4.653277,3.420727 4.900862,3.156091 5.178786,2.876076 5.456711,2.596062 5.704945,2.331305 5.730416,2.287728 5.804576,2.160856 5.745966,1.923623 5.61327,1.813563 5.505461,1.724143 5.415222,1.715083 4.681068,1.720003 3.933039,1.725003 3.858657,1.717203 3.748189,1.621903 3.682169,1.564953 3.624162,1.491607 3.61929,1.458908 3.61439,1.426208 3.60782,0.889605 3.60464,0.266457 3.59814,-0.998971 3.61711,-1.091556 3.895981,-1.15768 3.985831,-1.17899 4.354086,-1.19724 4.714316,-1.19825 5.5392,-1.20055 5.5734,-1.20625 5.688553,-1.361777 5.858975,-1.591879 5.799933,-1.70207 5.166523,-2.336009 4.84915,-2.653647 4.568316,-2.97237 4.542448,-3.044281 l -0.04703,-0.130748 -0.397457,0.08837 C 2.388314,-2.706542 0.859962,-1.555359 0,0 c -1.116906,2.020074 -1.007542,4.555473 0.279108,6.470655 0.575916,0.857252 1.586345,1.727598 2.542563,2.190069 0.54962,0.265822 0.878917,0.525159 1.143899,0.900874 0.311534,0.441724 0.346729,0.550366 0.549102,1.694971 0.207796,1.175286 0.212555,1.187058 0.554192,1.370782 0.135224,0.07272 0.193318,0.06706 1.861316,-0.181482 C 8.598177,12.197332 8.6554,12.185818 8.76355,12.07683 9.036221,11.802055 9.037657,11.786372 8.896271,10.626939 8.785864,9.721552 8.774794,9.523631 8.819731,9.258429 8.92745,8.622731 9.171696,8.184128 9.699542,7.678515 9.893292,7.492926 10.113505,7.268886 10.188904,7.180648 l 0.137088,-0.160431 0.277657,0.226945 0.277657,0.226946 -0.166902,0.187674 c -0.0918,0.103223 -0.286378,0.300792 -0.432403,0.439046 -0.344577,0.326235 -0.466564,0.477428 -0.59483,0.73725 -0.201744,0.408658 -0.206328,0.532546 -0.0628,1.69758 l 0.132463,1.075174 -0.103805,0.324559 c -0.06219,0.19444 -0.173084,0.406629 -0.276609,0.529264 l -0.172803,0.204706 0.157019,1.16005 c 0.154071,1.138265 0.155501,1.16508 0.07629,1.427798 -0.103117,0.34201 -0.358219,0.686054 -0.654494,0.882683 -0.223159,0.148106 -0.269964,0.16039 -1.140978,0.299485 -0.49955,0.07978 -0.996002,0.139867 -1.103229,0.133536 z m 1.963081,-1.096035 c 0.234338,-0.214362 0.30529,-0.422956 0.256117,-0.752967 l -0.04305,-0.288924 -1.4555,0.216875 -1.455501,0.216875 0.04305,0.288923 c 0.04917,0.330011 0.177855,0.508859 0.464508,0.645592 0.16215,0.07735 0.206399,0.07496 1.110598,-0.05976 0.904199,-0.134728 0.947219,-0.145356 1.079777,-0.266609 z m 0.05041,-2.133516 -0.05422,-0.363874 -1.4555,0.216875 -1.4555,0.216874 0.05422,0.363874 0.05422,0.363876 1.455501,-0.216875 1.455499,-0.216874 z M 0.966385,11.742073 c 0.01614,-0.277303 0.05184,-0.560801 0.07933,-0.629995 0.07422,-0.186813 0.301713,-0.376609 0.521552,-0.435128 0.227818,-0.06064 0.357844,-0.02475 0.909224,0.250968 l 0.38055,0.190296 0.343595,-0.466177 0.343595,-0.466176 -0.124225,-0.181512 C 3.23062,9.72762 3.035144,9.576571 2.484802,9.281696 L 1.980836,9.011667 1.926576,9.124231 c -0.02984,0.06191 -0.153918,0.258236 -0.275721,0.436283 -0.491424,0.718337 -1.307052,1.057969 -2.160462,0.899632 -1.579354,-0.293027 -2.317794,-2.140479 -1.368097,-3.422747 0.245816,-0.331895 0.688037,-0.671512 1.011963,-0.777165 0.155637,-0.05076 0.173413,-0.07038 0.137704,-0.151998 -0.03846,-0.0879 -0.302501,-0.751012 -0.395788,-0.993979 -0.03608,-0.09397 -0.0476,-0.07285 -0.07932,0.145341 -0.0471,0.324039 -0.255276,0.584123 -0.536348,0.670074 -0.253435,0.0775 -0.371782,0.04997 -0.909593,-0.211563 l -0.449626,-0.218653 -0.286316,0.386579 -0.286315,0.386579 0.364126,0.393233 c 0.416441,0.449729 0.493133,0.613562 0.427224,0.912658 -0.08488,0.385167 -0.233982,0.498325 -1.038073,0.787801 l -0.253731,0.09135 0.06681,0.448393 0.06681,0.448395 0.269338,0.0134 c 0.853554,0.04248 1.029173,0.107254 1.22265,0.450945 0.150518,0.267377 0.124532,0.450624 -0.141888,1.000551 l -0.232784,0.480496 0.384621,0.284866 0.384621,0.284865 0.389369,-0.353632 c 0.214152,-0.194498 0.434862,-0.375903 0.490465,-0.403123 0.185954,-0.09103 0.485962,-0.05679 0.704847,0.08045 0.21586,0.135343 0.206321,0.118531 0.491752,0.866739 l 0.121675,0.318953 0.445269,-0.06635 0.445269,-0.06635 z M 0.706717,9.533326 C 0.949889,9.363512 1.215067,9.020206 1.287767,8.781084 L 1.340157,8.608768 0.91517,8.227529 C 0.507383,7.861721 0.040024,7.34356 -0.184426,7.008406 -0.275286,6.872728 -0.312085,6.853075 -0.439659,6.872084 c -0.414354,0.06174 -0.911446,0.510647 -1.071414,0.967558 -0.07767,0.221857 -0.08044,0.301966 -0.0236,0.683418 0.05666,0.380264 0.08306,0.457564 0.220032,0.644332 0.154414,0.210547 0.461536,0.447926 0.682276,0.52734 0.417263,0.150114 0.992235,0.08081 1.339086,-0.161406 z m 9.918601,-3.949631 c 0.0018,-0.08338 0.0026,-0.369635 0.0016,-0.636114 -0.0018,-0.500528 0.05388,-0.716767 0.248574,-0.96502 0.260707,-0.332428 0.715886,-0.469714 1.135542,-0.342491 0.274495,0.08322 0.425417,0.194764 0.908455,0.671453 l 0.337302,0.332869 0.51342,-0.521019 C 14.052592,3.836813 14.279712,3.591807 14.27492,3.578914 14.27012,3.566024 14.074299,3.364349 13.839744,3.130752 13.549502,2.841692 13.384088,2.637302 13.321874,2.49086 13.112141,1.997156 13.245434,1.482087 13.660822,1.181094 c 0.264486,-0.191646 0.501858,-0.23905 1.180051,-0.235658 0.243114,0.0012 0.464295,-7.33e-4 0.491513,-0.0043 0.0488,-0.0064 0.06423,-1.438706 0.01588,-1.474515 -0.01308,-0.0097 -0.302964,-0.01688 -0.644175,-0.01596 -0.708127,0.0019 -0.937184,-0.06584 -1.225319,-0.362289 -0.142419,-0.146531 -0.180595,-0.225873 -0.235011,-0.488426 -0.0559,-0.269746 -0.05313,-0.350652 0.01953,-0.579906 0.07169,-0.226045 0.151411,-0.33477 0.525962,-0.717282 0.242807,-0.247969 0.439151,-0.466716 0.436318,-0.486106 -0.0029,-0.01939 -0.234745,-0.261498 -0.515358,-0.538019 l -0.510206,-0.502766 -0.379159,0.384667 c -0.535023,0.542797 -0.652875,0.620552 -1.015659,0.670103 -0.485128,0.06626 -0.815815,-0.09559 -1.076524,-0.526896 -0.12327,-0.203935 -0.163628,-0.478888 -0.16283,-1.109305 3.38e-4,-0.265845 -0.0057,-0.487214 -0.01334,-0.491932 -0.03902,-0.02399 -1.443518,0.0046 -1.462154,0.02979 -0.01198,0.01617 -0.02088,0.292891 -0.01979,0.614932 0.0022,0.65432 -0.03899,0.844331 -0.241181,1.112189 -0.184143,0.243941 -0.357514,0.343943 -0.67945,0.391912 -0.455479,0.06787 -0.70953,-0.05079 -1.256292,-0.58675 L 6.434721,-4.185268 5.946933,-3.692233 c -0.268284,0.27117 -0.503007,0.511247 -0.521605,0.533503 -0.0186,0.02226 0.148594,0.219227 0.371538,0.437711 0.477441,0.46789 0.512632,0.512366 0.61479,0.777026 0.169645,0.439499 0.01107,0.952606 -0.380164,1.230107 -0.259176,0.183834 -0.497355,0.22819 -1.209656,0.225276 -0.265957,-0.0011 -0.488304,0.0044 -0.494105,0.01227 -0.03507,0.04737 0.0043,1.44355 0.04141,1.467806 0.02476,0.01619 0.304186,0.02653 0.620947,0.02297 0.643414,-0.0072 0.846075,0.04131 1.122908,0.268942 0.245593,0.201941 0.349319,0.413363 0.368791,0.751691 0.02408,0.418478 -0.08746,0.630862 -0.605264,1.15244 L 5.429454,3.637838 5.557598,3.764129 C 5.628078,3.833589 5.864797,4.067733 6.083642,4.28445 6.302487,4.501167 6.490269,4.67718 6.500937,4.67559 6.511607,4.67399 6.701814,4.4873 6.923625,4.2607 7.404653,3.769287 7.534388,3.684706 7.88792,3.632029 c 0.322223,-0.04801 0.549281,0.0022 0.778658,0.172039 0.369733,0.27384 0.46369,0.564491 0.464066,1.435549 1.17e-4,0.271538 0.0099,0.500891 0.02177,0.509675 0.02895,0.02144 1.138019,0.02368 1.323041,0.0027 0.131028,-0.01487 0.146873,-0.03267 0.149871,-0.168238 z M 9.443865,3.105882 C 8.146234,2.922991 7.182231,1.968219 6.989547,0.675066 c -0.08559,-0.574429 -0.06781,-0.852871 0.08552,-1.338907 0.24495,-0.77648 0.897721,-1.480379 1.677025,-1.808375 1.660613,-0.698924 3.699634,0.454794 3.969246,2.245878 0.121508,0.807218 -0.05054,1.495732 -0.543745,2.175971 -0.247944,0.341968 -0.378965,0.473875 -0.667085,0.671586 -0.424988,0.291631 -0.68433,0.387846 -1.272701,0.472165 -0.313573,0.04494 -0.538633,0.04848 -0.79394,0.0125 z m 1.271061,-0.852817 c 1.104202,-0.511866 1.641166,-1.897542 1.13997,-2.941783 -0.602874,-1.256088 -2.128608,-1.665338 -3.26973,-0.877044 -0.991504,0.684937 -1.237535,2.083194 -0.540012,3.069044 0.357745,0.505622 1.068059,0.898936 1.695096,0.938604 0.227465,0.01439 0.758038,-0.08839 0.974676,-0.188821 z m 0.921892,9.328775 -0.189765,-1.273563 0.363876,-0.05422 0.363875,-0.05422 0.189765,1.273562 0.189766,1.273563 -0.363876,0.05422 -0.363876,0.05422 z m 2.56221,-1.21963 C 13.566206,9.973733 13.039734,9.638732 13.02909,9.61776 13.00586,9.572 13.305789,9.054941 13.360272,9.046823 c 0.04993,-0.0074 2.387333,1.416359 2.393536,1.45799 0.0089,0.05986 -0.305446,0.555598 -0.354901,0.559663 -0.02711,0.0022 -0.567057,-0.313791 -1.199879,-0.702266 z m -7.819117,0.887065 -0.08133,-0.545812 0.363875,-0.05422 0.363875,-0.05422 0.08133,0.545813 0.08133,0.545813 -0.363875,0.05422 -0.363875,0.05422 z M 6.142615,9.738701 C 6.061435,9.421924 5.850942,9.034008 5.624186,8.78327 5.27489,8.397031 4.971967,8.218489 4.316851,8.012735 3.98151,7.907413 3.542783,7.742904 3.341903,7.64716 2.142612,7.075546 1.177047,6.016162 0.682112,4.728931 0.531675,4.337671 0.380383,3.396478 0.393807,2.935367 0.426647,1.807339 0.830336,0.691742 1.526772,-0.195587 1.813826,-0.561322 2.137142,-0.891406 2.1766,-0.859018 c 0.01045,0.0086 0.114655,0.12602 0.231565,0.260983 l 0.212563,0.245387 -0.156336,0.164684 C 1.903677,0.402688 1.552939,0.987441 1.330032,1.703251 0.756212,3.545924 1.368342,5.396956 2.935319,6.557521 3.432504,6.925756 3.771545,7.087853 4.55,7.32951 5.051122,7.485075 5.239175,7.570419 5.535358,7.776696 6.228062,8.259129 6.643901,8.849101 6.859379,9.655148 l 0.05678,0.212387 -0.356641,0.05314 -0.356642,0.05314 z m 7.108158,-2.302862 -0.05422,-0.363875 1.273562,-0.189766 1.273564,-0.189765 0.05422,0.363875 0.05422,0.363876 -1.273564,0.189766 -1.273562,0.189765 z M -5.230355,2.901619 c -0.04039,-0.08988 -0.09661,-0.235331 -0.124936,-0.323233 l -0.0515,-0.159822 1.366501,-0.565991 c 1.061391,-0.439619 1.376475,-0.554186 1.411173,-0.513115 0.0571,0.06759 0.243425,0.564822 0.222326,0.593309 -0.01871,0.02526 -2.640208,1.115885 -2.705652,1.125636 -0.02446,0.0036 -0.07752,-0.06691 -0.117913,-0.156784 z m 1.269132,-3.566864 c -0.740498,-0.381566 -1.360581,-0.70429 -1.377963,-0.717164 -0.02469,-0.01828 0.08839,-0.267593 0.284246,-0.626658 0.0077,-0.01409 2.653342,1.324253 2.754765,1.393537 0.03955,0.02702 -0.238852,0.641106 -0.291575,0.643147 -0.01271,4.76e-4 -0.628975,-0.311296 -1.369473,-0.692862 z m 1.933077,-2.182808 -0.577827,-1.37141 0.177665,-0.0862 c 0.09772,-0.04741 0.247931,-0.101179 0.333811,-0.11948 l 0.156145,-0.03328 0.555025,1.312127 c 0.305263,0.721669 0.55977,1.336589 0.565568,1.366487 0.01066,0.05497 -0.184733,0.158839 -0.474419,0.252201 l -0.15814,0.05097 z"
         id="path317" /><path
         style="fill:#ffffff;stroke-width:0.0459866"
         d="m 0.055384,12.31951 c -0.01455,-0.0298 -0.09991,-0.252454 -0.189698,-0.494794 -0.217739,-0.5877 -0.409292,-0.771539 -0.81795,-0.785007 -0.275538,-0.0091 -0.401733,0.06021 -0.82434,0.45269 l -0.368052,0.341809 -0.369516,-0.273679 -0.369515,-0.273677 0.242097,-0.49955 0.242097,-0.499549 -0.06146,-0.274698 C -2.568275,9.533397 -2.779414,9.400823 -3.503795,9.358255 L -4.01886,9.327985 -4.08224,8.902651 -4.14562,8.47732 -3.661753,8.298208 C -2.956091,8.036996 -2.798586,7.844535 -2.87435,7.336059 -2.91897,7.036572 -2.92453,7.027133 -3.275864,6.653365 L -3.632128,6.274357 -3.358293,5.90463 -3.084459,5.534902 -2.595671,5.769771 c 0.491018,0.23594 0.550526,0.24899 0.840489,0.184324 0.325406,-0.07257 0.573047,-0.375141 0.576553,-0.704442 0.0019,-0.183408 0.0095,-0.172343 0.181483,0.267145 0.269897,0.68958 0.27018,0.653401 -0.006,0.771049 -0.684248,0.291452 -1.207453,0.98539 -1.309516,1.73684 -0.05033,0.370564 0.04906,0.944992 0.222542,1.286142 0.652043,1.282265 2.34304,1.61536 3.417608,0.673207 C 1.534139,9.802849 1.826877,9.411674 1.936796,9.169839 L 1.992646,9.046965 2.456241,9.295492 C 2.965847,9.568686 3.223208,9.769836 3.403437,10.03581 L 3.521857,10.210567 3.199738,10.649 2.877619,11.087434 2.371482,10.844909 c -0.457165,-0.21906 -0.52725,-0.239055 -0.724314,-0.206646 -0.257039,0.04227 -0.438658,0.1621 -0.570529,0.376424 -0.107867,0.175309 -0.10933,0.182681 -0.138181,0.696677 -0.01158,0.206299 -0.02558,0.412378 -0.0311,0.457952 -0.0086,0.07106 -0.06813,0.09152 -0.417771,0.143615 -0.286266,0.04265 -0.415601,0.04462 -0.434173,0.0066 z m -0.0022,-2.576022 c 0.02939,-0.01728 0.08056,-0.0249 0.113711,-0.01694 0.03315,0.008 0.0091,0.02209 -0.05344,0.03141 -0.06254,0.0093 -0.08967,0.0028 -0.060271,-0.01447 z M -4.8597,9.0185 C -4.9212,8.605729 -4.93947,8.43584 -4.90029,8.640971 c 0.03918,0.20513 0.0895,0.542851 0.111826,0.750491 0.02232,0.207642 -0.0097,0.03981 -0.07124,-0.372962 z M 1.123572,8.464055 c -0.06733,-0.06371 -0.06596,-0.06556 0.01462,-0.01973 0.0489,0.02781 0.09005,0.05829 0.09146,0.06774 0.0056,0.03744 -0.03536,0.01891 -0.106072,-0.04801 z m -5.116037,-3.01535 c 0.254684,-0.34481 0.473297,-0.628453 0.485805,-0.630317 0.01251,-0.0019 -0.185636,0.278729 -0.440321,0.62354 -0.254684,0.344811 -0.473296,0.628454 -0.485805,0.630318 -0.01251,0.0019 0.185636,-0.27873 0.440321,-0.623541 z m 15.988163,-5.524526 c -0.0057,-0.05331 0.0034,-0.0657 0.02338,-0.03157 0.01803,0.03088 0.02226,0.07035 0.0094,0.08771 -0.01286,0.01736 -0.02762,-0.0079 -0.03279,-0.05614 z M -0.348423,-0.830614 c -0.0014,-0.0094 0.02908,-0.0506 0.06774,-0.09146 0.06371,-0.06733 0.06556,-0.06596 0.01973,0.01462 -0.04813,0.08462 -0.08189,0.114279 -0.08747,0.07684 z m 0.387071,-0.522617 c -0.0014,-0.0094 0.02908,-0.0506 0.06774,-0.09146 0.06371,-0.06733 0.06556,-0.06596 0.01973,0.01461 -0.04813,0.08462 -0.08189,0.114279 -0.08747,0.07684 z M 3.759582,-3.78164 c 0.03087,-0.01803 0.07035,-0.02226 0.08771,-0.0094 0.01737,0.01286 -0.0079,0.02761 -0.05614,0.03278 -0.05331,0.0057 -0.0657,-0.0034 -0.03158,-0.02339 z m 1.316345,-0.195173 c 0.02939,-0.01728 0.08056,-0.0249 0.113711,-0.01694 0.03315,0.008 0.0091,0.02209 -0.05344,0.03141 -0.06254,0.0093 -0.08966,0.0028 -0.060271,-0.01447 z"
         id="path335" /><path
         style="fill:#9c9ea0;stroke-width:0.0459866"
         d="m 4.470825,13.126163 -0.128906,-0.10865 0.141513,0.09163 c 0.132265,0.08564 0.166786,0.118149 0.131113,0.123464 -0.0081,0.0012 -0.07282,-0.04669 -0.14372,-0.106444 z M 9.43376,12.398285 c 0.04944,-0.0713 0.100117,-0.131154 0.112625,-0.133018 0.01251,-0.0019 -0.01771,0.05494 -0.06714,0.12624 -0.04944,0.0713 -0.100117,0.131152 -0.112625,0.133016 -0.01251,0.0019 0.0177,-0.05494 0.06714,-0.126238 z M 1.628547,10.623637 c 0.03088,-0.01803 0.07035,-0.02226 0.08771,-0.0094 0.01736,0.01286 -0.0079,0.02761 -0.05614,0.03278 -0.05331,0.0057 -0.0657,-0.0034 -0.03158,-0.02339 z m 1.311132,-1.058616 -0.101897,-0.08943 0.115251,0.0714 c 0.108307,0.0671 0.140633,0.0997 0.104234,0.105122 -0.0086,0.0013 -0.06155,-0.03791 -0.117588,-0.08709 z M 9.859321,8.545586 c 0.03782,-0.05678 0.079,-0.104759 0.09151,-0.106623 0.01251,-0.0019 -0.0082,0.04307 -0.04603,0.09985 -0.03782,0.05678 -0.079,0.104761 -0.09151,0.106624 -0.01251,0.0019 0.0082,-0.04307 0.04603,-0.099851 z m -9.9399,1.216848 c 0.03088,-0.01803 0.07035,-0.02226 0.08771,-0.0094 0.01736,0.01286 -0.0079,0.02761 -0.05614,0.03279 -0.05331,0.0057 -0.0657,-0.0034 -0.03157,-0.02338 z m 0.318391,-0.04744 c 0.03088,-0.01803 0.07035,-0.02226 0.08771,-0.0094 0.01736,0.01286 -0.0079,0.02761 -0.05614,0.03278 -0.05331,0.0057 -0.0657,-0.0034 -0.03157,-0.02338 z m -1.238958,-0.23695 -0.128906,-0.108651 0.141513,0.09163 c 0.132264,0.08564 0.166785,0.118149 0.131113,0.123465 -0.0081,0.0012 -0.07282,-0.04669 -0.14372,-0.106444 z M 1.266631,8.584212 c -0.03434,-0.06115 -0.0299,-0.06715 0.02167,-0.02926 0.03568,0.02622 0.05513,0.06084 0.04321,0.07693 -0.01192,0.0161 -0.04111,-0.0054 -0.06488,-0.04768 z m -2.56762,-1.142107 c 0.04944,-0.0713 0.100117,-0.131153 0.112625,-0.133017 0.01251,-0.0019 -0.0177,0.05494 -0.06714,0.12624 -0.04944,0.0713 -0.100117,0.131154 -0.112625,0.133017 -0.01251,0.0019 0.01771,-0.05494 0.06714,-0.12624 z M -1.979412,7.101498 c 0.03782,-0.05678 0.079,-0.104761 0.09151,-0.106625 0.01251,-0.0019 -0.0082,0.04307 -0.04603,0.09985 -0.03782,0.05678 -0.079,0.104759 -0.09151,0.106623 -0.01251,0.0019 0.0082,-0.04307 0.04603,-0.09985 z m 0.508725,-3.655859 c -0.0093,-0.06254 -0.0028,-0.08966 0.01447,-0.06027 0.01728,0.02939 0.0249,0.08056 0.01694,0.113711 -0.008,0.03315 -0.02209,0.0091 -0.03141,-0.053441 z m 13.49426,-3.359023 c -0.0093,-0.06254 -0.0028,-0.08966 0.01447,-0.06027 0.01728,0.02939 0.0249,0.08056 0.01694,0.113712 -0.008,0.03315 -0.02209,0.0091 -0.03141,-0.05344 z m -0.04744,-0.318391 c -0.0093,-0.06254 -0.0028,-0.08966 0.01447,-0.06027 0.01728,0.02939 0.0249,0.08056 0.01694,0.113711 -0.008,0.03315 -0.02209,0.0091 -0.03141,-0.053441 z m -0.881359,-1.32162 -0.155619,-0.127918 0.167731,0.111565 c 0.09225,0.06136 0.168684,0.11797 0.169851,0.125798 0.0052,0.03514 -0.03691,0.0098 -0.181963,-0.109445 z m 4.010902,-1.701876 c -0.0093,-0.06254 -0.0028,-0.08966 0.01447,-0.06027 0.01728,0.02939 0.0249,0.08056 0.01694,0.113711 -0.008,0.03315 -0.0221,0.0091 -0.03141,-0.053441 z m -15.222685,2.105518 c 0.07182,-0.100202 0.140811,-0.183711 0.153319,-0.185575 0.01251,-0.0019 -0.03602,0.07859 -0.107835,0.178798 -0.07182,0.100202 -0.140811,0.183711 -0.15332,0.185575 -0.01251,0.0019 0.03602,-0.07859 0.107836,-0.178798 z m 13.50318,-3.883413 c -0.06732,-0.06371 -0.06596,-0.06556 0.01462,-0.01973 0.04889,0.02781 0.09005,0.05829 0.09146,0.06774 0.0056,0.03744 -0.03536,0.01891 -0.106072,-0.048 z m -9.469437,1.227652 c 0.04254,-0.01813 0.104053,-0.02652 0.136704,-0.01865 0.03265,0.0079 -0.0022,0.0227 -0.07734,0.03296 -0.07519,0.01025 -0.101902,0.0038 -0.05936,-0.01431 z m 0.955172,-0.142324 c 0.04254,-0.01813 0.104054,-0.02652 0.136704,-0.01865 0.03265,0.0079 -0.0022,0.0227 -0.07734,0.03296 -0.07519,0.01025 -0.101902,0.0038 -0.05936,-0.01431 z M 6.31169,-5.044333 c 0.02939,-0.01728 0.08056,-0.0249 0.113712,-0.01694 0.03315,0.008 0.0091,0.02209 -0.05344,0.03141 -0.06254,0.0093 -0.08966,0.0028 -0.06027,-0.01447 z m 4.799211,-0.905154 c -0.06733,-0.06371 -0.06596,-0.06556 0.01461,-0.01973 0.08462,0.04813 0.114279,0.08189 0.07684,0.08747 -0.0094,0.0014 -0.0506,-0.02908 -0.09146,-0.06774 z"
         id="path333" /><path
         style="fill:#ffffff;stroke-width:0.0459866"
         d="M 9.848517,5.742777 C 9.079844,5.745977 9.15561,5.822887 9.155274,5.039057 9.155155,4.764542 9.130484,4.462289 9.100454,4.367385 8.882876,3.679827 8.048328,3.359507 7.462248,3.738601 7.365428,3.801231 7.114696,4.026429 6.905058,4.239052 6.695422,4.451675 6.512853,4.627285 6.499349,4.629297 6.477649,4.632497 5.616142,3.797283 5.516821,3.676713 5.493431,3.648313 5.602291,3.50502 5.791084,3.31569 6.44022,2.664708 6.566738,2.417155 6.497813,1.93286 6.448843,1.588757 6.302098,1.353083 6.033355,1.186912 5.770406,1.024325 5.522199,0.978979 4.920017,0.983512 c -0.306518,0.0023 -0.560323,0.0012 -0.564011,-0.0025 -0.02168,-0.02151 -0.0077,-1.376727 0.01453,-1.406383 0.01486,-0.01984 0.280928,-0.03766 0.591267,-0.0396 0.310339,-0.0019 0.639762,-0.02535 0.732051,-0.05201 C 6.232986,-0.67274 6.569983,-1.190998 6.488355,-1.738824 6.440165,-2.062269 6.315898,-2.249808 5.836766,-2.72221 5.624143,-2.931847 5.448533,-3.114416 5.446521,-3.12792 c -0.0032,-0.02167 0.831984,-0.883193 0.952243,-0.982241 0.0282,-0.02323 0.224271,0.135655 0.49436,0.400613 0.341979,0.335483 0.504075,0.459755 0.686854,0.526582 0.47927,0.175228 0.93746,0.06232 1.232319,-0.303676 0.239146,-0.296841 0.294396,-0.528828 0.286009,-1.20089 l -0.0073,-0.582729 0.690511,-0.0039 c 0.379781,-0.0021 0.704631,0.0066 0.721889,0.01938 0.01726,0.01278 0.03475,0.297042 0.03888,0.631689 0.0086,0.69589 0.0624,0.88087 0.344194,1.183018 0.301979,0.323793 0.869904,0.410262 1.289101,0.196273 0.08078,-0.04124 0.343613,-0.271742 0.584074,-0.512235 0.243207,-0.243239 0.455977,-0.421586 0.479516,-0.401936 0.02327,0.01943 0.234119,0.226429 0.468545,0.460002 0.234427,0.233574 0.448088,0.445805 0.474803,0.471624 0.03332,0.0322 -0.05673,0.153663 -0.286791,0.386808 -0.618258,0.626554 -0.735528,0.838897 -0.714974,1.294626 0.01402,0.310746 0.148123,0.5619 0.404581,0.757687 0.277076,0.211531 0.530603,0.268844 1.164428,0.263238 0.56112,-0.005 0.569025,-0.0034 0.585178,0.112941 0.02602,0.187466 0.02066,1.25325 -0.0065,1.289903 -0.01352,0.01825 -0.302461,0.03718 -0.642095,0.04206 -0.592276,0.0085 -0.626983,0.01366 -0.849199,0.126164 -0.452671,0.229144 -0.693358,0.670653 -0.621499,1.140066 0.05465,0.357358 0.149033,0.504163 0.620376,0.965545 0.23009,0.225227 0.419644,0.418222 0.421231,0.428877 0.004,0.02697 -0.917737,0.958301 -0.981693,0.991888 C 13.246942,4.588497 13.040023,4.416529 12.815748,4.191328 12.591474,3.966127 12.321569,3.736996 12.21596,3.682149 11.759781,3.445239 11.223509,3.546251 10.899457,3.930125 10.64964,4.226062 10.592711,4.457803 10.600885,5.145563 c 0.0041,0.34234 -0.01347,0.592307 -0.04162,0.593071 -0.02676,7.32e-4 -0.34661,0.0026 -0.710783,0.0041 z m 1.294024,-2.868654 c 1.215006,-0.644044 1.85542,-1.940385 1.588943,-3.21638 C 12.582603,-1.05516 12.205379,-1.624202 11.569433,-2.095208 11.138294,-2.414527 10.789006,-2.570732 10.296801,-2.664343 8.495002,-3.00702 6.771077,-1.426186 6.92097,0.431283 7.041656,1.926829 8.165068,3.04831 9.657277,3.162891 c 0.402127,0.03088 1.160345,-0.116537 1.485264,-0.288768 z"
         id="path331" /><path
         style="fill:#bfcad6;fill-opacity:1;stroke-width:0.0459866"
         d="M 5.320833,12.676507 C 5.120105,12.674407 4.75745,12.385144 4.688962,12.172498 4.658022,12.076418 4.573922,11.604888 4.502084,11.124653 4.381924,10.321409 4.35813,10.22416 4.204858,9.909992 3.919873,9.325847 3.512104,8.956079 2.752807,8.593264 1.244819,7.8727 0.051899,6.488082 -0.458957,4.865378 -0.735768,3.986102 -0.814234,2.757869 -0.649699,1.879672 c 0.295506,-1.577246 1.246666,-3.055097 2.557244,-3.973281 0.642893,-0.450408 1.671379,-0.885443 2.32278,-0.982504 0.264552,-0.03942 0.28881,-0.03496 0.302295,0.05554 0.0081,0.05412 0.255259,0.336354 0.549321,0.627186 0.652537,0.64537 0.626665,0.614187 0.646479,0.779216 0.0398,0.33152 -0.135828,0.391835 -1.137271,0.390555 -0.764368,-9.89e-4 -0.783032,0.0021 -0.909877,0.148903 -0.09933,0.114975 -0.105298,0.18369 -0.103342,1.189378 0.0026,1.311396 0.01649,1.427387 0.186633,1.553404 0.07055,0.05225 0.15488,0.09163 0.187392,0.08751 0.03251,-0.0041 0.392206,-0.0084 0.79932,-0.0096 0.68149,-0.0019 0.750038,0.0064 0.864163,0.10499 C 5.741017,1.959458 5.779064,2.062525 5.746941,2.207198 5.737241,2.251038 5.477987,2.54245 5.170897,2.854773 4.863808,3.167095 4.597265,3.465375 4.57858,3.517617 4.50336,3.727936 4.57748,3.83171 5.348259,4.595792 c 0.946474,0.938202 1.00394,0.98531 1.17149,0.960345 0.175059,-0.02608 0.231887,-0.07239 0.814765,-0.663894 0.539907,-0.547897 0.645003,-0.6038 0.881441,-0.468863 0.163311,0.0932 0.175133,0.159103 0.174098,0.970311 -10e-4,0.814959 0.01183,0.88514 0.185826,1.013108 0.135077,0.09934 0.206974,0.105142 1.211788,0.09773 0.587507,-0.0043 1.134301,-0.01587 1.215097,-0.02564 l 0.146903,-0.01776 -0.144993,0.235421 c -0.07975,0.129482 -0.196003,0.300644 -0.258346,0.380359 L 10.632974,7.221849 10.486206,7.108202 10.339438,6.994552 9.78864,7.556825 C 9.239747,8.117155 9.041558,8.400236 8.902031,8.823196 8.739468,9.315995 8.738609,9.38364 8.880381,10.527983 c 0.129659,1.046564 0.132048,1.102871 0.05335,1.257171 -0.04532,0.08884 -0.141115,0.21819 -0.212889,0.287439 -0.129568,0.12501 -0.141645,0.127609 -1.698833,0.365598 -0.862585,0.131832 -1.628112,0.239079 -1.701173,0.238315 z m 1.786828,-1.535669 -0.08133,-0.545813 -0.363875,0.05422 -0.363875,0.05422 0.08133,0.545812 0.08133,0.545813 0.363875,-0.05422 0.363875,-0.05422 z M 6.865172,9.584542 C 6.773502,9.189501 6.459334,8.611321 6.150686,8.269622 5.727316,7.800919 5.301673,7.545885 4.520944,7.293123 3.721828,7.034408 3.344478,6.849445 2.877562,6.487602 1.349062,5.303069 0.773656,3.428359 1.382225,1.615697 1.599043,0.969893 1.951574,0.401617 2.503571,-0.191897 L 2.654166,-0.353819 2.421888,-0.621421 C 2.294135,-0.768602 2.182057,-0.895145 2.172827,-0.902628 2.137977,-0.930868 1.762955,-0.546156 1.501957,-0.214426 0.262716,1.36066 0.023159,3.588472 0.908478,5.304745 c 0.504741,0.978489 1.434736,1.894814 2.381898,2.346889 0.208669,0.0996 0.66265,0.268688 1.008847,0.375759 0.535559,0.165636 0.676993,0.231171 0.948195,0.439361 0.363484,0.279031 0.659109,0.673807 0.789034,1.05367 0.04814,0.140758 0.10281,0.300721 0.121481,0.355477 0.03191,0.09357 0.05613,0.09625 0.403182,0.04454 l 0.369236,-0.05502 z m 4.503004,-3.669841 c 0.0033,-0.07082 0.0033,-0.368959 -3.2e-5,-0.662537 -0.0073,-0.644321 0.01736,-0.769086 0.17046,-0.860988 0.130257,-0.07819 0.359453,-0.0744 0.405278,0.0067 0.05616,0.09939 -0.463697,1.627991 -0.558455,1.64211 -0.01283,0.0019 -0.02058,-0.05447 -0.01726,-0.125286 z M 9.730191,2.40502 C 8.950753,2.35326 8.223811,1.881209 7.906976,1.221081 7.731418,0.855308 7.637466,0.248467 7.700135,-0.114954 7.867754,-1.087095 8.571248,-1.770168 9.555942,-1.91689 l 0.322231,-0.04801 0.195594,0.191704 c 0.724043,0.709634 1.344859,1.660786 1.674663,2.565748 0.08205,0.225138 0.08589,0.271757 0.03199,0.388626 -0.207231,0.449335 -0.785303,0.957817 -1.286907,1.131987 -0.296201,0.102848 -0.403452,0.115755 -0.763312,0.09186 z"
         id="path329" /><path
         style="fill:#1d7589;stroke-width:0.0459866"
         d="m 9.13634,5.697072 c -0.0057,-0.05331 0.0034,-0.0657 0.02339,-0.03158 0.01803,0.03088 0.02226,0.07035 0.0094,0.08771 -0.01286,0.01736 -0.02761,-0.0079 -0.03278,-0.05614 z m 2.947446,-3.596914 c 0.04943,-0.0713 0.100115,-0.131153 0.112625,-0.133018 0.01251,-0.0019 -0.01771,0.05494 -0.06714,0.12624 -0.04944,0.0713 -0.100116,0.131153 -0.112624,0.133017 -0.01251,0.0019 0.01771,-0.05494 0.06714,-0.126239 z m 3.222183,-1.219335 c 0.02704,-0.03981 0.05735,-0.06664 0.06735,-0.05962 0.0308,0.02161 -0.02468,0.118317 -0.07192,0.125355 -0.02453,0.0037 -0.02247,-0.02592 0.0046,-0.06573 z m -1.034241,0.04791 c 0.03087,-0.01803 0.07035,-0.02226 0.08771,-0.0094 0.01736,0.01286 -0.0079,0.02762 -0.05614,0.03278 -0.05331,0.0057 -0.0657,-0.0034 -0.03158,-0.02338 z M 12.770889,0.134129 c -0.0057,-0.05331 0.0034,-0.0657 0.02338,-0.03158 0.01803,0.03088 0.02226,0.07035 0.0094,0.08771 -0.01286,0.01737 -0.02761,-0.0079 -0.03278,-0.05614 z m 2.558724,-0.61373 c -0.0057,-0.05331 0.0034,-0.0657 0.02339,-0.03157 0.01803,0.03088 0.02226,0.07035 0.0094,0.08771 -0.01286,0.01736 -0.02762,-0.0079 -0.03278,-0.05614 z M 7.380231,-1.383482 c 0.04943,-0.07129 0.100116,-0.131153 0.112625,-0.133017 0.01251,-0.0019 -0.01771,0.05494 -0.06714,0.12624 -0.04944,0.0713 -0.100117,0.131153 -0.112625,0.133017 -0.01251,0.0019 0.0177,-0.05494 0.06714,-0.12624 z m 4.165872,-0.725341 -0.128907,-0.108652 0.141513,0.09163 c 0.132264,0.08564 0.166786,0.11815 0.131113,0.123466 -0.0081,0.0012 -0.07282,-0.04669 -0.143719,-0.106444 z M 9.047512,-2.616805 c 0.03087,-0.01803 0.07035,-0.02226 0.08771,-0.0094 0.01736,0.01286 -0.0079,0.02761 -0.05614,0.03278 -0.05331,0.0057 -0.0657,-0.0034 -0.03158,-0.02339 z m 1.94259,-0.711011 c -0.06732,-0.06371 -0.06596,-0.06556 0.01462,-0.01973 0.04889,0.02781 0.09005,0.05829 0.09146,0.06774 0.0056,0.03744 -0.03536,0.01891 -0.106072,-0.048 z M 10.475363,-5.26199 c -0.04494,-0.02038 -0.05322,-0.03742 -0.02073,-0.04269 0.02974,-0.0048 0.06977,0.0098 0.08895,0.03253 0.04332,0.05127 0.02757,0.05362 -0.06823,0.01017 z"
         id="path327" /><path
         style="fill:#ffffff;stroke-width:0.0459866"
         d="m -0.422609,13.064899 c -0.06733,-0.06371 -0.06596,-0.06556 0.01461,-0.01973 0.04889,0.02781 0.09005,0.05829 0.09146,0.06774 0.0056,0.03744 -0.03536,0.01891 -0.106072,-0.04801 z m 16.150227,-2.557544 c -0.0088,-0.05891 0.0043,-0.07658 0.03815,-0.05152 0.03385,0.02507 0.03843,0.05582 0.01336,0.08967 -0.02507,0.03385 -0.04274,0.02076 -0.05151,-0.03815 z M 3.483896,11.471568 c 0.136933,-0.186621 0.259202,-0.340836 0.27171,-0.3427 0.01251,-0.0019 -0.08929,0.149302 -0.226225,0.335923 -0.136933,0.186619 -0.259202,0.340834 -0.27171,0.342698 -0.01251,0.0019 0.08929,-0.149302 0.226225,-0.335921 z m 9.513817,-1.816845 c -0.02087,-0.02469 -0.02228,-0.06603 -0.0032,-0.09185 0.02057,-0.02777 0.04028,-0.01006 0.04824,0.04336 0.0154,0.10335 0.008,0.111323 -0.04509,0.0485 z m -15.566661,1.906408 c -0.199055,-0.148616 -0.353723,-0.277696 -0.343706,-0.286843 0.01002,-0.0092 0.182159,0.111068 0.382537,0.267142 0.200377,0.156075 0.355045,0.285153 0.343706,0.286843 -0.01134,0.0017 -0.183481,-0.118524 -0.382537,-0.267142 z m 2.032532,-0.36229 -0.101896,-0.08943 0.115251,0.0714 c 0.108307,0.0671 0.140633,0.0997 0.104234,0.105122 -0.0086,0.0013 -0.06155,-0.0379 -0.117589,-0.08709 z m -0.909277,-1.119859 -0.155619,-0.127919 0.16773,0.111566 c 0.156348,0.103994 0.192878,0.136914 0.157739,0.14215 -0.0078,0.0012 -0.08426,-0.05544 -0.16985,-0.125797 z M 1.012914,9.241769 c -0.0014,-0.0095 0.02908,-0.0506 0.06774,-0.09146 0.06371,-0.06733 0.06556,-0.06596 0.01973,0.01462 -0.04813,0.08462 -0.08189,0.114279 -0.08747,0.07684 z m -5.616461,0.726566 c -0.06733,-0.06371 -0.06596,-0.06556 0.01462,-0.01973 0.04889,0.02781 0.09005,0.05829 0.09146,0.06774 0.0056,0.03744 -0.03536,0.01891 -0.106072,-0.04801 z m 1.792266,-0.453032 c -0.06733,-0.06371 -0.06596,-0.06556 0.01461,-0.01973 0.04889,0.02781 0.09005,0.05829 0.09146,0.06774 0.0056,0.03744 -0.03536,0.01891 -0.106072,-0.04801 z m 3.74664,-1.232427 -0.101896,-0.08943 0.115251,0.0714 c 0.108306,0.0671 0.140633,0.0997 0.104234,0.105123 -0.0086,0.0013 -0.06155,-0.0379 -0.117589,-0.08709 z m -3.956996,-0.37515 c 0.03782,-0.05678 0.079,-0.10476 0.09151,-0.106623 0.01251,-0.0019 -0.0082,0.04307 -0.04603,0.09985 -0.03782,0.05678 -0.079,0.104761 -0.09151,0.106624 -0.01251,0.0019 0.0082,-0.04307 0.04603,-0.099851 z m 16.297072,-2.41261 c 0.02939,-0.01728 0.08056,-0.0249 0.113712,-0.01694 0.03315,0.008 0.0091,0.02209 -0.05344,0.03141 -0.06254,0.0093 -0.08966,0.0028 -0.06027,-0.01447 z M -4.925353,8.080844 c -0.0014,-0.0094 0.02907,-0.0506 0.06774,-0.09146 0.06371,-0.06733 0.06556,-0.06596 0.01973,0.01462 -0.04813,0.08462 -0.08189,0.114279 -0.08747,0.07684 z M 15.139996,3.527789 c -0.0093,-0.06254 -0.0028,-0.08967 0.01447,-0.06028 0.01728,0.02939 0.0249,0.08056 0.01694,0.113711 -0.008,0.03315 -0.0221,0.0091 -0.03141,-0.05344 z m -18.79637,2.772354 c -0.0035,-0.0236 0.120732,-0.207752 0.276108,-0.409221 L -3.097764,5.524616 -3.36551,5.911944 c -0.147261,0.21303 -0.271509,0.397179 -0.276108,0.409221 -0.0046,0.01204 -0.01124,0.0026 -0.01476,-0.02102 z M 15.957565,1.575138 c -0.0014,-0.0094 0.02908,-0.0506 0.06774,-0.09146 0.06371,-0.06733 0.06556,-0.06596 0.01973,0.01461 -0.04813,0.08462 -0.08189,0.114279 -0.08747,0.07684 z M -1.451119,3.601594 c -0.0057,-0.05331 0.0034,-0.0657 0.02339,-0.03158 0.01803,0.03088 0.02226,0.07035 0.0094,0.08771 -0.01286,0.01737 -0.02761,-0.0079 -0.03278,-0.05614 z m 0.993352,-4.229939 c -0.0014,-0.0094 0.02908,-0.0506 0.06774,-0.09146 0.06371,-0.06732 0.06556,-0.06596 0.01974,0.01462 -0.04813,0.08462 -0.08189,0.114279 -0.08747,0.07684 z m 13.552502,-4.450307 c 0.02939,-0.01728 0.08056,-0.0249 0.113711,-0.01694 0.03315,0.008 0.0091,0.02209 -0.05344,0.03141 -0.06254,0.0093 -0.08966,0.0028 -0.06027,-0.01447 z m -8.95058,1.239251 c 0.04254,-0.01813 0.104053,-0.02652 0.136704,-0.01865 0.03265,0.0079 -0.0022,0.0227 -0.07734,0.03296 -0.07519,0.01025 -0.101902,0.0038 -0.05936,-0.01431 z m 0.500328,-0.07455 c 0.04254,-0.01813 0.104054,-0.02652 0.136704,-0.01865 0.03265,0.0079 -0.0022,0.0227 -0.07734,0.03296 -0.07519,0.01025 -0.101902,0.0038 -0.05936,-0.01431 z m 6.608573,-1.770003 c -0.0057,-0.05331 0.0034,-0.0657 0.02338,-0.03157 0.01803,0.03088 0.02226,0.07035 0.0094,0.08771 -0.01286,0.01736 -0.02761,-0.0079 -0.03278,-0.05614 z m -13.272999,1.18268 c 0.03087,-0.01803 0.07035,-0.02226 0.08771,-0.0094 0.01737,0.01286 -0.0079,0.02762 -0.05614,0.03278 -0.05331,0.0057 -0.0657,-0.0034 -0.03157,-0.02339 z"
         id="path325" /><path
         style="fill:#9c6c0a;stroke-width:0.0459866"
         d="m 6.123967,9.818969 c -0.0057,-0.05331 0.0034,-0.06569 0.02339,-0.03157 0.01803,0.03088 0.02226,0.07035 0.0094,0.08771 -0.01286,0.01737 -0.02761,-0.0079 -0.03278,-0.05614 z M 6.81783,9.48311 C 6.81213,9.4298 6.82123,9.41741 6.84122,9.45154 6.85925,9.48241 6.86348,9.52189 6.85062,9.53925 6.83776,9.55661 6.823,9.53135 6.81784,9.48311 Z M 3.386684,8.96374 3.204522,8.816529 3.398445,8.947861 c 0.180498,0.12224 0.218953,0.155855 0.18422,0.161031 -0.0076,0.0011 -0.09579,-0.06419 -0.195981,-0.145152 z M 9.23896,8.126602 C 9.27678,8.069822 9.31797,8.021841 9.33047,8.019977 9.34298,8.018077 9.32227,8.063047 9.28444,8.119827 9.24662,8.176607 9.20544,8.224586 9.19293,8.22645 9.18042,8.22835 9.20113,8.18338 9.23896,8.1266 Z m -7.250682,0.04588 -0.101897,-0.08943 0.115251,0.0714 c 0.108307,0.0671 0.140634,0.0997 0.104234,0.105121 -0.0086,0.0013 -0.06155,-0.03791 -0.117588,-0.087091 z M 1.490311,7.804985 c -0.06733,-0.06371 -0.06596,-0.06556 0.01461,-0.01973 0.04889,0.02781 0.09005,0.05829 0.09146,0.06774 0.0056,0.03744 -0.03536,0.01891 -0.106072,-0.048 z M 2.492124,7.167521 2.230831,6.962361 2.503256,7.152492 C 2.756398,7.329166 2.800438,7.365677 2.766498,7.370735 2.759298,7.371835 2.635835,7.280365 2.492124,7.167521 Z M 2.883261,6.528063 2.754355,6.419412 2.895867,6.511042 c 0.132265,0.08564 0.166786,0.118151 0.131114,0.123466 -0.0081,0.0012 -0.07282,-0.04669 -0.14372,-0.106445 z M 1.198104,3.838397 c -0.0205,-0.137591 -0.02036,-0.195148 3.11e-4,-0.127906 0.02067,0.06724 0.03745,0.179816 0.03727,0.250164 -1.7e-4,0.07035 -0.01709,0.01533 -0.03759,-0.122258 z m -1.894062,0.073 c -0.0259,-0.175143 -0.02751,-0.242434 -0.0036,-0.149532 0.02391,0.0929 0.04509,0.236203 0.04708,0.318445 0.002,0.08224 -0.01758,0.0062 -0.04347,-0.168913 z M 9.890766,2.418414 c 0.03087,-0.01803 0.07035,-0.02226 0.08771,-0.0094 0.01736,0.01286 -0.0079,0.02761 -0.05614,0.03278 -0.05331,0.0057 -0.06569,-0.0034 -0.03157,-0.02338 z M 0.354702,3.239535 c -0.0057,-0.05331 0.0034,-0.0657 0.02339,-0.03157 0.01803,0.03087 0.02226,0.07035 0.0094,0.08771 -0.01286,0.01737 -0.02762,-0.0079 -0.03278,-0.05614 z m 7.333972,-2.64647 c -0.0205,-0.13759 -0.02036,-0.195148 3.1e-4,-0.127905 0.02067,0.06724 0.03744,0.179817 0.03728,0.250164 -1.67e-4,0.07035 -0.01709,0.01533 -0.03759,-0.122259 z M 2.012165,0.346267 C 2.127545,0.18843 2.232181,0.057766 2.244689,0.055902 2.257199,0.054002 2.173029,0.181653 2.05765,0.33949 1.94227,0.497327 1.837634,0.627991 1.825126,0.629855 1.812616,0.631755 1.896786,0.504104 2.012165,0.346267 Z m -0.425998,-0.67474 c -0.0014,-0.0094 0.02907,-0.0506 0.06774,-0.09146 0.06371,-0.06733 0.06556,-0.06596 0.01973,0.01462 -0.04813,0.08462 -0.08189,0.114279 -0.08747,0.07684 z m -1.507762,0.178168 c -0.0014,-0.0094 0.02907,-0.0506 0.06774,-0.09146 0.06371,-0.06732 0.06556,-0.06596 0.01973,0.01462 -0.04813,0.08462 -0.08189,0.114279 -0.08747,0.07684 z M 5.369514,-1.23233 c 0.04254,-0.01813 0.104053,-0.02651 0.136704,-0.01865 0.03265,0.0079 -0.0022,0.0227 -0.07734,0.03296 -0.07519,0.01025 -0.101902,0.0038 -0.05936,-0.01431 z m -4.969706,0.586746 c 0.03782,-0.05678 0.07901,-0.10476 0.09151,-0.106624 0.01251,-0.0019 -0.0082,0.04307 -0.04603,0.09985 -0.03782,0.05678 -0.079,0.10476 -0.09151,0.106624 -0.01251,0.0019 0.0082,-0.04307 0.04603,-0.09985 z m 9.026346,-1.28276 c 0.02939,-0.01728 0.08056,-0.0249 0.113711,-0.01694 0.03315,0.008 0.0091,0.02209 -0.05344,0.03141 -0.06254,0.0093 -0.08966,0.0028 -0.060271,-0.01447 z M 4.297236,-3.118133 c 0.04207,-0.01797 0.113712,-0.02864 0.159195,-0.02372 0.04548,0.0049 0.01106,0.01961 -0.0765,0.03266 -0.08756,0.01305 -0.124771,0.009 -0.0827,-0.0089 z"
         id="path323" /><path
         style="fill:#6d4b06;stroke-width:0.0459866"
         d="m 8.764785,9.731565 c -0.0093,-0.06254 -0.0028,-0.08966 0.01447,-0.06027 0.01728,0.02939 0.0249,0.08056 0.01694,0.113711 -0.008,0.03315 -0.02209,0.0091 -0.03141,-0.053441 z m -4.41953,0.631404 c -0.0057,-0.05331 0.0034,-0.0657 0.02338,-0.03158 0.01803,0.03088 0.02226,0.07035 0.0094,0.08771 -0.01286,0.01736 -0.02762,-0.0079 -0.03278,-0.05614 z M 6.845706,9.645561 c -0.0093,-0.06254 -0.0028,-0.08966 0.01447,-0.06027 0.01728,0.02939 0.0249,0.08056 0.01694,0.113712 -0.008,0.03315 -0.02209,0.0091 -0.03141,-0.05344 z m -0.742071,0.03696 c -0.0057,-0.05331 0.0034,-0.0657 0.02339,-0.03157 0.01803,0.03087 0.02226,0.07035 0.0094,0.08771 -0.01286,0.01736 -0.02762,-0.0079 -0.03278,-0.05614 z M 5.610835,7.818689 5.402234,7.652171 5.622333,7.803166 c 0.20469,0.140422 0.245027,0.174901 0.210614,0.180028 -0.0074,0.0011 -0.107381,-0.07292 -0.222112,-0.164505 z m 4.791553,-0.737204 c -0.06733,-0.06371 -0.06596,-0.06556 0.01461,-0.01973 0.08462,0.04813 0.11428,0.08189 0.07684,0.08747 -0.0094,0.0014 -0.0506,-0.02908 -0.09146,-0.06774 z m 0.371244,-0.610137 c 0.03087,-0.01803 0.07035,-0.02226 0.08771,-0.0094 0.01736,0.01286 -0.0079,0.02762 -0.05614,0.03278 -0.05331,0.0057 -0.0657,-0.0034 -0.03157,-0.02338 z m -0.32517,0.0019 c 0.03088,-0.01803 0.07035,-0.02225 0.08771,-0.0094 0.01736,0.01286 -0.0079,0.02761 -0.05614,0.03279 -0.05331,0.0057 -0.0657,-0.0034 -0.03157,-0.02338 z m -0.325167,0.0019 c 0.03087,-0.01803 0.07035,-0.02226 0.08771,-0.0094 0.01736,0.01286 -0.0079,0.02761 -0.05614,0.03278 -0.05331,0.0057 -0.0657,-0.0034 -0.03157,-0.02339 z M 1.333526,7.688756 c -0.06733,-0.06371 -0.06596,-0.06556 0.01462,-0.01973 0.0489,0.02781 0.09005,0.05829 0.09146,0.06774 0.0056,0.03744 -0.03536,0.01891 -0.106072,-0.048 z M 9.798127,6.477105 c 0.03088,-0.01803 0.07035,-0.02226 0.08771,-0.0094 0.01736,0.01286 -0.0079,0.02762 -0.05614,0.03279 -0.05331,0.0057 -0.0657,-0.0034 -0.03158,-0.02339 z m -0.325169,0.0019 c 0.03088,-0.01803 0.07035,-0.02226 0.08771,-0.0094 0.01736,0.01286 -0.0079,0.02761 -0.05614,0.03278 -0.05331,0.0057 -0.0657,-0.0034 -0.03157,-0.02338 z m -0.325168,0.0019 c 0.03087,-0.01803 0.07035,-0.02226 0.08772,-0.0094 0.01736,0.01286 -0.0079,0.02762 -0.05614,0.03278 -0.05331,0.0057 -0.0657,-0.0034 -0.03157,-0.02339 z m -0.325167,0.0019 c 0.03088,-0.01803 0.07035,-0.02226 0.08771,-0.0094 0.01736,0.01286 -0.0079,0.02762 -0.05614,0.03278 -0.05331,0.0057 -0.0657,-0.0034 -0.03158,-0.02338 z M 3.089948,6.682963 c -0.06733,-0.06371 -0.06596,-0.06556 0.01462,-0.01974 0.08462,0.04813 0.114279,0.08189 0.07684,0.08747 -0.0094,0.0014 -0.0506,-0.02908 -0.09146,-0.06774 z M 8.38145,4.650867 C 8.37113,4.575687 8.37765,4.548965 8.39576,4.591507 8.41389,4.634047 8.42228,4.69556 8.41437,4.728216 8.40647,4.760866 8.39167,4.726016 8.38141,4.650876 Z M 8.240233,4.427814 c -0.06733,-0.06371 -0.06596,-0.06556 0.01461,-0.01973 0.08462,0.04813 0.11428,0.08189 0.07684,0.08747 -0.0094,0.0014 -0.0506,-0.02907 -0.09146,-0.06774 z M 7.896535,4.343624 c 0.02939,-0.01728 0.08056,-0.0249 0.113711,-0.01694 0.03315,0.008 0.0091,0.02209 -0.05344,0.03141 -0.06254,0.0093 -0.08966,0.0028 -0.060271,-0.01447 z m -8.430139,0.422894 c -0.0057,-0.05331 0.0034,-0.06569 0.02338,-0.03157 0.01803,0.03088 0.02226,0.07035 0.0094,0.08771 -0.01286,0.01736 -0.02761,-0.0079 -0.03278,-0.05614 z M 4.566235,3.708287 c -0.0093,-0.06254 -0.0028,-0.08966 0.01447,-0.06027 0.01728,0.02939 0.0249,0.08056 0.01694,0.113711 -0.008,0.03315 -0.02209,0.0091 -0.03141,-0.053441 z m -4.063368,0.48922 c -0.01025,-0.07519 -0.0038,-0.101902 0.01431,-0.05937 0.01813,0.04254 0.02652,0.104054 0.01865,0.136705 -0.0079,0.03265 -0.0227,-0.0022 -0.03296,-0.07734 z m -1.148962,0.101458 c -0.0093,-0.06254 -0.0028,-0.08967 0.01447,-0.06027 0.01728,0.02939 0.0249,0.08056 0.01694,0.113711 -0.008,0.03315 -0.02209,0.0091 -0.03141,-0.053441 z M 0.382578,3.401781 c -0.0093,-0.06254 -0.0028,-0.08966 0.01447,-0.06027 0.01728,0.02939 0.0249,0.08056 0.01694,0.113711 -0.008,0.03315 -0.02209,0.0091 -0.03141,-0.053441 z M -0.761309,3.52573 c -0.0093,-0.06254 -0.0028,-0.08966 0.01447,-0.06027 0.01728,0.02939 0.0249,0.08056 0.01694,0.113711 -0.008,0.03315 -0.02209,0.0091 -0.03141,-0.053441 z M 1.102784,3.267347 c -0.0057,-0.05331 0.0034,-0.0657 0.02339,-0.03158 0.01803,0.03088 0.02226,0.07035 0.0094,0.08771 -0.01286,0.01736 -0.02761,-0.0079 -0.03278,-0.05614 z M 7.634018,0.294918 c -0.0057,-0.05331 0.0034,-0.0657 0.02338,-0.03157 0.01803,0.03088 0.02226,0.07035 0.0094,0.08771 -0.01286,0.01736 -0.02761,-0.0079 -0.03278,-0.05614 z M 1.391596,-0.06128 c 0.09382,-0.135446 0.176559,-0.247156 0.183858,-0.248243 0.03415,-0.0051 0.0041,0.04113 -0.168609,0.259537 L 1.221009,0.184985 Z m 1.138146,-0.175518 c -0.0014,-0.0094 0.02907,-0.0506 0.06774,-0.09146 0.06371,-0.06732 0.06556,-0.06596 0.01973,0.01462 -0.04813,0.08462 -0.08189,0.114279 -0.08747,0.07684 z m -2.303286,-0.16824 c -0.0014,-0.0094 0.02908,-0.0506 0.06774,-0.09146 0.06371,-0.06733 0.06556,-0.06596 0.01973,0.01461 -0.04813,0.08462 -0.08189,0.11428 -0.08747,0.07684 z m 5.399088,-0.897471 c -0.0014,-0.0094 0.02908,-0.0506 0.06774,-0.09146 0.06371,-0.06733 0.06556,-0.06596 0.01973,0.01462 -0.04813,0.08462 -0.08189,0.114279 -0.08747,0.07684 z m 4.005947,-0.658059 c 0.04254,-0.01813 0.104054,-0.02652 0.136704,-0.01865 0.03265,0.0079 -0.0022,0.0227 -0.07734,0.03296 -0.07519,0.01025 -0.101902,0.0038 -0.05937,-0.01431 z m -5.767987,0.767889 c 0.02939,-0.01728 0.08056,-0.0249 0.113711,-0.01694 0.03315,0.008 0.0091,0.02209 -0.05344,0.03141 -0.06254,0.0093 -0.08966,0.0028 -0.060271,-0.01447 z m -3.36566,0.42475 c -0.0012,-0.0078 0.05544,-0.08426 0.125797,-0.169851 L 0.75156,-1.093398 0.639995,-0.925668 C 0.536,-0.76932 0.50308,-0.73279 0.497844,-0.767929 Z m 3.14953,-2.20679 c 0.03087,-0.01803 0.07035,-0.02226 0.08771,-0.0094 0.01737,0.01286 -0.0079,0.02761 -0.05614,0.03278 -0.05331,0.0057 -0.0657,-0.0034 -0.03157,-0.02339 z M 4.02433,-3.07767 c 0.04207,-0.01797 0.113711,-0.02864 0.159195,-0.02372 0.04548,0.0049 0.01106,0.01961 -0.0765,0.03266 -0.08756,0.01305 -0.124771,0.009 -0.0827,-0.0089 z"
         id="path319" /><text
         xml:space="preserve"
         style="font-weight:500;font-size:9.42585px;line-height:normal;font-family:'Exo 2';-inkscape-font-specification:'Exo 2, Medium';text-align:end;text-decoration-color:#000000;fill:#000000;fill-opacity:1;stroke:none;stroke-width:0.543406;stroke-linecap:round;stroke-linejoin:round;stroke-opacity:1;paint-order:markers fill stroke;stop-color:#000000"
         x="17.139465"
         y="7.6992173"
         id="text420"><tspan
           sodipodi:role="line"
           id="tspan418"
           style="font-style:normal;font-variant:normal;font-weight:normal;font-stretch:normal;font-size:9.42585px;font-family:'Brandan Personal Use';-inkscape-font-specification:'Brandan Personal Use, Normal';font-variant-ligatures:normal;font-variant-caps:normal;font-variant-numeric:normal;font-variant-east-asian:normal;fill:#000000;fill-opacity:1;stroke:none;stroke-width:0.543406;stroke-opacity:1"
           x="17.139465"
           y="7.6992173">ABProj</tspan></text><text
         xml:space="preserve"
         style="font-weight:500;font-size:2.29242px;line-height:normal;font-family:'Exo 2';-inkscape-font-specification:'Exo 2, Medium';text-align:end;text-decoration-color:#000000;fill:#000000;fill-opacity:1;stroke:none;stroke-width:0.132159;stroke-linecap:round;stroke-linejoin:round;stroke-opacity:1;paint-order:markers fill stroke;stop-color:#000000"
         x="17.449768"
         y="10.42774"
         id="text1445"><tspan
           sodipodi:role="line"
           id="tspan1443"
           style="font-style:normal;font-variant:normal;font-weight:normal;font-stretch:normal;font-size:2.29242px;font-family:'Brandan Personal Use';-inkscape-font-specification:'Brandan Personal Use, Normal';font-variant-ligatures:normal;font-variant-caps:normal;font-variant-numeric:normal;font-variant-east-asian:normal;fill:#000000;fill-opacity:1;stroke:none;stroke-width:0.132159;stroke-opacity:1"
           x="17.449768"
           y="10.42774">Aprendizagem Baseada </tspan><tspan
           sodipodi:role="line"
           style="font-style:normal;font-variant:normal;font-weight:normal;font-stretch:normal;font-size:2.29242px;font-family:'Brandan Personal Use';-inkscape-font-specification:'Brandan Personal Use, Normal';font-variant-ligatures:normal;font-variant-caps:normal;font-variant-numeric:normal;font-variant-east-asian:normal;fill:#000000;fill-opacity:1;stroke:none;stroke-width:0.132159;stroke-opacity:1"
           x="17.449768"
           y="13.363224"
           id="tspan1553">em Projetos</tspan></text></g></g><style
     type="text/css"
     id="style1659">
	.st0{fill:#FF6B81;}
</style></svg>
