<?xml version="1.0" encoding="UTF-8" standalone="no"?>
<!-- Created with Inkscape (http://www.inkscape.org/) -->

<svg
   width="50mm"
   height="22mm"
   viewBox="0 0 50 22"
   version="1.1"
   id="svg5"
   xml:space="preserve"
   sodipodi:docname="logo.svg"
   inkscape:version="1.3 (0e150ed6c4, 2023-07-21)"
   xmlns:inkscape="http://www.inkscape.org/namespaces/inkscape"
   xmlns:sodipodi="http://sodipodi.sourceforge.net/DTD/sodipodi-0.dtd"
   xmlns="http://www.w3.org/2000/svg"
   xmlns:svg="http://www.w3.org/2000/svg"><sodipodi:namedview
     id="namedview7"
     pagecolor="#ffffff"
     bordercolor="#000000"
     borderopacity="0.25"
     inkscape:showpageshadow="2"
     inkscape:pageopacity="0.0"
     inkscape:pagecheckerboard="0"
     inkscape:deskcolor="#d1d1d1"
     inkscape:document-units="mm"
     showgrid="false"
     inkscape:zoom="1.3026914"
     inkscape:cx="37.230613"
     inkscape:cy="72.542123"
     inkscape:window-width="1920"
     inkscape:window-height="1017"
     inkscape:window-x="-8"
     inkscape:window-y="-8"
     inkscape:window-maximized="1"
     inkscape:current-layer="layer1" /><defs
     id="defs2" /><g
     inkscape:label="Camada 1"
     inkscape:groupmode="layer"
     id="layer1"><path
       style="fill:#000000;fill-opacity:1;stroke-width:0.0428567"
       d="M 11.13202,21.522942 C 10.71119,21.498106 10.277011,21.239344 10.026449,20.86404 9.8844584,20.651359 9.8784502,20.627065 9.7065381,19.570492 L 9.5313354,18.493698 9.3216714,18.358161 C 9.196813,18.277446 9.0396871,18.118125 8.9332075,17.964268 8.7605983,17.714859 8.7505073,17.684027 8.6418348,17.074073 L 8.529263,16.442237 8.2655457,16.795823 c -0.3484931,0.46725 -0.3696593,0.469562 -1.0891267,0.118942 l -0.5494677,-0.267773 -0.021807,0.339373 c -0.011994,0.186656 -0.030689,0.470288 -0.041546,0.630294 -0.030931,0.455877 -0.025228,0.452388 -0.9697434,0.593124 C 4.5961515,18.358444 4.6698837,18.39484 4.3757907,17.608506 4.2589619,17.296133 4.1572733,17.036036 4.1498178,17.030513 4.1423578,17.025013 3.9493073,17.196919 3.720807,17.412574 3.2802709,17.828348 3.1560108,17.909838 3.0124409,17.87713 2.9633279,17.86594 2.6288146,17.637123 2.269073,17.368644 1.71301,16.953648 1.6120745,16.860891 1.5954981,16.749644 1.5814441,16.655284 1.6516471,16.463568 1.8471934,16.062302 L 2.1183866,15.505816 1.8669364,15.492042 C 0.58517786,15.421821 0.6870267,15.499311 0.53499106,14.478936 0.38297499,13.458712 0.30839469,13.562264 1.5122254,13.122084 L 1.747239,13.03615 1.309633,12.562129 C 1.0689494,12.301418 0.86764865,12.058724 0.86229745,12.022811 c -0.005312,-0.03592 0.009608,-0.120832 0.0332516,-0.188708 0.0646579,-0.185641 0.92945755,-1.316334 1.02168315,-1.335809 0.1850757,-0.03909 0.2778605,-0.01118 0.7879109,0.236887 0.2944937,0.143232 0.5394381,0.255027 0.5443205,0.248435 0.00485,-0.0066 0.025256,-0.282085 0.045264,-0.612203 C 3.3341583,9.7211034 3.3736725,9.6111187 3.5955272,9.5342953 3.7236064,9.4899443 3.7322892,9.4742691 3.7103495,9.327031 3.6972931,9.2394287 3.6904619,8.9940063 3.6951776,8.7816592 3.7574591,5.9717673 5.5233544,3.5836366 8.193626,2.6981116 8.4378566,2.6171168 8.8166219,2.5359588 9.2470706,2.4723838 L 9.919175,2.373122 10.39168,1.8936253 c 0.47194,-0.4789236 0.578048,-0.5452367 0.76528,-0.4782713 0.04868,0.017409 0.326849,0.265996 0.618138,0.5524061 0.546262,0.5371092 0.650742,0.5979173 0.842078,0.4901041 0.189939,-0.1070267 0.215614,-0.2124486 0.210006,-0.8622526 -0.0074,-0.85415682 0.0069,-0.94545891 0.1625,-1.03832946 0.11095,-0.0662329 0.264133,-0.076214 1.225621,-0.0798672 0.99562,-0.003821 1.107669,0.003914 1.192983,0.0821784 0.119592,0.10968646 0.132913,0.20716544 0.138426,1.01286236 0.0049,0.7230106 0.03126,0.8142978 0.253072,0.8779884 0.213895,0.061415 0.299878,0.00643 0.834769,-0.5340143 0.750573,-0.7583367 0.64014,-0.7734984 1.658411,0.2276719 0.900082,0.8849648 0.931453,0.937364 0.721094,1.2044746 -0.06513,0.0827 -0.31604,0.3491268 -0.557579,0.5920573 -0.474993,0.4777307 -0.516195,0.5638671 -0.378602,0.791497 0.100421,0.1661321 0.192504,0.1833655 0.918812,0.1719651 0.7795,-0.012236 0.862279,0.00103 0.952768,0.1526088 0.06636,0.1111655 0.07631,0.2631135 0.07995,1.2203456 0.0035,0.9257913 -0.0075,1.1090608 -0.07167,1.1957489 -0.09492,0.1281603 -0.191129,0.1424413 -0.999977,0.1484439 -0.788329,0.00587 -0.751466,-3.345e-4 -0.858292,0.1438999 -0.16841,0.2273829 -0.106243,0.3462881 0.486024,0.9296047 0.440803,0.4341439 0.535964,0.5497333 0.555503,0.6747557 0.0296,0.1898109 0.01006,0.2145977 -0.866501,1.0959138 -0.555851,0.558865 -0.716127,0.697048 -0.8278,0.713688 -0.181725,0.02707 -0.21644,0.0035 -0.682132,-0.461647 -0.556619,-0.556068 -0.667082,-0.637209 -0.833678,-0.612386 -0.08239,0.01227 -0.17553,0.06531 -0.231924,0.13205 -0.08545,0.101132 -0.0939,0.179383 -0.09057,0.83909 0.0037,0.736662 -0.02828,0.913972 -0.178134,0.987331 -0.09077,0.04443 -2.225469,0.06524 -2.344018,0.02283 -0.166877,-0.05968 -0.201407,-0.228087 -0.203648,-0.993182 -0.0015,-0.520326 -0.01811,-0.75347 -0.058,-0.815662 -0.07166,-0.111681 -0.317616,-0.196215 -0.43228,-0.148569 -0.04878,0.02027 -0.316381,0.267161 -0.594675,0.548651 -0.278294,0.28149 -0.546065,0.528453 -0.595044,0.548804 -0.04898,0.02035 -0.141188,0.01877 -0.204908,-0.0035 C 10.894858,11.186913 9.5653558,9.9175879 9.4059868,9.7032316 9.3252995,9.5947082 9.2990337,9.4002582 9.3523723,9.3063793 9.3753726,9.2658958 9.6061068,9.0192711 9.865115,8.7583142 10.124124,8.4973581 10.355463,8.2506207 10.379201,8.2100096 10.448313,8.0917726 10.393692,7.8706858 10.270028,7.7681166 10.169556,7.6847826 10.085459,7.6763392 9.4012721,7.6809243 8.7041545,7.685584 8.634835,7.6783149 8.5318855,7.5895011 8.4703589,7.5364272 8.4162999,7.4680731 8.4117595,7.4375997 8.407193,7.4071252 8.4010701,6.9070438 8.3981066,6.3263077 8.392049,5.1470057 8.4097279,5.0607221 8.6696187,4.9990985 8.7533534,4.9792389 9.0965447,4.962231 9.4322572,4.9612898 10.200999,4.9591463 10.232871,4.9538343 10.340187,4.8088925 10.49901,4.5944514 10.443986,4.4917601 9.8536867,3.9009675 9.5579143,3.6049482 9.2961941,3.3079177 9.2720867,3.240901 L 9.2282576,3.1190518 8.8578518,3.2014073 C 7.2645646,3.5556532 5.8402334,4.6284859 5.038801,6.077986 3.9979124,7.9605723 4.099833,10.32341 5.2989127,12.108243 c 0.5367187,0.798907 1.4783772,1.610017 2.3695143,2.041012 0.5122125,0.24773 0.8190973,0.489416 1.0660444,0.83956 0.2903308,0.41166 0.3231304,0.512907 0.5117297,1.57961 0.1936533,1.095295 0.1980884,1.106266 0.5164733,1.277485 0.1260206,0.06777 0.1801607,0.0625 1.7346336,-0.16913 1.554472,-0.231621 1.6078,-0.242352 1.708589,-0.343922 0.254113,-0.256073 0.255451,-0.270689 0.123688,-1.35121 -0.102892,-0.843766 -0.113209,-1.028216 -0.07133,-1.275368 0.100387,-0.592432 0.32801,-1.001184 0.81993,-1.472384 0.180563,-0.172958 0.385788,-0.38175 0.456056,-0.463982 l 0.127757,-0.149512 0.25876,0.211499 0.258759,0.2115 -0.155542,0.174901 c -0.08555,0.0962 -0.266887,0.280319 -0.402973,0.409164 -0.321125,0.304031 -0.43481,0.444934 -0.554346,0.687072 -0.188013,0.380844 -0.192285,0.4963 -0.05853,1.582041 l 0.123448,1.001997 -0.09674,0.30247 c -0.05796,0.181206 -0.161304,0.378953 -0.257783,0.493241 l -0.161042,0.190774 0.146332,1.081096 c 0.143585,1.060794 0.144918,1.085784 0.0711,1.330621 -0.0961,0.318733 -0.333838,0.639361 -0.609949,0.822607 -0.20797,0.138026 -0.25159,0.149474 -1.063322,0.279102 -0.46555,0.07435 -0.928213,0.130348 -1.028142,0.124447 z m 1.829473,-1.021438 c 0.218388,-0.199773 0.284511,-0.394169 0.238685,-0.70172 l -0.04012,-0.269259 -1.356438,0.202114 -1.356438,0.202114 0.04012,0.269259 c 0.04582,0.30755 0.16575,0.474226 0.432893,0.601653 0.151114,0.07208 0.192352,0.06986 1.03501,-0.05569 0.842659,-0.125558 0.882751,-0.135463 1.006287,-0.248463 z m 0.04698,-1.988308 -0.05053,-0.339108 -1.356438,0.202114 -1.356437,0.202114 0.05053,0.339108 0.05053,0.339111 1.356439,-0.202115 1.356436,-0.202113 z M 5.9394131,17.020885 c 0.015041,-0.25843 0.048312,-0.522633 0.073931,-0.587117 0.069168,-0.174099 0.2811782,-0.350977 0.4860548,-0.405513 0.2123125,-0.05651 0.3334888,-0.02307 0.8473415,0.233887 L 7.7013897,16.439486 8.0215994,16.005038 8.3418091,15.57059 8.2260389,15.401432 C 8.0495426,15.143537 7.8673709,15.002769 7.3544856,14.727963 l -0.4696657,-0.251651 -0.050567,0.104903 c -0.027809,0.0577 -0.1434422,0.24066 -0.2569552,0.406589 -0.4579773,0.669447 -1.2180931,0.985963 -2.0134194,0.838403 -1.471862,-0.273084 -2.1600432,-1.994797 -1.2749833,-3.189793 0.2290856,-0.309305 0.6412087,-0.625808 0.9430881,-0.72427 0.1450442,-0.0473 0.1616103,-0.06559 0.1283317,-0.141653 -0.035842,-0.08192 -0.2819125,-0.699898 -0.3688504,-0.926328 -0.033624,-0.08757 -0.04436,-0.06789 -0.073921,0.135449 -0.043894,0.301985 -0.2379017,0.544367 -0.4998437,0.624468 -0.2361861,0.07222 -0.3464783,0.04657 -0.8476855,-0.197164 l -0.4190241,-0.203771 -0.2668291,0.360268 -0.2668282,0.360268 0.3393433,0.36647 c 0.3880977,0.41912 0.45957,0.571802 0.3981468,0.850541 -0.079103,0.358953 -0.218057,0.464409 -0.967421,0.734183 l -0.2364619,0.08513 0.062263,0.417875 0.062263,0.417877 0.2510066,0.01249 c 0.7954605,0.03959 0.9591268,0.09995 1.1394356,0.420253 0.1402736,0.249179 0.1160562,0.419954 -0.132231,0.932453 l -0.2169406,0.447793 0.3584434,0.265478 0.3584435,0.265477 0.3628682,-0.329564 c 0.1995767,-0.18126 0.405265,-0.350319 0.4570836,-0.375686 0.1732979,-0.08484 0.4528871,-0.05293 0.6568746,0.07497 0.2011684,0.126132 0.1922787,0.110464 0.458283,0.807749 l 0.1133937,0.297244 0.4149637,-0.06183 0.4149637,-0.06183 z M 5.6974183,14.962467 C 5.9240399,14.804211 6.1711697,14.48427 6.2389216,14.261423 l 0.048824,-0.160588 -0.396062,-0.355292 C 5.5116511,13.404633 5.0761009,12.921738 4.8669272,12.609395 4.7822512,12.482951 4.7479567,12.464636 4.6290655,12.482351 c -0.3861528,0.05754 -0.8494123,0.475892 -0.9984928,0.901705 -0.072384,0.206757 -0.074965,0.281414 -0.021994,0.636904 0.052804,0.354383 0.077407,0.426422 0.2050564,0.600479 0.1439045,0.196217 0.4301235,0.417439 0.6358398,0.491448 0.3888638,0.139898 0.9247028,0.07531 1.2479469,-0.15042 z m 9.2435337,-3.680816 c 0.0017,-0.0777 0.0024,-0.344478 0.0015,-0.59282 -0.0017,-0.466462 0.05021,-0.667983 0.231656,-0.89934 0.242963,-0.3098027 0.667162,-0.4377449 1.058256,-0.3191808 0.255813,0.077556 0.396463,0.1815082 0.846625,0.6257538 l 0.314345,0.310213 0.478476,-0.4855578 C 18.134963,9.6536627 18.346625,9.425332 18.34216,9.4133165 18.337686,9.4013038 18.155193,9.213355 17.936602,8.9956567 17.666114,8.7262704 17.511958,8.5357913 17.453979,8.3993163 17.25852,7.9392141 17.382741,7.4592011 17.769857,7.1786939 c 0.246485,-0.1786025 0.467702,-0.2227801 1.099736,-0.219619 0.226568,0.00112 0.432695,-6.831e-4 0.458061,-0.00401 0.04548,-0.00596 0.05986,-1.3407866 0.0148,-1.3741584 -0.01219,-0.00904 -0.282344,-0.015731 -0.600332,-0.014874 -0.659932,0.00177 -0.873399,-0.061359 -1.141923,-0.3376313 -0.132726,-0.136558 -0.168304,-0.2105 -0.219016,-0.4551834 -0.05209,-0.2513869 -0.04951,-0.3267864 0.0182,-0.5404372 0.06681,-0.2106602 0.141106,-0.3119853 0.490164,-0.6684632 0.226282,-0.2310921 0.409262,-0.434951 0.406622,-0.4530213 -0.0027,-0.01807 -0.218768,-0.2437003 -0.480282,-0.501401 L 17.340406,2.1413506 16.987053,2.4998369 c -0.498609,0.5058538 -0.60844,0.5783167 -0.946533,0.6244953 -0.45211,0.06175 -0.76029,-0.089084 -1.003255,-0.4910351 -0.11488,-0.190055 -0.152491,-0.4462945 -0.151747,-1.0338049 3.15e-4,-0.2477514 -0.0053,-0.4540539 -0.01243,-0.4584508 -0.03636,-0.022357 -1.345271,0.00429 -1.362638,0.027762 -0.01117,0.01507 -0.01946,0.2729566 -0.01844,0.5730793 0.0021,0.6097865 -0.03634,0.7868652 -0.224766,1.0364926 -0.17161,0.2273382 -0.333182,0.320534 -0.633207,0.3652382 -0.424478,0.063251 -0.661238,-0.047333 -1.170787,-0.5468154 L 11.03557,2.1775704 10.580981,2.6370491 c -0.250024,0.2527139 -0.468772,0.4764511 -0.486104,0.4971924 -0.01733,0.020745 0.138481,0.2043062 0.346251,0.40792 0.444946,0.4360451 0.477742,0.477494 0.572947,0.7241411 0.158099,0.4095864 0.01032,0.8877709 -0.35429,1.146385 -0.241536,0.1713221 -0.463504,0.2126592 -1.1273257,0.2099436 -0.2478558,-0.00103 -0.4550697,0.0041 -0.4604758,0.011435 -0.032683,0.044146 0.00401,1.345301 0.038592,1.3679061 0.023075,0.015088 0.2834829,0.024724 0.5786849,0.021407 0.5996226,-0.00671 0.7884896,0.038498 1.0464816,0.2506377 0.228878,0.1881967 0.325544,0.3852292 0.343691,0.7005303 0.02244,0.3899961 -0.08151,0.5879251 -0.564069,1.0740041 l -0.416642,0.4196793 0.119423,0.1176955 c 0.06568,0.064732 0.286291,0.2829405 0.490241,0.4849078 0.20395,0.201967 0.378952,0.366001 0.388893,0.364519 0.0099,-0.0015 0.187206,-0.175475 0.39392,-0.386652 0.448289,-0.4579678 0.569194,-0.5367922 0.898664,-0.5858839 0.300293,-0.044742 0.511897,0.00205 0.725662,0.1603299 0.344569,0.2552022 0.432131,0.526072 0.432482,1.337845 1.09e-4,0.253057 0.0092,0.4668 0.02029,0.474986 0.02698,0.01998 1.060565,0.02207 1.232994,0.0025 0.12211,-0.01386 0.136877,-0.03045 0.139671,-0.156787 z M 13.83991,8.9724794 C 12.630596,8.8020361 11.732204,7.9122466 11.552634,6.7071065 c -0.07976,-0.5353329 -0.06319,-0.794824 0.0797,-1.24778 0.228278,-0.7236322 0.836621,-1.3796233 1.562885,-1.6852957 1.547591,-0.6513547 3.447834,0.4238404 3.699096,2.0930219 0.113239,0.7522782 -0.0471,1.3939314 -0.506737,2.0278729 -0.231069,0.3186934 -0.353172,0.4416227 -0.621683,0.6258773 -0.396063,0.2717824 -0.637754,0.3614489 -1.18608,0.4400291 -0.292231,0.041881 -0.501973,0.04518 -0.739903,0.011649 z m 1.184551,-0.7947736 c 1.02905,-0.4770281 1.529467,-1.768394 1.062383,-2.7415632 -0.561842,-1.1705977 -1.983733,-1.5519938 -3.04719,-0.8173517 -0.924021,0.6383197 -1.153307,1.9414103 -0.503258,2.8601626 0.333397,0.471209 0.995366,0.8377538 1.579726,0.874722 0.211984,0.013411 0.706446,-0.082374 0.908339,-0.1759697 z m 0.859148,8.6938522 -0.17685,-1.186884 0.339111,-0.05053 0.339109,-0.05053 0.176849,1.186882 0.176851,1.186883 -0.339111,0.05053 -0.33911,0.05053 z m 2.387824,-1.136622 c -0.589752,-0.362037 -1.080392,-0.674237 -1.090311,-0.693782 -0.02165,-0.04265 0.257866,-0.524513 0.308641,-0.532078 0.04653,-0.0069 2.22485,1.31996 2.23063,1.358758 0.0083,0.05579 -0.284657,0.517783 -0.330746,0.521572 -0.02527,0.0021 -0.528463,-0.292434 -1.118214,-0.65447 z m -7.286942,0.826691 -0.07579,-0.508664 0.339109,-0.05053 0.33911,-0.05053 0.07579,0.508665 0.0758,0.508664 -0.339109,0.05053 -0.33911,0.05053 z M 10.763345,15.153864 C 10.68769,14.858647 10.491524,14.497133 10.280201,14.26346 9.9546781,13.903509 9.6723723,13.737119 9.061844,13.545368 8.7493265,13.447215 8.3404596,13.293902 8.1532516,13.204675 7.0355853,12.671965 6.1357373,11.684684 5.674488,10.485063 5.5342898,10.120432 5.3932949,9.2432972 5.4058052,8.8135698 5.4364101,7.7623162 5.8126237,6.7226475 6.4616598,5.8957108 6.7291767,5.554868 7.0304876,5.2472497 7.06726,5.2774334 7.077,5.2854434 7.1741115,5.3948764 7.2830645,5.5206537 L 7.4811603,5.7493395 7.3354647,5.902815 C 6.8129124,6.4532668 6.4860458,6.998221 6.2783101,7.6653125 5.7435447,9.3825718 6.3140126,11.107621 7.77434,12.189197 c 0.4633463,0.343173 0.7793119,0.494238 1.5047847,0.719447 0.4670152,0.144977 0.6422692,0.224513 0.9182933,0.41675 0.645559,0.449599 1.033095,0.999417 1.233908,1.750604 l 0.05292,0.197931 -0.332368,0.04952 -0.332368,0.04952 z m 6.624372,-2.146128 -0.05053,-0.339109 1.186882,-0.17685 1.186885,-0.17685 0.05053,0.33911 0.05053,0.33911 -1.186884,0.17685 -1.186883,0.17685 z M 0.16442778,8.7821187 C 0.12678675,8.698356 0.07439313,8.5628045 0.04799501,8.4808852 L 1.4241743e-7,8.3319408 1.2734961,7.8044715 C 2.262648,7.3947733 2.5562872,7.2880038 2.5886236,7.3262795 2.6418376,7.3892695 2.8154809,7.8526593 2.795818,7.8792075 2.778381,7.9027485 0.33530444,8.9191445 0.2743146,8.9282319 0.2515194,8.9315819 0.2020707,8.8658759 0.16442778,8.7821187 Z M 1.3471817,5.4580181 C 0.65708256,5.1024217 0.07920287,4.8016626 0.0630039,4.7896648 0.03999432,4.7726289 0.14537801,4.5402843 0.32790391,4.2056576 0.33507984,4.1925265 2.8006575,5.4397809 2.8951776,5.5043494 2.9320358,5.5295304 2.672582,6.1018213 2.6234474,6.1037234 2.6116024,6.104167 2.0372809,5.8136144 1.3471817,5.4580181 Z M 3.1486921,3.4237736 2.6101924,2.1457027 2.7757654,2.0653696 C 2.8668345,2.0211863 3.0068221,1.9710769 3.086857,1.9540215 l 0.1455177,-0.031015 0.5172495,1.2228227 c 0.2844866,0.6725517 0.5216717,1.2456198 0.5270751,1.2734829 0.00993,0.051229 -0.17216,0.1480283 -0.4421297,0.235036 l -0.1473769,0.047501 z"
       id="path317" /><path
       style="fill:#ffffff;stroke-width:0.0428567"
       d="m 5.0904155,17.559021 c -0.01356,-0.02777 -0.09311,-0.235272 -0.176787,-0.461118 C 4.710709,16.550202 4.5321932,16.378876 4.1513488,16.366324 3.8945641,16.357844 3.776958,16.422436 3.383114,16.788204 L 3.0401119,17.106749 2.6957454,16.851697 2.3513798,16.596647 2.5769995,16.131096 2.8026192,15.665547 2.7453423,15.409545 C 2.6453247,14.962533 2.4485559,14.838982 1.7734768,14.799311 L 1.2934675,14.771101 1.2344015,14.374715 1.1753355,13.978332 1.6262702,13.811411 C 2.2839043,13.567977 2.4306894,13.388615 2.360082,12.914746 2.318499,12.635643 2.313317,12.626846 1.9858953,12.278517 l -0.3320164,-0.353212 0.2551976,-0.344563 0.2551966,-0.344564 0.4555208,0.218883 c 0.4575989,0.219882 0.5130568,0.232044 0.7832847,0.171779 0.3032586,-0.06763 0.534045,-0.349609 0.5373124,-0.656497 0.00177,-0.170925 0.00885,-0.160613 0.1691311,0.248963 0.2515276,0.642646 0.2517913,0.60893 -0.00559,0.718571 -0.6376775,0.271615 -1.1252728,0.918323 -1.2203893,1.618629 -0.046905,0.345343 0.045721,0.880675 0.2073956,1.198606 0.6076645,1.194993 2.183571,1.505418 3.1850031,0.627388 0.1925862,-0.168855 0.4654002,-0.533406 0.5678381,-0.758782 l 0.052049,-0.114511 0.4320423,0.231612 c 0.4749219,0.2546 0.7147667,0.44206 0.8827292,0.689931 L 8.3209603,15.593613 8.020765,16.002206 7.7205697,16.4108 7.2488807,16.184782 C 6.8228307,15.980631 6.7575157,15.961997 6.573864,15.9922 c -0.2395447,0.03939 -0.4088026,0.151067 -0.5316983,0.350804 -0.1005255,0.163378 -0.101889,0.170248 -0.1287763,0.649261 -0.010792,0.192258 -0.023839,0.384311 -0.028983,0.426783 -0.00801,0.06622 -0.063493,0.08529 -0.3893372,0.133841 -0.2667826,0.03975 -0.3873149,0.04158 -0.4046229,0.0062 z m -0.00205,-2.400696 c 0.02739,-0.0161 0.075077,-0.0232 0.1059717,-0.01579 0.030894,0.0075 0.00848,0.02059 -0.049803,0.02927 -0.058283,0.0087 -0.083567,0.0026 -0.056169,-0.01349 z M 0.50985573,14.48268 c -0.0573143,-0.384677 -0.0743408,-0.543003 -0.0378274,-0.351834 0.0365134,0.191169 0.0834086,0.505904 0.10421505,0.699412 0.0208009,0.19351 -0.00904,0.0371 -0.0663914,-0.347578 z M 6.0859019,13.965971 c -0.062747,-0.05937 -0.061471,-0.0611 0.013625,-0.01839 0.045572,0.02592 0.083921,0.05432 0.085235,0.06313 0.00522,0.03489 -0.032953,0.01762 -0.098853,-0.04474 z M 1.3180661,11.155848 c 0.23735,-0.321342 0.441084,-0.58568 0.4527407,-0.587417 0.011659,-0.0018 -0.1730014,0.259758 -0.4103524,0.581101 -0.23735,0.321343 -0.44108312,0.585681 -0.45274075,0.587419 -0.0116586,0.0018 0.17300145,-0.25976 0.41035245,-0.581103 z M 16.218063,6.0073254 c -0.0053,-0.049682 0.0032,-0.061228 0.02179,-0.029421 0.0168,0.028778 0.02075,0.065562 0.0088,0.08174 -0.01199,0.016178 -0.02574,-0.00736 -0.03056,-0.052319 z M 4.7140919,5.3039042 c -0.0013,-0.00876 0.027101,-0.047156 0.06313,-0.085235 0.059374,-0.062747 0.061098,-0.061471 0.018387,0.013625 -0.044854,0.078861 -0.076317,0.1065011 -0.081517,0.07161 z M 5.0748186,4.8168569 c -0.0013,-0.00876 0.027101,-0.047156 0.06313,-0.085235 0.059374,-0.062747 0.061098,-0.061471 0.018387,0.013616 -0.044854,0.078861 -0.076316,0.106501 -0.081517,0.07161 z M 8.5425031,2.5537272 c 0.028769,-0.016803 0.065562,-0.020745 0.08174,-0.00876 0.016188,0.011985 -0.00736,0.025731 -0.052319,0.030549 -0.049682,0.00531 -0.061228,-0.00317 -0.029431,-0.021798 z M 9.7692567,2.3718378 c 0.02739,-0.016104 0.075077,-0.023205 0.1059717,-0.015787 0.030894,0.00746 0.00848,0.020587 -0.049803,0.029272 -0.058284,0.00867 -0.083558,0.00261 -0.056169,-0.013485 z"
       id="path335" /><path
       style="fill:#9c9ea0;stroke-width:0.0428567"
       d="m 9.2053384,18.310773 -0.1201326,-0.101255 0.1318815,0.08539 c 0.123263,0.07981 0.1554345,0.110108 0.1221894,0.115061 -0.00755,0.0011 -0.067864,-0.04351 -0.1339383,-0.0992 z m 4.6251536,-0.678338 c 0.04608,-0.06645 0.0933,-0.122228 0.10496,-0.123965 0.01166,-0.0018 -0.01651,0.0512 -0.06257,0.117648 -0.04608,0.06645 -0.0933,0.122226 -0.10496,0.123963 -0.01166,0.0018 0.01649,-0.0512 0.06257,-0.117646 z M 6.5565079,15.978571 c 0.028778,-0.0168 0.065562,-0.02074 0.08174,-0.0088 0.016179,0.01198 -0.00736,0.02573 -0.052319,0.03055 -0.049682,0.0053 -0.061228,-0.0032 -0.029431,-0.0218 z m 1.2218954,-0.986566 -0.094962,-0.08334 0.1074069,0.06654 c 0.1009356,0.06253 0.1310614,0.09291 0.09714,0.09797 -0.00801,0.0012 -0.057361,-0.03533 -0.1095849,-0.08116 z m 6.4486857,-0.950052 c 0.03525,-0.05291 0.07362,-0.09763 0.08528,-0.09937 0.01166,-0.0018 -0.0076,0.04014 -0.0429,0.09305 -0.03525,0.05292 -0.07362,0.09763 -0.08528,0.09937 -0.01166,0.0018 0.0076,-0.04014 0.0429,-0.09305 z m -9.2633827,1.134029 c 0.028778,-0.0168 0.065562,-0.02074 0.08174,-0.0088 0.016178,0.01199 -0.00736,0.02573 -0.052319,0.03056 -0.049682,0.0053 -0.061228,-0.0032 -0.029421,-0.02179 z m 0.296721,-0.04421 c 0.028778,-0.0168 0.065562,-0.02074 0.08174,-0.0088 0.016178,0.01198 -0.00736,0.02573 -0.052319,0.03055 -0.049682,0.0053 -0.061228,-0.0032 -0.029421,-0.02179 z m -1.1546336,-0.220823 -0.1201325,-0.101256 0.1318815,0.08539 c 0.123262,0.07981 0.1554335,0.110108 0.1221893,0.115062 -0.00755,0.0011 -0.067864,-0.04351 -0.1339383,-0.0992 z M 6.2192242,14.07795 c -0.032003,-0.05699 -0.027865,-0.06258 0.020195,-0.02727 0.033252,0.02444 0.051378,0.0567 0.040269,0.07169 -0.011109,0.015 -0.038312,-0.005 -0.060464,-0.04443 z M 3.8263583,13.013576 c 0.046075,-0.06645 0.093303,-0.122227 0.1049596,-0.123964 0.011659,-0.0018 -0.016495,0.0512 -0.06257,0.117648 -0.046075,0.06645 -0.093303,0.122228 -0.1049596,0.123964 -0.011659,0.0018 0.016505,-0.0512 0.06257,-0.117648 z M 3.1941092,12.696151 c 0.035246,-0.05292 0.073623,-0.09763 0.085282,-0.09937 0.011659,-0.0018 -0.00764,0.04014 -0.042897,0.09305 -0.035246,0.05291 -0.073623,0.09763 -0.085282,0.09937 -0.011659,0.0018 0.00764,-0.04014 0.042897,-0.09305 z M 3.66821,9.2891123 C 3.65954,9.2308293 3.6656,9.2055543 3.681695,9.2329443 3.697799,9.2603343 3.7049,9.3080213 3.697482,9.3389161 3.690022,9.3698101 3.676896,9.3473961 3.66821,9.2891123 Z M 16.244041,6.1587069 c -0.0087,-0.058283 -0.0026,-0.083558 0.01348,-0.056168 0.0161,0.02739 0.02321,0.075077 0.01579,0.1059727 -0.0075,0.030894 -0.02059,0.00848 -0.02927,-0.049803 z M 16.19983,5.8619858 c -0.0087,-0.058283 -0.0026,-0.083558 0.01349,-0.056168 0.0161,0.02739 0.0232,0.075077 0.01579,0.1059717 -0.0075,0.030894 -0.02059,0.00848 -0.02927,-0.049804 z M 15.378457,4.6303162 15.233429,4.5111044 15.389744,4.6150762 c 0.08597,0.057184 0.157203,0.1099409 0.158291,0.1172361 0.0048,0.032748 -0.0344,0.00913 -0.169578,-0.1019961 z m 3.737917,-1.5860451 c -0.0087,-0.058283 -0.0026,-0.083558 0.01348,-0.056168 0.0161,0.02739 0.02321,0.075077 0.01579,0.1059718 -0.0075,0.030894 -0.0206,0.00848 -0.02927,-0.049804 z M 4.9297557,5.006486 C 4.9966876,4.9131038 5.060983,4.8352785 5.0726397,4.8335414 5.0842983,4.8317707 5.0390713,4.9067825 4.972144,5.0001703 4.9052122,5.0935525 4.8409167,5.1713778 4.8292591,5.1731149 4.8176006,5.1748856 4.8628276,5.0998738 4.9297557,5.006486 Z M 17.513899,1.387381 c -0.06274,-0.059374 -0.06147,-0.061098 0.01363,-0.018387 0.04556,0.025917 0.08392,0.054323 0.08524,0.06313 0.0052,0.034892 -0.03295,0.017623 -0.09885,-0.044733 z M 8.6889592,2.5314781 c 0.039645,-0.016896 0.096971,-0.024715 0.1273999,-0.017381 0.030428,0.00736 -0.00205,0.021155 -0.072076,0.030717 -0.070073,0.00955 -0.094966,0.00354 -0.05532,-0.013336 z M 9.5791215,2.3988407 c 0.039645,-0.016896 0.096972,-0.024715 0.1273998,-0.017381 0.030428,0.00736 -0.00205,0.021155 -0.072076,0.030717 -0.070073,0.00955 -0.094966,0.00354 -0.05532,-0.013336 z M 10.920913,1.376974 c 0.02739,-0.016104 0.07508,-0.023205 0.105972,-0.015787 0.03089,0.00746 0.0085,0.020587 -0.0498,0.029272 -0.05828,0.00867 -0.08356,0.00261 -0.05617,-0.013485 z m 4.472573,-0.84354857 c -0.06275,-0.0593739 -0.06147,-0.0610979 0.01362,-0.0183872 0.07886,0.0448542 0.106501,0.0763165 0.07161,0.0815167 -0.0088,0.001305 -0.04716,-0.0271008 -0.08523,-0.0631295 z"
       id="path333" /><path
       style="fill:#ffffff;stroke-width:0.0428567"
       d="m 14.217021,11.429905 c -0.716357,0.003 -0.645748,0.07466 -0.646061,-0.655824 -1.11e-4,-0.255831 -0.0231,-0.537513 -0.05109,-0.625957 -0.202769,-0.6407627 -0.980517,-0.9392815 -1.526708,-0.5859889 -0.09023,0.058367 -0.323897,0.2682382 -0.519267,0.4663899 -0.195368,0.198152 -0.365512,0.36181 -0.378096,0.363685 -0.02022,0.003 -0.823096,-0.7753869 -0.915657,-0.8877508 -0.0218,-0.026467 0.07965,-0.1600074 0.255597,-0.3364515 0.604955,-0.6066757 0.722862,-0.83738 0.658628,-1.2887136 C 11.048731,7.558611 10.911974,7.3389772 10.661521,7.1841159 10.416469,7.0325947 10.185155,6.990335 9.6239581,6.9945595 9.3383019,6.9966995 9.101771,6.9956795 9.0983341,6.9922295 9.0781291,6.9721835 9.0911541,5.7092036 9.1118751,5.681566 9.1257241,5.663076 9.373683,5.646469 9.6629001,5.644661 9.9521172,5.642891 10.259119,5.621036 10.345127,5.596191 10.847565,5.4510331 11.161626,4.9680481 11.085554,4.4575075 11.040644,4.1560764 10.924834,3.9813015 10.478312,3.5410515 10.280161,3.3456825 10.116503,3.1755393 10.114628,3.1629544 c -0.003,-0.020195 0.775358,-0.8230822 0.887432,-0.9153889 0.02628,-0.021649 0.209007,0.1264222 0.460714,0.3733469 0.318704,0.3126498 0.469767,0.4284638 0.640106,0.4907425 0.446651,0.1633018 0.873656,0.058078 1.148447,-0.2830076 0.222869,-0.2766378 0.274359,-0.4928356 0.266543,-1.1191566 l -0.0068,-0.543068 0.643515,-0.00363 c 0.353933,-0.00196 0.656673,0.00615 0.672757,0.018061 0.01609,0.01191 0.03238,0.2768251 0.03623,0.5886958 0.008,0.6485272 0.05815,0.8209174 0.320768,1.1025009 0.281426,0.3017555 0.810698,0.3823393 1.201364,0.1829146 0.07528,-0.038433 0.320227,-0.2532471 0.544322,-0.4773719 0.226654,-0.226684 0.424942,-0.3928926 0.446879,-0.37458 0.02169,0.018108 0.218185,0.2110181 0.436656,0.4286939 0.218472,0.2176768 0.417591,0.4154632 0.442487,0.439525 0.03105,0.030008 -0.05287,0.1432045 -0.267271,0.3604815 -0.576179,0.5839103 -0.685468,0.7818011 -0.666313,1.2065128 0.01307,0.2895964 0.138042,0.5236567 0.377045,0.7061183 0.258218,0.1971341 0.49449,0.2505463 1.085176,0.2453218 0.52293,-0.00466 0.530297,-0.00317 0.545351,0.1052542 0.02425,0.1747069 0.01925,1.1679529 -0.0061,1.2021113 -0.0126,0.017008 -0.281875,0.03465 -0.598393,0.039197 -0.551966,0.00792 -0.584311,0.01273 -0.791402,0.1175772 -0.421862,0.2135483 -0.646168,0.6250079 -0.5792,1.0624723 0.05093,0.3330359 0.13889,0.4698493 0.578153,0.8998293 0.21443,0.2098979 0.391083,0.3897575 0.392562,0.3996873 0.0037,0.025134 -0.855275,0.893078 -0.914878,0.924379 C 17.384146,10.354187 17.191311,10.193923 16.9823,9.9840492 16.77329,9.7741755 16.521755,9.5606393 16.423334,9.5095253 15.998203,9.2887395 15.49843,9.3828766 15.196433,9.7406238 c -0.232814,0.2757952 -0.285869,0.4917642 -0.278251,1.1327142 0.0038,0.31904 -0.01255,0.551994 -0.03879,0.552706 -0.02494,6.83e-4 -0.32302,0.0024 -0.662407,0.0038 z M 15.422973,8.7564941 C 16.555284,8.1562842 17.152111,6.9481731 16.903771,5.7590233 16.765023,5.094641 16.413473,4.5643284 15.82081,4.1253794 15.419015,3.8277935 15.093499,3.6822199 14.634794,3.5949801 12.955627,3.275626 11.349034,4.7488673 11.488725,6.4799156 c 0.112472,1.393758 1.159424,2.4389102 2.550072,2.5456927 0.374758,0.028778 1.081371,-0.1086054 1.384176,-0.2691142 z"
       id="path331" /><path
       style="fill:#ff714b;fill-opacity:1;stroke-width:0.0428567"
       d="M 9.9974942,17.891721 C 9.8104279,17.889764 9.4724555,17.620188 9.4086288,17.422015 9.3797946,17.332474 9.3014185,16.893037 9.2344699,16.445487 9.1224881,15.696912 9.1003135,15.606282 8.9574733,15.313497 8.6918846,14.769109 8.3118686,14.424508 7.6042499,14.086386 6.1988967,13.414864 5.0871677,12.124484 4.6110809,10.612223 4.3531099,9.792791 4.2799844,8.6481524 4.433321,7.8297262 4.7087146,6.3598287 5.595138,4.9825613 6.8165171,4.1268696 7.4156543,3.7071167 8.3741408,3.3016905 8.981207,3.2112355 c 0.2465464,-0.036737 0.2691534,-0.032581 0.2817206,0.05176 0.00755,0.050437 0.2378859,0.3134615 0.5119338,0.5844993 0.6081246,0.6014456 0.5840136,0.572385 0.6024796,0.726182 0.03709,0.3089565 -0.126584,0.3651664 -1.059868,0.3639735 -0.7123445,-9.217e-4 -0.7297382,0.00196 -0.8479501,0.1387686 -0.092569,0.1071497 -0.098131,0.1711879 -0.096308,1.108428 0.00242,1.2221414 0.015368,1.330238 0.1739306,1.4476782 0.065748,0.048694 0.1443387,0.085394 0.174638,0.081554 0.030297,-0.00382 0.3655121,-0.00783 0.7449177,-0.00895 0.6351068,-0.00177 0.6989898,0.00596 0.8053468,0.097844 0.117032,0.1011052 0.15249,0.1971573 0.122553,0.3319838 -0.009,0.040856 -0.250649,0.3124345 -0.5368376,0.6035006 C 9.5715747,9.0295262 9.3231728,9.307505 9.3057595,9.3561914 9.235659,9.552196 9.3047344,9.648907 10.023054,10.360985 c 0.882056,0.874347 0.935611,0.918249 1.091757,0.894983 0.163144,-0.02431 0.216105,-0.06746 0.759312,-0.618709 0.50316,-0.510606 0.601103,-0.562705 0.821449,-0.436951 0.152196,0.08686 0.163213,0.148274 0.162249,0.90427 -9.32e-4,0.759493 0.01103,0.824897 0.173178,0.944156 0.125884,0.09258 0.192888,0.09799 1.129313,0.09108 0.547521,-0.004 1.0571,-0.01479 1.132397,-0.02389 l 0.136905,-0.01655 -0.135125,0.219398 c -0.07432,0.120669 -0.182663,0.280182 -0.240763,0.354471 l -0.105639,0.135076 -0.136779,-0.105912 -0.136779,-0.105915 -0.51331,0.524004 c -0.511535,0.522194 -0.696235,0.786008 -0.826266,1.180181 -0.151499,0.459259 -0.152299,0.5223 -0.02018,1.588758 0.120834,0.975334 0.123061,1.027809 0.04972,1.171607 -0.04224,0.08279 -0.131511,0.20334 -0.1984,0.267876 -0.120749,0.116501 -0.132004,0.118923 -1.583209,0.340715 -0.803877,0.122859 -1.517302,0.222807 -1.58539,0.222095 z m 1.6652148,-1.431151 -0.07579,-0.508664 -0.33911,0.05053 -0.339109,0.05053 0.07579,0.508664 0.07579,0.508665 0.33911,-0.05053 0.339109,-0.05053 z M 11.436724,15.010197 C 11.351294,14.642043 11.058508,14.103214 10.770867,13.784771 10.376312,13.347969 9.9796383,13.110293 9.2520463,12.874734 8.5073187,12.633627 8.1556514,12.461253 7.720514,12.124037 6.2960449,11.020124 5.7598014,9.2730084 6.3269508,7.5837175 6.529012,6.9818674 6.8575494,6.4522687 7.3719771,5.8991496 L 7.5123225,5.7482482 7.2958535,5.4988594 C 7.1767955,5.3616956 7.0723456,5.2437652 7.0637438,5.2367915 7.0312657,5.2104736 6.681768,5.5690018 6.4385337,5.878154 5.2836364,7.3460385 5.0603838,9.422224 5.8854473,11.021686 c 0.470388,0.911893 1.3370868,1.765852 2.2197843,2.187158 0.1944668,0.09282 0.6175496,0.250401 0.9401841,0.350185 0.4991085,0.154362 0.6309164,0.215437 0.8836602,0.409458 0.3387451,0.260039 0.6142491,0.627947 0.7353321,0.981956 0.04486,0.131178 0.09581,0.280254 0.113213,0.331283 0.02974,0.0872 0.05231,0.0897 0.375741,0.04151 l 0.344105,-0.05128 z m 4.196527,-3.420069 c 0.0031,-0.066 0.0031,-0.343847 -3e-5,-0.617444 -0.0068,-0.600468 0.01618,-0.716742 0.158858,-0.802389 0.121392,-0.07287 0.334989,-0.06934 0.377695,0.0062 0.05234,0.09263 -0.432138,1.517189 -0.520446,1.530347 -0.01196,0.0018 -0.01918,-0.05076 -0.01609,-0.116759 z M 14.106748,8.3193186 C 13.380359,8.2710814 12.702893,7.8311585 12.407622,7.2159593 12.244013,6.8750811 12.156455,6.3095422 12.214859,5.9708559 c 0.156211,-0.9059764 0.811825,-1.542559 1.7295,-1.679295 l 0.300299,-0.044742 0.182282,0.1786565 c 0.674764,0.6613358 1.253327,1.5477517 1.560684,2.3911213 0.07647,0.209815 0.08004,0.2532611 0.02981,0.3621759 -0.193127,0.4187529 -0.731855,0.8926272 -1.199319,1.0549431 -0.276041,0.095848 -0.375993,0.1078766 -0.711361,0.085608 z"
       id="path329" /><path
       style="fill:#1d7589;stroke-width:0.0428567"
       d="m 13.553315,11.387311 c -0.0053,-0.04968 0.0032,-0.06123 0.0218,-0.02943 0.0168,0.02878 0.02074,0.06556 0.0088,0.08174 -0.01198,0.01618 -0.02573,-0.0074 -0.03055,-0.05232 z m 2.746841,-3.3521053 c 0.04606,-0.066447 0.0933,-0.1222266 0.104959,-0.1239647 0.01166,-0.00177 -0.0165,0.051201 -0.06257,0.117648 -0.04608,0.066447 -0.0933,0.1222267 -0.104959,0.1239638 -0.01166,0.00177 0.0165,-0.051201 0.06257,-0.1176471 z m 3.002879,-1.1363462 c 0.0252,-0.037101 0.05345,-0.062104 0.06277,-0.055562 0.0287,0.020139 -0.023,0.1102643 -0.06703,0.1168233 -0.02286,0.00345 -0.02094,-0.024156 0.0043,-0.061256 z m -0.96385,0.044649 c 0.02877,-0.016803 0.06556,-0.020745 0.08174,-0.00876 0.01618,0.011985 -0.0074,0.02574 -0.05232,0.030549 -0.04968,0.00531 -0.06123,-0.00317 -0.02943,-0.021789 z M 16.940494,6.2029861 c -0.0053,-0.049682 0.0032,-0.061228 0.02179,-0.029431 0.0168,0.028778 0.02075,0.065562 0.0088,0.08174 -0.01199,0.016188 -0.02573,-0.00736 -0.03055,-0.052319 z M 19.325069,5.631027 c -0.0053,-0.049682 0.0032,-0.061228 0.0218,-0.029421 0.0168,0.028778 0.02075,0.065562 0.0088,0.08174 -0.01198,0.016178 -0.02574,-0.00736 -0.03055,-0.052319 z M 11.916728,4.7886648 c 0.04607,-0.066438 0.0933,-0.1222266 0.10496,-0.1239638 0.01166,-0.00177 -0.0165,0.051201 -0.06257,0.117648 -0.04608,0.066447 -0.0933,0.1222267 -0.104959,0.1239638 -0.01166,0.00177 0.0165,-0.051201 0.06257,-0.117648 z m 3.88234,-0.6759738 -0.120134,-0.101257 0.131882,0.085394 c 0.123262,0.079811 0.155434,0.1101086 0.122189,0.1150628 -0.0075,0.00112 -0.06786,-0.043512 -0.133937,-0.0992 z M 13.470533,3.6392827 c 0.02877,-0.016803 0.06556,-0.020745 0.08174,-0.00876 0.01618,0.011985 -0.0074,0.025731 -0.05232,0.030549 -0.04968,0.00531 -0.06123,-0.00317 -0.02943,-0.021798 z m 1.810376,-0.6626191 c -0.06274,-0.059374 -0.06147,-0.061098 0.01363,-0.018387 0.04556,0.025917 0.08392,0.054323 0.08523,0.06313 0.0052,0.034892 -0.03295,0.017623 -0.09885,-0.044733 z M 14.801203,1.1741309 c -0.04188,-0.018993 -0.0496,-0.034873 -0.01932,-0.039784 0.02772,-0.00447 0.06502,0.00913 0.0829,0.030316 0.04037,0.047781 0.02569,0.049971 -0.06359,0.00948 z"
       id="path327" /><path
       style="fill:#ffffff;stroke-width:0.0428567"
       d="m 4.6449551,18.253678 c -0.062747,-0.05937 -0.061471,-0.0611 0.013616,-0.01839 0.045562,0.02592 0.083921,0.05432 0.085235,0.06313 0.00522,0.03489 -0.032953,0.01762 -0.098853,-0.04474 z M 19.695986,15.870203 c -0.0082,-0.0549 0.004,-0.07137 0.03555,-0.04801 0.03155,0.02336 0.03581,0.05202 0.01245,0.08357 -0.02336,0.03155 -0.03983,0.01935 -0.048,-0.03555 z M 8.2855805,16.768791 c 0.1276132,-0.17392 0.2415605,-0.317639 0.2532172,-0.319376 0.011659,-0.0018 -0.083213,0.139141 -0.2108279,0.31306 -0.1276133,0.173918 -0.2415606,0.317637 -0.2532173,0.319374 -0.011659,0.0018 0.083213,-0.139141 0.210828,-0.313058 z M 17.15188,15.075602 c -0.01945,-0.02301 -0.02076,-0.06154 -0.003,-0.0856 0.01917,-0.02588 0.03754,-0.0094 0.04496,0.04041 0.01435,0.09632 0.0075,0.103746 -0.04202,0.0452 z M 2.6446975,16.852258 c -0.1855072,-0.138501 -0.3296484,-0.258796 -0.3203131,-0.26732 0.00934,-0.0086 0.1697611,0.103508 0.3565012,0.24896 0.1867392,0.145452 0.3308804,0.265745 0.3203131,0.26732 -0.010568,0.0016 -0.1709931,-0.110457 -0.3565012,-0.24896 z m 1.8941964,-0.337632 -0.094961,-0.08334 0.1074069,0.06654 c 0.1009356,0.06253 0.1310614,0.09291 0.09714,0.09797 -0.00801,0.0012 -0.057361,-0.03532 -0.1095858,-0.08116 z m -0.847391,-1.043641 -0.1450274,-0.119213 0.1563141,0.103973 c 0.1457069,0.09692 0.1797506,0.127596 0.1470032,0.132475 -0.00727,0.0011 -0.078525,-0.05167 -0.1582899,-0.117235 z m 2.2912724,-0.780232 c -0.0013,-0.0089 0.027101,-0.04716 0.06313,-0.08524 0.059374,-0.06275 0.061098,-0.06147 0.018387,0.01362 -0.044854,0.07886 -0.076316,0.106501 -0.081517,0.07161 z m -5.23420053,0.677116 c -0.0627475,-0.05937 -0.0614707,-0.0611 0.013625,-0.01839 0.0455625,0.02592 0.0839211,0.05432 0.0852352,0.06313 0.005219,0.03489 -0.0329534,0.01762 -0.0988527,-0.04474 z M 2.4188578,14.945671 c -0.062747,-0.05937 -0.061471,-0.0611 0.013616,-0.01839 0.045562,0.02592 0.083921,0.05432 0.085235,0.06313 0.00522,0.03489 -0.032953,0.01762 -0.098853,-0.04474 z m 3.491641,-1.148548 -0.094961,-0.08334 0.1074069,0.06654 c 0.1009346,0.06253 0.1310614,0.09291 0.09714,0.09797 -0.00801,0.0012 -0.057361,-0.03532 -0.1095858,-0.08116 z m -3.68768,-0.349617 c 0.035246,-0.05292 0.073623,-0.09763 0.085282,-0.09937 0.011659,-0.0018 -0.00764,0.04014 -0.042897,0.09305 -0.035246,0.05292 -0.073623,0.09763 -0.085282,0.09937 -0.011659,0.0018 0.00764,-0.04014 0.042897,-0.09305 z M 17.4107,11.1991 c 0.02739,-0.0161 0.07508,-0.0232 0.105973,-0.01579 0.03089,0.0075 0.0085,0.02059 -0.0498,0.02927 -0.05828,0.0087 -0.08356,0.0026 -0.05617,-0.01349 z M 0.44867112,13.608842 c -0.001305,-0.0088 0.0270915,-0.04716 0.0631296,-0.08523 0.0593739,-0.06275 0.0610979,-0.06147 0.0183872,0.01362 -0.0448542,0.07886 -0.0763165,0.106501 -0.0815168,0.07161 z M 19.148358,9.3656711 c -0.0087,-0.058283 -0.0026,-0.083567 0.01348,-0.056177 0.0161,0.02739 0.0232,0.075077 0.01579,0.1059718 -0.0075,0.030894 -0.0206,0.00848 -0.02927,-0.049803 z M 1.6312825,11.949337 c -0.00326,-0.02199 0.1125149,-0.193613 0.2573159,-0.381369 l 0.2632747,-0.341375 -0.249523,0.360966 c -0.1372383,0.198531 -0.2530299,0.370146 -0.2573159,0.381369 -0.00429,0.01122 -0.010475,0.0024 -0.013755,-0.01959 z M 19.910282,7.545919 c -0.0013,-0.00876 0.0271,-0.047156 0.06313,-0.085235 0.05937,-0.062748 0.0611,-0.061471 0.01839,0.013616 -0.04485,0.078861 -0.07632,0.1065011 -0.08152,0.07161 z M 3.6864462,9.4344529 c -0.00531,-0.049682 0.00317,-0.061228 0.021798,-0.029431 0.016803,0.028778 0.020745,0.065562 0.00876,0.08174 -0.011985,0.016188 -0.025731,-0.00736 -0.030549,-0.052319 z M 4.61219,5.4924066 C 4.61089,5.4836466 4.639291,5.4452506 4.675319,5.4071716 4.734693,5.3444336 4.736417,5.3457006 4.693716,5.4207966 4.648862,5.4996576 4.6174,5.5272977 4.612199,5.4924066 Z M 17.242299,1.3449908 c 0.02739,-0.016104 0.07508,-0.023205 0.105972,-0.015787 0.03089,0.00746 0.0085,0.020586 -0.0498,0.029272 -0.05828,0.00867 -0.08356,0.00261 -0.05617,-0.013485 z M 8.9009018,2.4998974 c 0.039645,-0.016896 0.096971,-0.024715 0.1273998,-0.017381 0.030428,0.00736 -0.00205,0.021155 -0.072076,0.030717 -0.070072,0.00955 -0.094966,0.00354 -0.05532,-0.013336 z m 0.4662753,-0.069476 c 0.039645,-0.016896 0.096972,-0.024715 0.1273998,-0.017381 0.030428,0.00736 -0.00205,0.021155 -0.072076,0.030717 -0.070073,0.00955 -0.094966,0.00354 -0.05532,-0.013336 z M 15.525966,0.78088606 c -0.0053,-0.0496817 0.0032,-0.0612284 0.02179,-0.0294213 0.0168,0.0287783 0.02074,0.0655619 0.0088,0.0817404 -0.01198,0.0161785 -0.02573,-0.007362 -0.03055,-0.0523191 z M 3.1563368,1.883072 c 0.028769,-0.016803 0.065562,-0.020745 0.08174,-0.00876 0.016188,0.011985 -0.00736,0.02574 -0.052319,0.030549 -0.049682,0.00531 -0.061228,-0.00317 -0.029421,-0.021798 z"
       id="path325" /><path
       style="fill:#9c6c0a;stroke-width:0.0428567"
       d="m 10.745966,15.228669 c -0.0053,-0.04968 0.0032,-0.06122 0.0218,-0.02942 0.0168,0.02878 0.02074,0.06556 0.0088,0.08174 -0.01198,0.01619 -0.02573,-0.0074 -0.03055,-0.05232 z m 0.646639,-0.313 c -0.0053,-0.04968 0.0032,-0.06123 0.0218,-0.02942 0.0168,0.02877 0.02074,0.06556 0.0088,0.08174 -0.01199,0.01618 -0.02574,-0.0074 -0.03055,-0.05232 z M 8.1949848,14.431647 8.0252209,14.294456 8.2059454,14.416849 c 0.1682131,0.11392 0.2040509,0.145247 0.1716818,0.150071 -0.00708,0.001 -0.08927,-0.05982 -0.1826424,-0.135273 z m 5.4539662,-0.780161 c 0.03525,-0.05292 0.07363,-0.09763 0.08528,-0.09937 0.01166,-0.0018 -0.0076,0.04014 -0.0429,0.09305 -0.03525,0.05291 -0.07362,0.09763 -0.08528,0.09937 -0.01166,0.0018 0.0076,-0.04014 0.0429,-0.09305 z m -6.7571957,0.04276 -0.094962,-0.08334 0.107407,0.06654 c 0.1009355,0.06253 0.1310623,0.09291 0.09714,0.09797 -0.00801,0.0012 -0.057361,-0.03533 -0.1095849,-0.08116 z m -0.464075,-0.342485 c -0.062747,-0.05937 -0.061471,-0.0611 0.013616,-0.01839 0.045562,0.02592 0.083921,0.05432 0.085235,0.06313 0.00522,0.03489 -0.032953,0.01762 -0.098853,-0.04473 z M 7.3613092,12.75768 7.1178,12.566484 l 0.2538836,0.17719 c 0.2359129,0.16465 0.2769555,0.198676 0.2453255,0.203389 -0.00671,10e-4 -0.12177,-0.08422 -0.2556999,-0.189383 z m 0.364516,-0.595936 -0.1201326,-0.101256 0.1318806,0.08539 c 0.1232629,0.07981 0.1554344,0.110109 0.1221903,0.115063 -0.00755,0.0011 -0.067864,-0.04351 -0.1339383,-0.0992 z M 6.1553612,9.6551389 C 6.1362564,9.5269124 6.1363869,9.4732728 6.155651,9.5359383 6.174914,9.5986023 6.190552,9.7035159 6.190384,9.7690759 6.1902255,9.8346379 6.174457,9.7833629 6.155352,9.6551389 Z m -1.7651508,0.068032 c -0.024137,-0.1632227 -0.025638,-0.2259338 -0.00335,-0.1393548 0.022283,0.086577 0.042021,0.2201269 0.043876,0.2967714 0.00186,0.076643 -0.016383,0.00578 -0.040511,-0.1574166 z M 14.256394,8.331801 c 0.02877,-0.016803 0.06556,-0.020745 0.08174,-0.00876 0.01618,0.011985 -0.0074,0.025731 -0.05232,0.030549 -0.04968,0.00531 -0.06122,-0.00317 -0.02942,-0.021789 z M 5.3693617,9.0970359 c -0.00531,-0.049682 0.00317,-0.061228 0.021798,-0.029421 0.016803,0.028769 0.020745,0.065562 0.00876,0.08174 -0.011985,0.016188 -0.02574,-0.00736 -0.030549,-0.052319 z M 12.204178,6.6306866 c -0.01911,-0.1282256 -0.01897,-0.1818661 2.89e-4,-0.1191997 0.01926,0.062664 0.03489,0.1675785 0.03474,0.2331376 -1.56e-4,0.065562 -0.01593,0.014287 -0.03503,-0.1139379 z M 6.9140166,6.4006858 C 7.0215437,6.2535913 7.1190581,6.1318204 7.1307148,6.1300833 7.1423734,6.1283126 7.0639321,6.2472756 6.9564058,6.3943701 6.8488787,6.5414646 6.7513643,6.6632355 6.7397076,6.6649726 6.728049,6.6667433 6.8064904,6.5477803 6.9140166,6.4006858 Z M 6.5170123,5.7718691 c -0.0013,-0.00876 0.027092,-0.047156 0.06313,-0.085235 0.059374,-0.062747 0.061098,-0.061471 0.018387,0.013625 -0.044854,0.078861 -0.076316,0.1065011 -0.081517,0.07161 z M 5.1118697,5.9379109 c -0.0013,-0.00876 0.027092,-0.047156 0.06313,-0.085235 0.059374,-0.062738 0.061098,-0.061471 0.018387,0.013625 -0.044854,0.078861 -0.076316,0.106501 -0.081517,0.07161 z M 10.042862,4.9295293 c 0.03965,-0.016896 0.09697,-0.024706 0.1274,-0.017381 0.03043,0.00736 -0.002,0.021155 -0.07208,0.030717 -0.07007,0.00955 -0.09497,0.00354 -0.05532,-0.013336 z M 5.4113978,5.4763409 c 0.035246,-0.052916 0.073633,-0.09763 0.085282,-0.099367 0.011659,-0.00177 -0.00764,0.040139 -0.042897,0.093054 -0.035246,0.052916 -0.073623,0.09763 -0.085282,0.099367 -0.011659,0.00177 0.00764,-0.040139 0.042897,-0.093054 z M 13.823404,4.2808865 c 0.02739,-0.016104 0.07508,-0.023205 0.105972,-0.015787 0.03089,0.00746 0.0085,0.020587 -0.0498,0.029272 -0.05828,0.00867 -0.08356,0.00261 -0.05617,-0.013485 z M 9.043564,3.1720754 c 0.039207,-0.016747 0.1059727,-0.026691 0.1483601,-0.022106 0.042385,0.00457 0.010307,0.018275 -0.071293,0.030437 -0.081601,0.012162 -0.116279,0.00839 -0.077071,-0.00829 z"
       id="path323" /><path
       style="fill:#6d4b06;stroke-width:0.0428567"
       d="m 13.207048,15.147214 c -0.0087,-0.05828 -0.0026,-0.08356 0.01348,-0.05617 0.0161,0.02739 0.02321,0.07508 0.01579,0.105971 -0.0075,0.03089 -0.02059,0.0085 -0.02927,-0.0498 z m -4.1187332,0.58843 c -0.00531,-0.04968 0.00317,-0.06123 0.021789,-0.02943 0.016803,0.02878 0.020745,0.06556 0.00876,0.08174 -0.011985,0.01618 -0.02574,-0.0074 -0.030549,-0.05232 z m 2.3302682,-0.668581 c -0.0087,-0.05828 -0.0026,-0.08356 0.01348,-0.05617 0.0161,0.02739 0.02321,0.07508 0.01579,0.105973 -0.0075,0.03089 -0.02059,0.0085 -0.02927,-0.0498 z m -0.691565,0.03445 c -0.0053,-0.04968 0.0032,-0.06123 0.0218,-0.02942 0.0168,0.02877 0.02074,0.06556 0.0088,0.08174 -0.01198,0.01618 -0.02574,-0.0074 -0.03055,-0.05232 z m -0.45926,-1.736979 -0.194403,-0.155184 0.205119,0.140718 c 0.190759,0.130865 0.22835,0.162997 0.196279,0.167775 -0.0069,0.001 -0.100072,-0.06796 -0.206995,-0.153309 z M 14.733195,12.6775 c -0.06275,-0.05937 -0.06147,-0.0611 0.01362,-0.01839 0.07886,0.04485 0.106502,0.07632 0.07161,0.08152 -0.0088,0.0013 -0.04716,-0.0271 -0.08524,-0.06313 z m 0.345977,-0.568611 c 0.02877,-0.0168 0.06556,-0.02074 0.08174,-0.0088 0.01618,0.01198 -0.0074,0.02574 -0.05232,0.03055 -0.04968,0.0053 -0.06123,-0.0032 -0.02942,-0.02179 z m -0.303039,0.0018 c 0.02878,-0.0168 0.06556,-0.02074 0.08174,-0.0088 0.01618,0.01198 -0.0074,0.02573 -0.05232,0.03056 -0.04968,0.0053 -0.06123,-0.0032 -0.02942,-0.02179 z m -0.303036,0.0018 c 0.02877,-0.0168 0.06556,-0.02075 0.08174,-0.0088 0.01618,0.01199 -0.0074,0.02573 -0.05232,0.03055 -0.04968,0.0053 -0.06123,-0.0032 -0.02942,-0.0218 z M 6.2815662,13.24344 c -0.062747,-0.05937 -0.061471,-0.0611 0.013625,-0.01839 0.045572,0.02592 0.083921,0.05432 0.085235,0.06313 0.00522,0.03489 -0.032953,0.01762 -0.098853,-0.04473 z M 14.17006,12.114255 c 0.02878,-0.0168 0.06556,-0.02074 0.08174,-0.0088 0.01618,0.01198 -0.0074,0.02574 -0.05232,0.03056 -0.04968,0.0053 -0.06123,-0.0032 -0.02943,-0.0218 z m -0.303037,0.0018 c 0.02878,-0.0168 0.06556,-0.02074 0.08174,-0.0088 0.01618,0.01198 -0.0074,0.02573 -0.05232,0.03055 -0.04968,0.0053 -0.06123,-0.0032 -0.02942,-0.02179 z m -0.303037,0.0018 c 0.02877,-0.0168 0.06556,-0.02074 0.08175,-0.0088 0.01618,0.01198 -0.0074,0.02574 -0.05232,0.03055 -0.04968,0.0053 -0.06123,-0.0032 -0.02942,-0.0218 z m -0.303036,0.0018 c 0.02878,-0.0168 0.06556,-0.02074 0.08174,-0.0088 0.01618,0.01198 -0.0074,0.02574 -0.05232,0.03055 -0.04968,0.0053 -0.06123,-0.0032 -0.02943,-0.02179 z M 7.9184449,12.30619 c -0.062747,-0.05937 -0.061471,-0.0611 0.013625,-0.0184 0.078861,0.04485 0.1065011,0.07632 0.07161,0.08152 -0.00876,0.0013 -0.047156,-0.0271 -0.085235,-0.06313 z M 12.849803,10.4124 c -0.0096,-0.07006 -0.0035,-0.09497 0.01334,-0.05532 0.0169,0.03964 0.02472,0.09697 0.01734,0.127404 -0.0074,0.03043 -0.02116,-0.0021 -0.03072,-0.07208 z m -0.131605,-0.20796 c -0.06275,-0.05937 -0.06147,-0.0611 0.01362,-0.01839 0.07886,0.04485 0.106502,0.07632 0.07161,0.08152 -0.0088,0.0013 -0.04716,-0.02709 -0.08524,-0.06313 z m -0.320306,-0.07846 c 0.02739,-0.0161 0.07508,-0.02321 0.105972,-0.01579 0.03089,0.0075 0.0085,0.02059 -0.0498,0.02927 -0.05828,0.0087 -0.08356,0.0026 -0.05617,-0.01348 z m -7.8563775,0.394111 c -0.00531,-0.04968 0.00317,-0.06122 0.021789,-0.02942 0.016803,0.02878 0.020745,0.06556 0.00876,0.08174 -0.011985,0.01618 -0.025731,-0.0074 -0.030549,-0.05232 z M 9.2942547,9.5338843 c -0.00867,-0.058283 -0.00261,-0.083558 0.013485,-0.056168 0.016104,0.02739 0.023205,0.075077 0.015787,0.1059717 -0.00746,0.030894 -0.020586,0.00848 -0.029272,-0.049804 z M 5.5074425,9.9898076 c -0.00955,-0.070073 -0.00354,-0.094966 0.013336,-0.055329 0.016896,0.039645 0.024715,0.096972 0.017381,0.1274004 -0.00736,0.03043 -0.021155,-0.002 -0.030717,-0.072076 z M 4.4366797,10.08436 c -0.00867,-0.05828 -0.00261,-0.08357 0.013485,-0.05617 0.016104,0.02739 0.023205,0.07508 0.015787,0.105972 -0.00746,0.03089 -0.020587,0.0085 -0.029272,-0.0498 z M 5.3953405,9.2482393 c -0.00867,-0.058283 -0.00261,-0.083558 0.013485,-0.056168 0.016104,0.02739 0.023205,0.075077 0.015787,0.1059718 -0.00746,0.030894 -0.020587,0.00848 -0.029272,-0.049804 z M 4.3293072,9.3637522 c -0.00867,-0.058283 -0.00261,-0.083558 0.013485,-0.056168 0.016104,0.02739 0.023205,0.075077 0.015787,0.1059717 -0.00746,0.030894 -0.020587,0.00848 -0.029272,-0.049804 z M 6.0665287,9.122955 c -0.00531,-0.049682 0.00317,-0.061228 0.021798,-0.029431 0.016803,0.028778 0.020745,0.065562 0.00876,0.08174 -0.011985,0.016179 -0.025731,-0.00736 -0.030549,-0.052319 z M 12.153242,6.3528317 c -0.0053,-0.049682 0.0032,-0.061228 0.02179,-0.029421 0.0168,0.028778 0.02074,0.065562 0.0088,0.08174 -0.01198,0.016178 -0.02573,-0.00736 -0.03055,-0.052319 z M 6.335684,6.0208768 C 6.4231185,5.8946493 6.5002262,5.7905424 6.5070285,5.7895294 6.5388542,5.7847765 6.5108494,5.82786 6.3498951,6.0314021 L 6.1767072,6.2503808 Z M 7.3963669,5.8573046 c -0.0013,-0.00876 0.027092,-0.047156 0.06313,-0.085235 0.059374,-0.062738 0.061098,-0.061471 0.018387,0.013625 -0.044854,0.078861 -0.076316,0.1065011 -0.081517,0.07161 z M 5.2498442,5.7005152 c -0.0013,-0.00876 0.027101,-0.047156 0.06313,-0.085235 0.059374,-0.062748 0.061098,-0.061471 0.018387,0.013616 -0.044854,0.078861 -0.076316,0.1065021 -0.081517,0.07161 z M 10.281466,4.8641267 c -0.0013,-0.00876 0.0271,-0.047156 0.06313,-0.085235 0.05937,-0.062747 0.0611,-0.061471 0.01839,0.013625 -0.04485,0.078861 -0.07632,0.1065011 -0.08152,0.07161 z m 3.7333,-0.613271 c 0.03964,-0.016896 0.09697,-0.024715 0.1274,-0.017381 0.03043,0.00736 -0.0021,0.021155 -0.07208,0.030717 -0.07007,0.00955 -0.09497,0.00354 -0.05533,-0.013336 z M 8.6393521,4.9664816 c 0.02739,-0.016104 0.075077,-0.023205 0.1059717,-0.015787 0.030894,0.00746 0.00848,0.020586 -0.049803,0.029272 -0.058283,0.00867 -0.083558,0.00261 -0.056169,-0.013485 z M 5.5027614,5.3623228 C 5.501643,5.3550537 5.5544281,5.2837976 5.6199965,5.204032 L 5.7392093,5.0590055 5.6352375,5.2153196 C 5.5383204,5.3610265 5.507641,5.3950702 5.5027614,5.3623228 Z M 8.4379321,3.3057285 c 0.028769,-0.016803 0.065562,-0.020745 0.08174,-0.00876 0.016188,0.011985 -0.00736,0.025731 -0.052319,0.030549 -0.049682,0.00531 -0.061228,-0.00317 -0.029421,-0.021798 z m 0.3513001,-0.095944 c 0.039207,-0.016747 0.1059717,-0.026691 0.14836,-0.022106 0.042385,0.00457 0.010307,0.018275 -0.071293,0.030437 -0.081601,0.012162 -0.116279,0.00839 -0.077071,-0.00829 z"
       id="path319" /><path
       style="font-size:8.78432px;font-family:'Brandan Personal Use';-inkscape-font-specification:'Brandan Personal Use, Normal';text-align:end;stroke-width:0.506421;stroke-linecap:round;stroke-linejoin:round;paint-order:markers fill stroke"
       d="m 24.147744,6.8582042 q 1.168314,0 1.827138,0.5358435 0.658824,0.5270592 0.658824,1.4669814 v 4.2779639 q 0,0.04392 -0.04392,0.07906 -0.04392,0.03514 -0.114196,0.03514 h -1.546041 q -0.06149,0 -0.114196,-0.03514 -0.04392,-0.03514 -0.04392,-0.07906 v -1.344001 h -1.554825 v 1.344001 q 0,0.04392 -0.05271,0.07906 -0.04392,0.03514 -0.105412,0.03514 h -1.54604 q -0.06149,0 -0.114196,-0.03514 -0.04392,-0.03514 -0.04392,-0.07906 V 8.8610291 q 0,-0.9399222 0.658824,-1.4669814 0.658824,-0.5358435 1.835923,-0.5358435 z m -0.931138,3.3556098 h 1.554825 V 9.1509117 q 0,-0.3250198 -0.228393,-0.4831376 -0.228392,-0.1581177 -0.544628,-0.1669021 -0.316235,0.00878 -0.553412,0.1669021 -0.228392,0.1581178 -0.228392,0.4831376 z m 8.766754,-0.149333 q 0.360157,0.166902 0.57098,0.535843 0.210824,0.368942 0.210824,0.860864 0,1.229805 -0.632471,1.537256 -0.368941,0.175686 -0.825726,0.245961 -0.456785,0.07027 -1.475766,0.07027 -1.730511,0 -2.345413,-0.272314 -0.114196,-0.04392 -0.114196,-0.07027 V 7.1920084 q 0,-0.079059 0.210823,-0.1405491 0.623687,-0.1932551 2.248786,-0.1932551 0.360157,0 0.518275,0.00878 0.158118,0 0.439216,0.017569 0.281098,0.017569 0.430432,0.06149 0.158118,0.043922 0.360157,0.1229805 0.210824,0.079059 0.368941,0.2108237 0.158118,0.1229804 0.307452,0.2986668 0.202039,0.2371767 0.263529,0.7290986 0.06149,0.4831376 -0.06149,0.9135693 -0.07906,0.2635296 -0.254745,0.4567846 -0.166902,0.1844707 -0.298667,0.2371766 l -0.140549,0.052706 z m -2.749492,-0.6939613 0.08784,0.00878 q 0.316235,0.017569 0.553412,0.017569 0.298667,0 0.421647,-0.017569 0.131765,-0.017569 0.254746,-0.079059 0.254745,-0.1317648 0.254745,-0.5094905 0,-0.1581178 -0.06149,-0.2635296 -0.05271,-0.1141962 -0.122981,-0.1669021 -0.07027,-0.052706 -0.219608,-0.079059 -0.149333,-0.026353 -0.254745,-0.026353 -0.105412,-0.00878 -0.316236,-0.00878 -0.193255,0 -0.500706,0.00878 h -0.09663 z m 1.317648,2.4596093 q 0.254745,-0.131765 0.254745,-0.50949 0,-0.158118 -0.06149,-0.26353 -0.05271,-0.114196 -0.122981,-0.166902 -0.06149,-0.06149 -0.219608,-0.08784 -0.149333,-0.02635 -0.254745,-0.02635 -0.105412,-0.0088 -0.316236,-0.0088 -0.193255,0 -0.500706,0.01757 h -0.09663 v 1.115609 h 0.08784 q 0.316235,0.02635 0.553412,0.02635 0.298667,0 0.421647,-0.01757 0.131765,-0.01757 0.254746,-0.07906 z m 6.799056,-4.6556893 q 1.185883,0.5709808 1.185883,1.9413347 v 0.087843 q 0,0.6324711 -0.166902,1.1243934 -0.158118,0.483137 -0.404079,0.755451 -0.237176,0.26353 -0.57098,0.430432 -0.333804,0.158118 -0.614903,0.210823 -0.272314,0.04392 -0.579765,0.04392 -0.632471,0 -0.852079,-0.05271 l -0.114196,-0.01757 v 1.440629 q 0,0.04392 -0.05271,0.07906 -0.04392,0.03514 -0.105412,0.03514 h -1.54604 q -0.06149,0 -0.114196,-0.03514 -0.04392,-0.03514 -0.04392,-0.07906 V 7.1568711 q 0,-0.070275 0.175687,-0.1141962 0.860863,-0.193255 2.25757,-0.193255 0.860863,0 1.54604,0.3250198 z m -0.71153,1.9940406 q 0,-0.1141961 -0.0088,-0.2020393 -0.0088,-0.087843 -0.06149,-0.2108237 -0.04392,-0.1317648 -0.131765,-0.2108237 -0.07906,-0.079059 -0.254745,-0.1405491 -0.166903,-0.06149 -0.404079,-0.06149 -0.20204,0 -0.465569,0.035137 l -0.07906,0.00878 v 1.7656481 l 0.07906,0.01757 q 0.254745,0.02635 0.465569,0.02635 0.430431,0 0.606118,-0.105412 0.158118,-0.096628 0.202039,-0.2635297 0.05271,-0.166902 0.05271,-0.5358435 z m 5.578037,-0.9311379 q 0.228392,-0.00878 0.228392,0.1581178 v 1.2385891 q 0,0.1669021 -0.237176,0.1493334 -0.412863,-0.026353 -0.825726,0.2898823 -0.412863,0.316236 -0.456785,0.702746 v 2.362982 q 0,0.04392 -0.04392,0.07906 -0.04392,0.03514 -0.114196,0.03514 h -1.581177 q -0.06149,0 -0.114196,-0.03514 -0.04392,-0.03514 -0.04392,-0.07906 V 8.4218132 q 0,-0.052706 0.04392,-0.087843 0.05271,-0.035137 0.114196,-0.035137 h 1.238589 q 0.08784,0 0.210824,0.1317648 0.131764,0.1229805 0.210823,0.2547453 l 0.07906,0.1229804 q 0.219608,-0.2635296 0.597334,-0.4040787 0.38651,-0.1493334 0.693961,-0.1669021 z m 2.898831,0 q 0,0 0,0 0.0088,0 0.01757,0 0.08784,0 0.184471,0.00878 0.09663,0 0.342588,0.035137 0.254746,0.026353 0.465569,0.096628 0.219608,0.06149 0.474354,0.2108236 0.263529,0.1405491 0.448,0.3513728 0.184471,0.2020394 0.307451,0.5358435 0.122981,0.3338042 0.122981,0.7554515 v 1.089256 q 0,0.421647 -0.122981,0.764236 -0.12298,0.333804 -0.307451,0.535843 -0.184471,0.202039 -0.448,0.351373 -0.254746,0.140549 -0.474354,0.210824 -0.210823,0.06149 -0.465569,0.09663 -0.245961,0.03514 -0.342588,0.03514 -0.09663,0 -0.184471,0 -0.0088,0 -0.01757,0 0,0 0,0 -0.09663,0 -0.193255,0 -0.09663,0 -0.351372,-0.03514 -0.245961,-0.03514 -0.456785,-0.09663 -0.210824,-0.07027 -0.474353,-0.210824 -0.26353,-0.149334 -0.448001,-0.351373 -0.175686,-0.202039 -0.307451,-0.535843 -0.12298,-0.342589 -0.12298,-0.764236 v -1.089256 q 0,-0.4216473 0.12298,-0.7554515 0.131765,-0.3338041 0.307451,-0.5358435 0.184471,-0.2108237 0.448001,-0.3513728 0.263529,-0.1493334 0.474353,-0.2108236 0.210824,-0.070275 0.456785,-0.096628 0.254745,-0.035137 0.351372,-0.035137 0.09663,-0.00878 0.193255,-0.00878 z m 0.465569,3.0832966 v -1.089256 q 0,-0.2635295 -0.105411,-0.3952943 -0.105412,-0.1317648 -0.351373,-0.1405492 -0.254745,0.00878 -0.360157,0.1405492 -0.105412,0.1317648 -0.105412,0.3952943 v 1.089256 q 0,0.272314 0.105412,0.404078 0.105412,0.122981 0.360157,0.14055 0.245961,-0.01757 0.351373,-0.14055 0.105411,-0.131764 0.105411,-0.404078 z m 4.260403,-3.0218063 q 0.07028,0 0.114196,0.035137 Q 50,8.3691072 50,8.4218132 v 4.7698858 q 0,0.764236 -0.307451,1.229805 -0.351373,0.535843 -0.869648,0.71153 -0.50949,0.175686 -1.264942,0.175686 -0.114196,0 -0.175686,-0.04392 -0.06149,-0.04392 -0.07027,-0.08784 l -0.0088,-0.04392 v -1.018982 q 0,-0.0527 0.0088,-0.08784 0.0088,-0.03514 0.04392,-0.05271 0.03514,-0.0088 0.06149,-0.01757 0.01757,-0.0088 0.07906,-0.01757 0.06149,0 0.08784,0 0.316236,-0.05271 0.412863,-0.193255 0.09663,-0.140549 0.105412,-0.509491 V 8.4218132 q 0,-0.052706 0.04392,-0.087843 0.05271,-0.035137 0.114197,-0.035137 z m 0,-1.6075306 q 0.07028,0 0.114196,0.035137 Q 50,6.7615767 50,6.8054983 v 1.0014125 q 0,0.043922 -0.04392,0.079059 -0.04392,0.035137 -0.114196,0.035137 h -1.581177 q -0.06149,0 -0.114197,-0.035137 -0.04392,-0.035137 -0.04392,-0.079059 V 6.8054983 q 0,-0.043922 0.04392,-0.079059 0.05271,-0.035137 0.114197,-0.035137 z"
       id="text420"
       aria-label="ABProj" /><g
       id="text1445"
       style="font-weight:500;font-size:2.1364px;font-family:'Exo 2';-inkscape-font-specification:'Exo 2, Medium';text-align:end;stroke-width:0.123164;stroke-linecap:round;stroke-linejoin:round;paint-order:markers fill stroke"
       aria-label="Aprendizagem Baseada &#10;em Projetos"><path
         style="font-weight:normal;font-family:'Brandan Personal Use';-inkscape-font-specification:'Brandan Personal Use, Normal'"
         d="m 22.063619,14.240707 q 0.284141,0 0.444371,0.13032 0.16023,0.128184 0.16023,0.356779 v 1.040427 q 0,0.01068 -0.01068,0.01923 -0.01068,0.0085 -0.02777,0.0085 h -0.376006 q -0.01496,0 -0.02777,-0.0085 -0.01068,-0.0085 -0.01068,-0.01923 v -0.326869 h -0.378142 v 0.326869 q 0,0.01068 -0.01282,0.01923 -0.01068,0.0085 -0.02564,0.0085 h -0.376006 q -0.01496,0 -0.02777,-0.0085 -0.01068,-0.0085 -0.01068,-0.01923 v -1.040427 q 0,-0.228595 0.16023,-0.356779 0.16023,-0.13032 0.446507,-0.13032 z m -0.226458,0.816105 h 0.378142 v -0.258505 q 0,-0.07905 -0.05555,-0.117502 -0.05555,-0.03845 -0.132457,-0.04059 -0.07691,0.0021 -0.134593,0.04059 -0.05555,0.03846 -0.05555,0.117502 z m 2.147082,-0.0085 v 0.271323 0 q -0.0043,0.104684 -0.03632,0.188003 -0.03205,0.08332 -0.08118,0.134593 -0.047,0.04914 -0.104683,0.08546 -0.05555,0.03632 -0.11323,0.05127 -0.05555,0.01496 -0.102547,0.02136 -0.04486,0.0085 -0.07477,0.0085 h -0.02777 q -0.06409,0 -0.138866,-0.01496 v 0.363188 q 0,0.01282 -0.01068,0.02136 -0.01068,0.0085 -0.02777,0.0085 h -0.384552 q -0.01496,0 -0.02777,-0.0085 -0.01068,-0.0085 -0.01068,-0.02136 v -1.482662 q 0,-0.03845 0.05555,-0.05341 0.177321,-0.04486 0.491372,-0.04486 0.01282,0 0.03205,0 0.02136,0 0.08118,0.0085 0.05982,0.0064 0.113229,0.02136 0.05341,0.01496 0.119639,0.04914 0.06837,0.03418 0.117502,0.08332 0.05127,0.047 0.08759,0.128184 0.03632,0.08118 0.04273,0.181594 z m -0.461462,0.288414 v -0.288414 q 0,-0.08973 -0.04914,-0.117502 -0.04914,-0.02991 -0.168776,-0.0064 v 0.5341 q 0.119638,0.0235 0.168776,-0.0043 0.04914,-0.02991 0.04914,-0.117502 z m 1.384388,-0.760558 q 0.05555,-0.0021 0.05555,0.03846 v 0.301232 q 0,0.04059 -0.05768,0.03632 -0.100411,-0.0064 -0.200822,0.0705 -0.10041,0.07691 -0.111092,0.170912 v 0.574692 q 0,0.01068 -0.01068,0.01923 -0.01068,0.0085 -0.02777,0.0085 h -0.384552 q -0.01495,0 -0.02777,-0.0085 -0.01068,-0.0085 -0.01068,-0.01923 v -1.147247 q 0,-0.01282 0.01068,-0.02136 0.01282,-0.0085 0.02777,-0.0085 h 0.301233 q 0.02136,0 0.05127,0.03205 0.03205,0.02991 0.05127,0.06196 l 0.01923,0.02991 q 0.05341,-0.06409 0.145275,-0.09827 0.094,-0.03632 0.168775,-0.04059 z m 0.687922,0 q 0.0064,0 0.01923,0 0.01282,0 0.04914,0.0021 0.03845,0.0021 0.07477,0.0085 0.03632,0.0064 0.08546,0.0235 0.05127,0.01496 0.094,0.03846 0.04486,0.0235 0.08973,0.06409 0.04486,0.03846 0.07691,0.08973 0.03418,0.04914 0.05555,0.121775 0.0235,0.07264 0.02777,0.16023 v 0.185867 q 0.0021,0.04059 -0.04486,0.04059 h -0.64092 q 0,0.121775 0.123911,0.149548 0.126048,0.02777 0.476418,0.0043 0.01282,0 0.02136,0.0085 0.01068,0.0085 0.01068,0.02136 v 0.222185 q 0,0.03205 -0.03846,0.04273 -0.132456,0.03632 -0.20723,0.04273 -0.07477,0.0085 -0.228595,0.0085 0,-0.0043 -0.01923,-0.0021 -0.01923,0.0043 -0.05555,-0.0021 -0.03418,-0.0043 -0.07691,-0.0085 -0.04273,-0.0043 -0.094,-0.02136 -0.04914,-0.01709 -0.09827,-0.03846 -0.047,-0.02136 -0.094,-0.06195 -0.04486,-0.04059 -0.08118,-0.08759 -0.03632,-0.04914 -0.05982,-0.119638 -0.02136,-0.07264 -0.02564,-0.158094 v -0.226458 q 0,-0.02991 0.0043,-0.06196 0.0043,-0.03205 0.01709,-0.08332 0.01495,-0.05341 0.03632,-0.09828 0.0235,-0.047 0.06623,-0.09614 0.04273,-0.05127 0.09827,-0.08546 0.05768,-0.03632 0.145275,-0.05982 0.08759,-0.0235 0.192276,-0.0235 z m 0.173049,0.508463 q 0.0021,-0.01282 0.0021,-0.02777 -0.0021,-0.04914 -0.01709,-0.08332 -0.01495,-0.03418 -0.03632,-0.047 -0.02136,-0.01495 -0.04273,-0.02136 -0.02136,-0.0085 -0.03632,-0.0064 h -0.01495 q 0,0.0021 -0.01496,0 -0.01282,-0.0043 -0.03632,0.0064 -0.02136,0.0085 -0.04273,0.02136 -0.01923,0.01282 -0.03632,0.04914 -0.01496,0.03418 -0.01496,0.08332 0,0.01496 0,0.02564 z m 1.29893,-0.508463 q 0.09614,0 0.166639,0.02777 0.0705,0.02777 0.111093,0.07264 0.04059,0.04273 0.06409,0.108956 0.02564,0.06623 0.03205,0.13032 0.0085,0.06409 0.0085,0.145276 v 0.707148 q 0,0.01068 -0.01068,0.01923 -0.01068,0.0085 -0.02777,0.0085 h -0.384552 q -0.01496,0 -0.02777,-0.0085 -0.01068,-0.0085 -0.01068,-0.01923 v -0.734922 q 0,-0.03632 -0.02991,-0.05555 -0.02991,-0.02136 -0.07691,-0.02136 -0.047,0 -0.07264,0.01923 -0.02564,0.01923 -0.02991,0.03846 l -0.0043,0.01923 v 0.734922 q 0,0.01068 -0.01068,0.01923 -0.01068,0.0085 -0.02777,0.0085 h -0.384552 q -0.01495,0 -0.02777,-0.0085 -0.01068,-0.0085 -0.01068,-0.01923 v -1.147247 q 0,-0.01282 0.01068,-0.02136 0.01282,-0.0085 0.02777,-0.0085 h 0.284141 l 0.141002,0.07905 q 0.130321,-0.094 0.290551,-0.094 z m 1.621526,-0.376007 q 0.01709,0 0.02777,0.0085 0.01068,0.0085 0.01068,0.01923 v 1.484798 q 0,0.03845 -0.05341,0.05127 -0.179457,0.047 -0.493508,0.047 -0.01282,0 -0.03418,0 -0.01923,0 -0.07905,-0.0085 -0.05768,-0.0064 -0.113229,-0.02136 -0.05341,-0.01495 -0.121775,-0.04914 -0.06623,-0.03632 -0.117502,-0.08332 -0.04914,-0.04914 -0.08546,-0.128184 -0.03632,-0.08118 -0.04059,-0.181594 h -0.0021 v -0.271323 h 0.0021 q 0.0021,-0.104684 0.03418,-0.188003 0.03205,-0.08546 0.07905,-0.134594 0.04914,-0.04914 0.10682,-0.08546 0.05768,-0.03632 0.11323,-0.05127 0.05555,-0.01495 0.102547,-0.02136 0.047,-0.0085 0.07477,-0.0085 h 0.02777 q 0.06409,0 0.138866,0.01282 v -0.363188 q 0,-0.01068 0.01068,-0.01923 0.01282,-0.0085 0.02777,-0.0085 z m -0.423007,1.262613 v -0.5341 q -0.119638,-0.0235 -0.168776,0.0064 -0.04914,0.02777 -0.04914,0.115366 v 0.288414 q 0,0.08973 0.04914,0.119638 0.04914,0.02777 0.168776,0.0043 z m 1.063926,-1.262613 q 0.01709,0 0.02777,0.0085 0.01068,0.0085 0.01068,0.01923 v 0.243549 q 0,0.01068 -0.01068,0.01923 -0.01068,0.0085 -0.02777,0.0085 h -0.384552 q -0.01496,0 -0.02777,-0.0085 -0.01068,-0.0085 -0.01068,-0.01923 v -0.243549 q 0,-0.01068 0.01068,-0.01923 0.01282,-0.0085 0.02777,-0.0085 z m 0,0.390962 q 0.01709,0 0.02777,0.0085 0.01068,0.0085 0.01068,0.02136 v 1.145111 q 0,0.01282 -0.01068,0.02136 -0.01068,0.0085 -0.02777,0.0085 h -0.384552 q -0.01496,0 -0.02777,-0.0085 -0.01068,-0.0085 -0.01068,-0.02136 v -1.145111 q 0,-0.01282 0.01068,-0.02136 0.01282,-0.0085 0.02777,-0.0085 z m 1.202794,0.835332 q 0.01282,0 0.02136,0.01068 0.0085,0.0085 0.0085,0.01923 v 0.309778 q 0,0.01282 -0.0085,0.02136 -0.0085,0.0085 -0.02136,0.0085 h -0.99129 q -0.01282,0 -0.02136,-0.0085 -0.0085,-0.0085 -0.0085,-0.02136 0,-0.06837 0,-0.151685 0,-0.08332 0,-0.113229 0,-0.0085 0.0021,-0.01709 0.0043,-0.0085 0.0064,-0.01282 l 0.0021,-0.0043 0.457189,-0.506327 h -0.403779 q -0.01068,0 -0.02136,-0.0085 -0.0085,-0.0085 -0.0085,-0.02136 v -0.309778 q 0,-0.01068 0.0085,-0.01923 0.01068,-0.01068 0.02136,-0.01068 h 0.957107 q 0.01282,0 0.02136,0.01068 0.0085,0.0085 0.0085,0.01923 0,0.237141 0,0.264914 0,0.0085 -0.0064,0.02136 -0.0043,0.01068 -0.0085,0.01709 l -0.0043,0.0064 -0.433689,0.495645 z m 1.296794,0.339688 q 0.0043,0.02991 -0.03205,0.02991 H 31.47446 q -0.02777,0 -0.03632,-0.02991 l -0.02777,-0.123912 q -0.03632,0.04273 -0.05982,0.06409 -0.02136,0.02136 -0.06196,0.05127 -0.04059,0.02991 -0.09186,0.04273 -0.04914,0.01282 -0.113229,0.01282 -0.08973,0 -0.155957,-0.01495 -0.06623,-0.01495 -0.123911,-0.05127 -0.05768,-0.03846 -0.08759,-0.108956 -0.02991,-0.07264 -0.02991,-0.179458 0,-0.08118 0.01495,-0.141002 0.01709,-0.06196 0.04273,-0.104684 0.02564,-0.04486 0.07264,-0.07477 0.04914,-0.02991 0.09827,-0.047 0.04914,-0.01923 0.126048,-0.02777 0.07905,-0.0085 0.149548,-0.01068 0.0705,-0.0043 0.177321,-0.0043 v -0.04486 q 0,-0.05982 -0.03418,-0.07477 -0.03205,-0.01496 -0.155957,-0.01496 -0.07264,0 -0.192276,0.02136 -0.117502,0.01923 -0.177322,0.04486 -0.01923,0.0085 -0.03418,0 -0.01495,-0.01068 -0.01495,-0.02991 V 14.72567 q 0,-0.04059 0.03418,-0.05982 0.06409,-0.03418 0.188003,-0.05982 0.123911,-0.02777 0.249959,-0.02777 0.175184,0 0.294823,0.04059 0.119638,0.03845 0.181594,0.113229 0.06409,0.07477 0.08759,0.162366 0.02564,0.08546 0.02564,0.198686 v 0.416598 q 0,0.198685 0.0085,0.256368 z M 31.36764,15.364453 v -0.06836 q -0.13032,0.0021 -0.198685,0.02777 -0.06837,0.02564 -0.06837,0.09827 0,0.05127 0.02136,0.07477 0.02136,0.02136 0.07691,0.02136 0.136729,0 0.164502,-0.094 0.0043,-0.02777 0.0043,-0.05982 z m 1.809533,-0.779786 q 0.01923,0 0.03418,0.01496 0.01495,0.01282 0.01495,0.03205 v 0.175185 q 0,0.0235 -0.01068,0.03205 -0.0085,0.0064 -0.02991,0.01282 -0.0064,0.0021 -0.0085,0.0043 -0.0021,0 -0.0064,0.0021 -0.0043,0 -0.01282,0.0021 -0.0085,0.0021 -0.01496,0.0043 -0.0064,0.0021 -0.0064,0.0021 0.04273,0.07477 0.03632,0.241413 -0.01282,0.356779 -0.585373,0.356779 -0.128184,0 -0.198685,-0.02136 -0.01495,0.0085 -0.01068,0.03632 0.0043,0.02564 0.02564,0.02991 0.365325,0.06409 0.378143,0.06836 0.01923,0.0021 0.05982,0.01068 0.04059,0.0064 0.06623,0.01282 0.02777,0.0043 0.06837,0.01495 0.04059,0.01068 0.06836,0.02564 0.02777,0.01282 0.05768,0.03632 0.02991,0.0235 0.04914,0.05341 0.01923,0.02777 0.02991,0.0705 0.01282,0.04273 0.01282,0.094 -0.0043,0 0,0.01282 0.0043,0.01495 -0.0043,0.03846 -0.0064,0.02564 -0.01282,0.05555 -0.0043,0.03205 -0.02777,0.06623 -0.02136,0.03632 -0.04914,0.0705 -0.02777,0.03418 -0.07905,0.06623 -0.04914,0.03205 -0.113229,0.05555 -0.06196,0.0235 -0.153821,0.03846 -0.09186,0.01495 -0.200822,0.01495 -0.06836,0 -0.138866,-0.01068 -0.0705,-0.01068 -0.151684,-0.03846 -0.07905,-0.02564 -0.141002,-0.06623 -0.06196,-0.04059 -0.102548,-0.111093 -0.03845,-0.06837 -0.03845,-0.153821 -0.0021,-0.0064 -0.0021,-0.01709 0,-0.01068 0.0021,-0.04273 0.0043,-0.02991 0.01495,-0.05768 0.01068,-0.02777 0.03632,-0.06196 0.02777,-0.03632 0.06623,-0.06196 -0.0043,-0.0021 -0.01282,-0.0043 -0.0064,-0.0021 -0.02564,-0.01495 -0.01709,-0.01495 -0.03205,-0.03205 -0.01282,-0.01923 -0.0235,-0.05341 -0.01068,-0.03632 -0.01068,-0.08118 0,-0.06409 0.02991,-0.119638 0.02991,-0.05768 0.07477,-0.08759 -0.04273,-0.03846 -0.06837,-0.108956 -0.0235,-0.0705 -0.02564,-0.121775 l -0.0021,-0.05127 q -0.0021,-0.0085 -0.0021,-0.0235 0.0021,-0.01709 0.01068,-0.06196 0.01068,-0.04486 0.02777,-0.08546 0.01923,-0.04059 0.05982,-0.08973 0.04059,-0.05127 0.09827,-0.08759 0.05768,-0.03632 0.15382,-0.05982 0.09614,-0.02564 0.215777,-0.02564 z m -0.760558,1.28825 v 0.05341 q 0,0.03418 0.03632,0.05982 0.03632,0.02777 0.10041,0.02777 0.134594,0 0.134594,-0.08973 v -0.03418 q 0,-0.01282 -0.05982,-0.03418 -0.05982,-0.01923 -0.119638,-0.03418 l -0.05982,-0.01496 q -0.03205,0.02136 -0.03205,0.06623 z m 0.29055,-0.848151 v -0.0064 q 0,-0.117502 -0.117502,-0.117502 -0.115365,0 -0.115365,0.117502 v 0.0064 q 0,0.111093 0.111092,0.111093 0.121775,0 0.121775,-0.111093 z m 1.219886,-0.448644 q 0.0064,0 0.01923,0 0.01282,0 0.04914,0.0021 0.03846,0.0021 0.07477,0.0085 0.03632,0.0064 0.08546,0.0235 0.05127,0.01496 0.094,0.03846 0.04486,0.0235 0.08973,0.06409 0.04486,0.03846 0.07691,0.08973 0.03418,0.04914 0.05555,0.121775 0.0235,0.07264 0.02777,0.16023 v 0.185867 q 0.0021,0.04059 -0.04487,0.04059 h -0.64092 q 0,0.121775 0.123912,0.149548 0.126047,0.02777 0.476417,0.0043 0.01282,0 0.02136,0.0085 0.01068,0.0085 0.01068,0.02136 v 0.222185 q 0,0.03205 -0.03845,0.04273 -0.132457,0.03632 -0.207231,0.04273 -0.07477,0.0085 -0.228595,0.0085 0,-0.0043 -0.01923,-0.0021 -0.01923,0.0043 -0.05555,-0.0021 -0.03418,-0.0043 -0.07691,-0.0085 -0.04273,-0.0043 -0.094,-0.02136 -0.04914,-0.01709 -0.09827,-0.03846 -0.047,-0.02136 -0.094,-0.06195 -0.04486,-0.04059 -0.08118,-0.08759 -0.03632,-0.04914 -0.05982,-0.119638 -0.02136,-0.07264 -0.02564,-0.158094 v -0.226458 q 0,-0.02991 0.0043,-0.06196 0.0043,-0.03205 0.01709,-0.08332 0.01496,-0.05341 0.03632,-0.09828 0.0235,-0.047 0.06623,-0.09614 0.04273,-0.05127 0.09827,-0.08546 0.05768,-0.03632 0.145276,-0.05982 0.08759,-0.0235 0.192276,-0.0235 z m 0.173048,0.508463 q 0.0021,-0.01282 0.0021,-0.02777 -0.0021,-0.04914 -0.01709,-0.08332 -0.01496,-0.03418 -0.03632,-0.047 -0.02136,-0.01495 -0.04273,-0.02136 -0.02136,-0.0085 -0.03632,-0.0064 h -0.01496 q 0,0.0021 -0.01496,0 -0.01282,-0.0043 -0.03632,0.0064 -0.02136,0.0085 -0.04273,0.02136 -0.01923,0.01282 -0.03632,0.04914 -0.01495,0.03418 -0.01495,0.08332 0,0.01496 0,0.02564 z m 1.954805,-0.508463 q 0.175185,0 0.26705,0.13032 0.094,0.128184 0.094,0.354643 v 0.707148 q 0,0.01068 -0.01282,0.01923 -0.01068,0.0085 -0.02564,0.0085 h -0.384552 q -0.01709,0 -0.02777,-0.0085 -0.01068,-0.0085 -0.01068,-0.01923 v -0.734922 q 0,-0.03632 -0.02777,-0.05555 -0.02564,-0.02136 -0.0705,-0.02136 -0.04273,0 -0.06623,0.01923 -0.0235,0.01923 -0.02564,0.03846 l -0.0021,0.01923 v 0.734922 q 0,0.01068 -0.01282,0.01923 -0.01068,0.0085 -0.02564,0.0085 h -0.386689 q -0.01495,0 -0.02777,-0.0085 -0.01068,-0.0085 -0.01068,-0.01923 v -0.737058 q 0,-0.07477 -0.09614,-0.07477 -0.05341,0 -0.07477,0.0235 -0.01923,0.02136 -0.02136,0.047 v 0.741331 q 0,0.01068 -0.01068,0.01923 -0.01068,0.0085 -0.02777,0.0085 h -0.384552 q -0.01496,0 -0.02777,-0.0085 -0.01068,-0.0085 -0.01068,-0.01923 v -1.147247 q 0,-0.01282 0.01068,-0.02136 0.01282,-0.0085 0.02777,-0.0085 h 0.286278 l 0.138866,0.07905 q 0.132456,-0.094 0.29055,-0.094 0.05127,0 0.09827,0.01496 0.04914,0.01495 0.08118,0.03632 0.03418,0.01923 0.05982,0.04273 0.02777,0.02136 0.03845,0.03418 0.01282,0.01282 0.01496,0.01709 0.0043,-0.0021 0.0235,-0.01923 0.02136,-0.01709 0.03845,-0.02991 0.01923,-0.01282 0.05341,-0.03205 0.03418,-0.01923 0.06623,-0.03205 0.03418,-0.01282 0.08118,-0.02136 0.04914,-0.01068 0.100411,-0.01068 z m 2.249626,0.444371 q 0.08759,0.04059 0.138866,0.13032 0.05127,0.08973 0.05127,0.209368 0,0.299096 -0.153821,0.37387 -0.08973,0.04273 -0.200822,0.05982 -0.111092,0.01709 -0.358915,0.01709 -0.420871,0 -0.570419,-0.06623 -0.02777,-0.01068 -0.02777,-0.01709 V 14.32189 q 0,-0.01923 0.05127,-0.03418 0.151684,-0.047 0.546918,-0.047 0.08759,0 0.126048,0.0021 0.03845,0 0.10682,0.0043 0.06837,0.0043 0.104683,0.01496 0.03846,0.01068 0.08759,0.02991 0.05127,0.01923 0.08973,0.05127 0.03845,0.02991 0.07477,0.07264 0.04914,0.05768 0.06409,0.177321 0.01495,0.117502 -0.01496,0.222186 -0.01923,0.06409 -0.06196,0.111092 -0.04059,0.04486 -0.07264,0.05768 l -0.03418,0.01282 z m -0.668693,-0.168776 0.02136,0.0021 q 0.07691,0.0043 0.134593,0.0043 0.07264,0 0.102547,-0.0043 0.03205,-0.0043 0.06196,-0.01923 0.06196,-0.03205 0.06196,-0.123911 0,-0.03846 -0.01496,-0.06409 -0.01282,-0.02777 -0.02991,-0.04059 -0.01709,-0.01282 -0.05341,-0.01923 -0.03632,-0.0064 -0.06195,-0.0064 -0.02564,-0.0021 -0.07691,-0.0021 -0.047,0 -0.121775,0.0021 h -0.0235 z m 0.32046,0.598192 q 0.06196,-0.03205 0.06196,-0.123911 0,-0.03846 -0.01496,-0.06409 -0.01282,-0.02777 -0.02991,-0.04059 -0.01496,-0.01496 -0.05341,-0.02136 -0.03632,-0.0064 -0.06195,-0.0064 -0.02564,-0.0021 -0.07691,-0.0021 -0.047,0 -0.121775,0.0043 h -0.0235 v 0.271323 h 0.02136 q 0.07691,0.0064 0.134593,0.0064 0.07264,0 0.102547,-0.0043 0.03205,-0.0043 0.06196,-0.01923 z m 1.792438,0.316188 q 0.0043,0.02991 -0.03205,0.02991 h -0.322596 q -0.02777,0 -0.03632,-0.02991 l -0.02777,-0.123912 q -0.03632,0.04273 -0.05982,0.06409 -0.02136,0.02136 -0.06196,0.05127 -0.04059,0.02991 -0.09187,0.04273 -0.04914,0.01282 -0.113229,0.01282 -0.08973,0 -0.155957,-0.01495 -0.06623,-0.01495 -0.123911,-0.05127 -0.05768,-0.03846 -0.08759,-0.108956 -0.02991,-0.07264 -0.02991,-0.179458 0,-0.08118 0.01495,-0.141002 0.01709,-0.06196 0.04273,-0.104684 0.02564,-0.04486 0.07264,-0.07477 0.04914,-0.02991 0.09827,-0.047 0.04914,-0.01923 0.126048,-0.02777 0.07905,-0.0085 0.149548,-0.01068 0.0705,-0.0043 0.177321,-0.0043 v -0.04486 q 0,-0.05982 -0.03418,-0.07477 -0.03205,-0.01496 -0.155957,-0.01496 -0.07264,0 -0.192276,0.02136 -0.117502,0.01923 -0.177322,0.04486 -0.01923,0.0085 -0.03418,0 -0.01496,-0.01068 -0.01496,-0.02991 V 14.72567 q 0,-0.04059 0.03418,-0.05982 0.06409,-0.03418 0.188003,-0.05982 0.123911,-0.02777 0.249959,-0.02777 0.175184,0 0.294823,0.04059 0.119638,0.03845 0.181594,0.113229 0.06409,0.07477 0.08759,0.162366 0.02564,0.08546 0.02564,0.198686 v 0.416598 q 0,0.198685 0.0085,0.256368 z m -0.461462,-0.401644 v -0.06836 q -0.13032,0.0021 -0.198685,0.02777 -0.06837,0.02564 -0.06837,0.09827 0,0.05127 0.02136,0.07477 0.02136,0.02136 0.07691,0.02136 0.136729,0 0.164502,-0.094 0.0043,-0.02777 0.0043,-0.05982 z m 1.358753,-0.258504 q 0.01923,0.0085 0.06623,0.02991 0.047,0.01923 0.06196,0.02564 0.01495,0.0064 0.04914,0.02564 0.03418,0.01709 0.04486,0.02991 0.01282,0.01282 0.03418,0.03632 0.02136,0.0235 0.02777,0.047 0.0064,0.0235 0.01282,0.05768 0.0085,0.03418 0.0085,0.07477 0.0043,0.194413 -0.130321,0.290551 -0.134593,0.09614 -0.42728,0.08759 -0.166639,-0.0064 -0.412325,-0.05341 -0.01923,-0.0043 -0.03205,-0.01068 -0.01068,-0.0064 -0.01709,-0.01282 -0.0064,-0.0064 -0.01068,-0.01923 -0.0021,-0.01282 -0.0043,-0.01923 0,-0.0064 0,-0.0235 0,-0.01709 0,-0.0235 v -0.196549 q 0,-0.01495 0.01068,-0.0235 0.01068,-0.0085 0.0235,-0.0064 0.294823,0.04059 0.472144,0.047 0.04914,0.0021 0.05768,-0.02564 0.0085,-0.02777 -0.02777,-0.04273 -0.175185,-0.0705 -0.258505,-0.10682 -0.0085,-0.0043 -0.02777,-0.01282 -0.06409,-0.02777 -0.094,-0.04273 -0.02991,-0.01495 -0.0705,-0.04273 -0.04059,-0.02777 -0.05768,-0.05555 -0.01709,-0.02991 -0.03205,-0.07691 -0.01282,-0.047 -0.01282,-0.108956 -0.0021,-0.194413 0.13032,-0.288414 0.134594,-0.09614 0.42728,-0.08759 0.170912,0.0043 0.382416,0.05127 0.01709,0.0021 0.02777,0.0064 0.01068,0.0043 0.01709,0.01068 0.0085,0.0064 0.01068,0.01068 0.0043,0.0021 0.0064,0.01496 0.0021,0.01068 0.0021,0.01496 0,0.0043 0,0.0235 0,0.01709 0,0.02564 v 0.196549 q 0,0.01282 -0.01068,0.02136 -0.01068,0.0085 -0.0235,0.0085 l -0.459326,-0.04486 q -0.05555,-0.0021 -0.06837,0.01923 -0.0085,0.01282 -0.0021,0.02991 0.0064,0.01709 0.02777,0.0235 0.20723,0.08546 0.277732,0.115366 z m 0.972061,-0.529827 q 0.0064,0 0.01923,0 0.01282,0 0.04914,0.0021 0.03845,0.0021 0.07477,0.0085 0.03632,0.0064 0.08546,0.0235 0.05127,0.01496 0.094,0.03846 0.04487,0.0235 0.08973,0.06409 0.04486,0.03846 0.07691,0.08973 0.03418,0.04914 0.05555,0.121775 0.0235,0.07264 0.02777,0.16023 v 0.185867 q 0.0021,0.04059 -0.04486,0.04059 h -0.64092 q 0,0.121775 0.123911,0.149548 0.126047,0.02777 0.476417,0.0043 0.01282,0 0.02136,0.0085 0.01068,0.0085 0.01068,0.02136 v 0.222185 q 0,0.03205 -0.03845,0.04273 -0.132457,0.03632 -0.207231,0.04273 -0.07477,0.0085 -0.228595,0.0085 0,-0.0043 -0.01923,-0.0021 -0.01923,0.0043 -0.05555,-0.0021 -0.03418,-0.0043 -0.07691,-0.0085 -0.04273,-0.0043 -0.094,-0.02136 -0.04914,-0.01709 -0.09827,-0.03846 -0.047,-0.02136 -0.094,-0.06195 -0.04486,-0.04059 -0.08118,-0.08759 -0.03632,-0.04914 -0.05982,-0.119638 -0.02136,-0.07264 -0.02564,-0.158094 v -0.226458 q 0,-0.02991 0.0043,-0.06196 0.0043,-0.03205 0.01709,-0.08332 0.01496,-0.05341 0.03632,-0.09828 0.0235,-0.047 0.06623,-0.09614 0.04273,-0.05127 0.09828,-0.08546 0.05768,-0.03632 0.145275,-0.05982 0.08759,-0.0235 0.192276,-0.0235 z m 0.173048,0.508463 q 0.0021,-0.01282 0.0021,-0.02777 -0.0021,-0.04914 -0.01709,-0.08332 -0.01495,-0.03418 -0.03632,-0.047 -0.02136,-0.01495 -0.04273,-0.02136 -0.02136,-0.0085 -0.03632,-0.0064 h -0.01496 q 0,0.0021 -0.01496,0 -0.01282,-0.0043 -0.03632,0.0064 -0.02136,0.0085 -0.04273,0.02136 -0.01923,0.01282 -0.03632,0.04914 -0.01496,0.03418 -0.01496,0.08332 0,0.01496 0,0.02564 z m 1.657845,0.681512 q 0.0043,0.02991 -0.03205,0.02991 h -0.322596 q -0.02777,0 -0.03632,-0.02991 l -0.02777,-0.123912 q -0.03632,0.04273 -0.05982,0.06409 -0.02136,0.02136 -0.06196,0.05127 -0.04059,0.02991 -0.09186,0.04273 -0.04914,0.01282 -0.113229,0.01282 -0.08973,0 -0.155957,-0.01495 -0.06623,-0.01495 -0.123912,-0.05127 -0.05768,-0.03846 -0.08759,-0.108956 -0.02991,-0.07264 -0.02991,-0.179458 0,-0.08118 0.01496,-0.141002 0.01709,-0.06196 0.04273,-0.104684 0.02564,-0.04486 0.07264,-0.07477 0.04914,-0.02991 0.09827,-0.047 0.04914,-0.01923 0.126048,-0.02777 0.07905,-0.0085 0.149548,-0.01068 0.0705,-0.0043 0.177321,-0.0043 v -0.04486 q 0,-0.05982 -0.03418,-0.07477 -0.03205,-0.01496 -0.155958,-0.01496 -0.07264,0 -0.192276,0.02136 -0.117502,0.01923 -0.177321,0.04486 -0.01923,0.0085 -0.03418,0 -0.01496,-0.01068 -0.01496,-0.02991 V 14.72567 q 0,-0.04059 0.03418,-0.05982 0.06409,-0.03418 0.188004,-0.05982 0.123911,-0.02777 0.249958,-0.02777 0.175185,0 0.294824,0.04059 0.119638,0.03845 0.181594,0.113229 0.06409,0.07477 0.08759,0.162366 0.02564,0.08546 0.02564,0.198686 v 0.416598 q 0,0.198685 0.0085,0.256368 z m -0.461462,-0.401644 v -0.06836 q -0.13032,0.0021 -0.198685,0.02777 -0.06837,0.02564 -0.06837,0.09827 0,0.05127 0.02136,0.07477 0.02136,0.02136 0.07691,0.02136 0.13673,0 0.164503,-0.094 0.0043,-0.02777 0.0043,-0.05982 z m 1.711259,-1.164338 q 0.01709,0 0.02777,0.0085 0.01068,0.0085 0.01068,0.01923 v 1.484798 q 0,0.03845 -0.05341,0.05127 -0.179458,0.047 -0.493509,0.047 -0.01282,0 -0.03418,0 -0.01923,0 -0.07905,-0.0085 -0.05768,-0.0064 -0.113229,-0.02136 -0.05341,-0.01495 -0.121775,-0.04914 -0.06623,-0.03632 -0.117502,-0.08332 -0.04914,-0.04914 -0.08546,-0.128184 -0.03632,-0.08118 -0.04059,-0.181594 h -0.0021 v -0.271323 h 0.0021 q 0.0021,-0.104684 0.03418,-0.188003 0.03205,-0.08546 0.07905,-0.134594 0.04914,-0.04914 0.10682,-0.08546 0.05768,-0.03632 0.113229,-0.05127 0.05555,-0.01495 0.102547,-0.02136 0.047,-0.0085 0.07477,-0.0085 h 0.02777 q 0.06409,0 0.138866,0.01282 v -0.363188 q 0,-0.01068 0.01068,-0.01923 0.01282,-0.0085 0.02777,-0.0085 z m -0.423008,1.262613 v -0.5341 q -0.119638,-0.0235 -0.168775,0.0064 -0.04914,0.02777 -0.04914,0.115366 v 0.288414 q 0,0.08973 0.04914,0.119638 0.04914,0.02777 0.168775,0.0043 z m 1.753984,0.303369 q 0.0043,0.02991 -0.03205,0.02991 H 45.67511 q -0.02777,0 -0.03632,-0.02991 l -0.02777,-0.123912 q -0.03632,0.04273 -0.05982,0.06409 -0.02136,0.02136 -0.06195,0.05127 -0.04059,0.02991 -0.09187,0.04273 -0.04914,0.01282 -0.113229,0.01282 -0.08973,0 -0.155957,-0.01495 -0.06623,-0.01495 -0.123911,-0.05127 -0.05768,-0.03846 -0.08759,-0.108956 -0.02991,-0.07264 -0.02991,-0.179458 0,-0.08118 0.01496,-0.141002 0.01709,-0.06196 0.04273,-0.104684 0.02564,-0.04486 0.07264,-0.07477 0.04914,-0.02991 0.09828,-0.047 0.04914,-0.01923 0.126047,-0.02777 0.07905,-0.0085 0.149548,-0.01068 0.0705,-0.0043 0.177321,-0.0043 v -0.04486 q 0,-0.05982 -0.03418,-0.07477 -0.03205,-0.01496 -0.155957,-0.01496 -0.07264,0 -0.192276,0.02136 -0.117502,0.01923 -0.177321,0.04486 -0.01923,0.0085 -0.03418,0 -0.01496,-0.01068 -0.01496,-0.02991 V 14.72567 q 0,-0.04059 0.03418,-0.05982 0.06409,-0.03418 0.188003,-0.05982 0.123911,-0.02777 0.249959,-0.02777 0.175185,0 0.294823,0.04059 0.119638,0.03845 0.181594,0.113229 0.06409,0.07477 0.08759,0.162366 0.02564,0.08546 0.02564,0.198686 v 0.416598 q 0,0.198685 0.0085,0.256368 z M 45.56829,15.364453 v -0.06836 q -0.13032,0.0021 -0.198685,0.02777 -0.06837,0.02564 -0.06837,0.09827 0,0.05127 0.02136,0.07477 0.02136,0.02136 0.07691,0.02136 0.136729,0 0.164503,-0.094 0.0043,-0.02777 0.0043,-0.05982 z"
         id="path1" /><path
         style="font-weight:normal;font-family:'Brandan Personal Use';-inkscape-font-specification:'Brandan Personal Use, Normal'"
         d="m 21.914071,17.298505 q 0.0064,0 0.01923,0 0.01282,0 0.04914,0.0021 0.03845,0.0021 0.07477,0.0085 0.03632,0.0064 0.08546,0.0235 0.05127,0.01496 0.094,0.03845 0.04486,0.0235 0.08973,0.06409 0.04487,0.03845 0.07691,0.08973 0.03418,0.04914 0.05555,0.121775 0.0235,0.07264 0.02777,0.16023 v 0.185867 q 0.0021,0.04059 -0.04486,0.04059 h -0.64092 q 0,0.121775 0.123911,0.149548 0.126048,0.02777 0.476417,0.0043 0.01282,0 0.02136,0.0085 0.01068,0.0085 0.01068,0.02136 v 0.222185 q 0,0.03205 -0.03846,0.04273 -0.132457,0.03632 -0.207231,0.04273 -0.07477,0.0085 -0.228595,0.0085 0,-0.0043 -0.01923,-0.0021 -0.01923,0.0043 -0.05555,-0.0021 -0.03418,-0.0043 -0.07691,-0.0085 -0.04273,-0.0043 -0.094,-0.02136 -0.04914,-0.01709 -0.09827,-0.03846 -0.047,-0.02136 -0.094,-0.06195 -0.04486,-0.04059 -0.08118,-0.08759 -0.03632,-0.04914 -0.05982,-0.119638 -0.02136,-0.07264 -0.02564,-0.158094 v -0.226458 q 0,-0.02991 0.0043,-0.06196 0.0043,-0.03205 0.01709,-0.08332 0.01496,-0.05341 0.03632,-0.09828 0.0235,-0.047 0.06623,-0.09614 0.04273,-0.05127 0.09827,-0.08546 0.05768,-0.03632 0.145275,-0.05982 0.08759,-0.0235 0.192276,-0.0235 z m 0.173048,0.508463 q 0.0021,-0.01282 0.0021,-0.02777 -0.0021,-0.04914 -0.01709,-0.08332 -0.01495,-0.03418 -0.03632,-0.047 -0.02136,-0.01496 -0.04273,-0.02136 -0.02136,-0.0085 -0.03632,-0.0064 h -0.01496 q 0,0.0021 -0.01496,0 -0.01282,-0.0043 -0.03632,0.0064 -0.02136,0.0085 -0.04273,0.02136 -0.01923,0.01282 -0.03632,0.04914 -0.01495,0.03418 -0.01495,0.08332 0,0.01495 0,0.02564 z m 1.954805,-0.508463 q 0.175185,0 0.26705,0.13032 0.094,0.128184 0.094,0.354642 v 0.707149 q 0,0.01068 -0.01282,0.01923 -0.01068,0.0085 -0.02564,0.0085 h -0.384552 q -0.01709,0 -0.02777,-0.0085 -0.01068,-0.0085 -0.01068,-0.01923 v -0.734922 q 0,-0.03632 -0.02777,-0.05555 -0.02564,-0.02136 -0.0705,-0.02136 -0.04273,0 -0.06623,0.01923 -0.0235,0.01923 -0.02564,0.03846 l -0.0021,0.01923 v 0.734922 q 0,0.01068 -0.01282,0.01923 -0.01068,0.0085 -0.02564,0.0085 h -0.386688 q -0.01496,0 -0.02777,-0.0085 -0.01068,-0.0085 -0.01068,-0.01923 v -0.737058 q 0,-0.07477 -0.09614,-0.07477 -0.05341,0 -0.07477,0.0235 -0.01923,0.02136 -0.02136,0.047 v 0.741331 q 0,0.01068 -0.01068,0.01923 -0.01068,0.0085 -0.02777,0.0085 h -0.384552 q -0.01495,0 -0.02777,-0.0085 -0.01068,-0.0085 -0.01068,-0.01923 v -1.147247 q 0,-0.01282 0.01068,-0.02136 0.01282,-0.0085 0.02777,-0.0085 h 0.286278 l 0.138866,0.07905 q 0.132457,-0.094 0.29055,-0.094 0.05127,0 0.09828,0.01495 0.04914,0.01495 0.08118,0.03632 0.03418,0.01923 0.05982,0.04273 0.02777,0.02136 0.03845,0.03418 0.01282,0.01282 0.01496,0.01709 0.0043,-0.0021 0.0235,-0.01923 0.02136,-0.01709 0.03845,-0.02991 0.01923,-0.01282 0.05341,-0.03205 0.03418,-0.01923 0.06623,-0.03205 0.03418,-0.01282 0.08118,-0.02136 0.04914,-0.01068 0.100411,-0.01068 z M 26.139867,17.04 q 0.288414,0.138866 0.288414,0.472145 v 0.02136 q 0,0.15382 -0.04059,0.273459 -0.03846,0.117502 -0.09827,0.18373 -0.05768,0.06409 -0.138866,0.104684 -0.08118,0.03845 -0.149548,0.05127 -0.06623,0.01068 -0.141003,0.01068 -0.153821,0 -0.207231,-0.01282 l -0.02777,-0.0043 v 0.35037 q 0,0.01068 -0.01282,0.01923 -0.01068,0.0085 -0.02564,0.0085 h -0.376006 q -0.01496,0 -0.02777,-0.0085 -0.01068,-0.0085 -0.01068,-0.01923 v -1.454889 q 0,-0.01709 0.04273,-0.02777 0.209368,-0.047 0.549055,-0.047 0.209367,0 0.376007,0.07905 z m -0.173049,0.484963 q 0,-0.02777 -0.0021,-0.04914 -0.0021,-0.02136 -0.01496,-0.05127 -0.01068,-0.03205 -0.03205,-0.05127 -0.01923,-0.01923 -0.06196,-0.03418 -0.04059,-0.01496 -0.09827,-0.01496 -0.04914,0 -0.113229,0.0085 l -0.01923,0.0021 v 0.429417 l 0.01923,0.0043 q 0.06196,0.0064 0.113229,0.0064 0.104684,0 0.147412,-0.02564 0.03846,-0.0235 0.04914,-0.06409 0.01282,-0.04059 0.01282,-0.13032 z m 1.356613,-0.226458 q 0.05555,-0.0021 0.05555,0.03846 v 0.301232 q 0,0.04059 -0.05768,0.03632 -0.100411,-0.0064 -0.200822,0.0705 -0.100411,0.07691 -0.111093,0.170912 v 0.574692 q 0,0.01068 -0.01068,0.01923 -0.01068,0.0085 -0.02777,0.0085 h -0.384552 q -0.01495,0 -0.02777,-0.0085 -0.01068,-0.0085 -0.01068,-0.01923 v -1.147247 q 0,-0.01282 0.01068,-0.02136 0.01282,-0.0085 0.02777,-0.0085 h 0.301232 q 0.02136,0 0.05127,0.03205 0.03205,0.02991 0.05127,0.06196 l 0.01923,0.02991 q 0.05341,-0.06409 0.145275,-0.09827 0.094,-0.03632 0.168776,-0.04059 z m 0.705013,0 q 0,0 0,0 0.0021,0 0.0043,0 0.02136,0 0.04486,0.0021 0.0235,0 0.08332,0.0085 0.06196,0.0064 0.113229,0.0235 0.05341,0.01496 0.115365,0.05127 0.06409,0.03418 0.108957,0.08546 0.04486,0.04914 0.07477,0.13032 0.02991,0.08118 0.02991,0.18373 v 0.264914 q 0,0.102547 -0.02991,0.185867 -0.02991,0.08118 -0.07477,0.13032 -0.04487,0.04914 -0.108957,0.08546 -0.06196,0.03418 -0.115365,0.05127 -0.05127,0.01496 -0.113229,0.0235 -0.05982,0.0085 -0.08332,0.0085 -0.0235,0 -0.04486,0 -0.0021,0 -0.0043,0 0,0 0,0 -0.0235,0 -0.047,0 -0.0235,0 -0.08546,-0.0085 -0.05982,-0.0085 -0.111093,-0.0235 -0.05127,-0.01709 -0.115365,-0.05127 -0.06409,-0.03632 -0.108957,-0.08546 -0.04273,-0.04914 -0.07477,-0.13032 -0.02991,-0.08332 -0.02991,-0.185867 v -0.264914 q 0,-0.102547 0.02991,-0.18373 0.03205,-0.08118 0.07477,-0.13032 0.04486,-0.05127 0.108957,-0.08546 0.06409,-0.03632 0.115365,-0.05127 0.05127,-0.01709 0.111093,-0.0235 0.06196,-0.0085 0.08546,-0.0085 0.0235,-0.0021 0.047,-0.0021 z m 0.113229,0.749876 v -0.264914 q 0,-0.06409 -0.02564,-0.09614 -0.02564,-0.03205 -0.08546,-0.03418 -0.06196,0.0021 -0.08759,0.03418 -0.02564,0.03205 -0.02564,0.09614 v 0.264914 q 0,0.06623 0.02564,0.09827 0.02564,0.02991 0.08759,0.03418 0.05982,-0.0043 0.08546,-0.03418 0.02564,-0.03205 0.02564,-0.09827 z m 1.036156,-0.734922 q 0.01709,0 0.02777,0.0085 0.01068,0.0085 0.01068,0.02136 v 1.160065 q 0,0.185867 -0.07477,0.299096 -0.08546,0.130321 -0.211503,0.173049 -0.123911,0.04273 -0.307642,0.04273 -0.02777,0 -0.04273,-0.01068 -0.01496,-0.01068 -0.01709,-0.02136 l -0.0021,-0.01068 v -0.247823 q 0,-0.01282 0.0021,-0.02136 0.0021,-0.0085 0.01068,-0.01282 0.0085,-0.0021 0.01496,-0.0043 0.0043,-0.0021 0.01923,-0.0043 0.01495,0 0.02136,0 0.07691,-0.01282 0.100411,-0.047 0.0235,-0.03418 0.02564,-0.123911 v -1.170747 q 0,-0.01282 0.01068,-0.02136 0.01282,-0.0085 0.02777,-0.0085 z m 0,-0.390961 q 0.01709,0 0.02777,0.0085 0.01068,0.0085 0.01068,0.01923 v 0.24355 q 0,0.01068 -0.01068,0.01923 -0.01068,0.0085 -0.02777,0.0085 h -0.384552 q -0.01496,0 -0.02777,-0.0085 -0.01068,-0.0085 -0.01068,-0.01923 v -0.24355 q 0,-0.01068 0.01068,-0.01923 0.01282,-0.0085 0.02777,-0.0085 z m 0.741332,0.376007 q 0.0064,0 0.01923,0 0.01282,0 0.04914,0.0021 0.03846,0.0021 0.07477,0.0085 0.03632,0.0064 0.08546,0.0235 0.05127,0.01496 0.094,0.03845 0.04487,0.0235 0.08973,0.06409 0.04486,0.03845 0.07691,0.08973 0.03418,0.04914 0.05555,0.121775 0.0235,0.07264 0.02777,0.16023 v 0.185867 q 0.0021,0.04059 -0.04486,0.04059 h -0.64092 q 0,0.121775 0.123911,0.149548 0.126047,0.02777 0.476417,0.0043 0.01282,0 0.02136,0.0085 0.01068,0.0085 0.01068,0.02136 v 0.222185 q 0,0.03205 -0.03845,0.04273 -0.132457,0.03632 -0.207231,0.04273 -0.07477,0.0085 -0.228595,0.0085 0,-0.0043 -0.01923,-0.0021 -0.01923,0.0043 -0.05555,-0.0021 -0.03418,-0.0043 -0.07691,-0.0085 -0.04273,-0.0043 -0.094,-0.02136 -0.04914,-0.01709 -0.09827,-0.03846 -0.047,-0.02136 -0.094,-0.06195 -0.04486,-0.04059 -0.08118,-0.08759 -0.03632,-0.04914 -0.05982,-0.119638 -0.02136,-0.07264 -0.02564,-0.158094 v -0.226458 q 0,-0.02991 0.0043,-0.06196 0.0043,-0.03205 0.01709,-0.08332 0.01496,-0.05341 0.03632,-0.09828 0.0235,-0.047 0.06623,-0.09614 0.04273,-0.05127 0.09828,-0.08546 0.05768,-0.03632 0.145275,-0.05982 0.08759,-0.0235 0.192276,-0.0235 z m 0.173048,0.508463 q 0.0021,-0.01282 0.0021,-0.02777 -0.0021,-0.04914 -0.01709,-0.08332 -0.01495,-0.03418 -0.03632,-0.047 -0.02136,-0.01496 -0.04273,-0.02136 -0.02136,-0.0085 -0.03632,-0.0064 h -0.01496 q 0,0.0021 -0.01496,0 -0.01282,-0.0043 -0.03632,0.0064 -0.02136,0.0085 -0.04273,0.02136 -0.01923,0.01282 -0.03632,0.04914 -0.01496,0.03418 -0.01496,0.08332 0,0.01495 0,0.02564 z m 1.247657,-0.143139 -0.162367,0.01068 v 0.444371 q 0,0.047 0.01068,0.06409 0.01282,0.01495 0.05127,0.01495 h 0.09827 q 0.01282,0 0.02136,0.0085 0.0085,0.0085 0.0085,0.02136 v 0.241413 q 0,0.03845 -0.04487,0.04486 -0.09186,0.01923 -0.254231,0.01923 -0.170912,0 -0.262777,-0.102547 -0.08973,-0.104684 -0.08973,-0.341824 v -0.425144 l -0.115366,-0.02991 q -0.02777,-0.0064 -0.02777,-0.03845 v -0.243549 q 0,-0.01496 0.0085,-0.02564 0.0085,-0.01282 0.01923,-0.01282 h 0.115366 v -0.196548 q 0,-0.01923 0.0085,-0.02564 0.0085,-0.0085 0.03418,-0.01282 l 0.369597,-0.047 q 0.04914,-0.0064 0.04914,0.04059 v 0.241413 h 0.162367 q 0.01068,0 0.01923,0.01282 0.0085,0.01068 0.0085,0.02564 v 0.273459 q 0,0.01709 -0.0085,0.02777 -0.0085,0.01068 -0.01923,0.01068 z m 0.715693,-0.365324 q 0,0 0,0 0.0021,0 0.0043,0 0.02136,0 0.04486,0.0021 0.0235,0 0.08332,0.0085 0.06196,0.0064 0.11323,0.0235 0.05341,0.01496 0.115365,0.05127 0.06409,0.03418 0.108957,0.08546 0.04486,0.04914 0.07477,0.13032 0.02991,0.08118 0.02991,0.18373 v 0.264914 q 0,0.102547 -0.02991,0.185867 -0.02991,0.08118 -0.07477,0.13032 -0.04487,0.04914 -0.108957,0.08546 -0.06195,0.03418 -0.115365,0.05127 -0.05127,0.01496 -0.11323,0.0235 -0.05982,0.0085 -0.08332,0.0085 -0.0235,0 -0.04486,0 -0.0021,0 -0.0043,0 0,0 0,0 -0.0235,0 -0.047,0 -0.0235,0 -0.08546,-0.0085 -0.05982,-0.0085 -0.111093,-0.0235 -0.05127,-0.01709 -0.115366,-0.05127 -0.06409,-0.03632 -0.108956,-0.08546 -0.04273,-0.04914 -0.07477,-0.13032 -0.02991,-0.08332 -0.02991,-0.185867 v -0.264914 q 0,-0.102547 0.02991,-0.18373 0.03205,-0.08118 0.07477,-0.13032 0.04486,-0.05127 0.108956,-0.08546 0.06409,-0.03632 0.115366,-0.05127 0.05127,-0.01709 0.111093,-0.0235 0.06196,-0.0085 0.08546,-0.0085 0.0235,-0.0021 0.047,-0.0021 z m 0.113229,0.749876 v -0.264914 q 0,-0.06409 -0.02564,-0.09614 -0.02564,-0.03205 -0.08546,-0.03418 -0.06196,0.0021 -0.08759,0.03418 -0.02564,0.03205 -0.02564,0.09614 v 0.264914 q 0,0.06623 0.02564,0.09827 0.02564,0.02991 0.08759,0.03418 0.05982,-0.0043 0.08546,-0.03418 0.02564,-0.03205 0.02564,-0.09827 z m 1.326706,-0.220049 q 0.01923,0.0085 0.06623,0.02991 0.047,0.01923 0.06196,0.02564 0.01496,0.0064 0.04914,0.02564 0.03418,0.01709 0.04486,0.02991 0.01282,0.01282 0.03418,0.03632 0.02136,0.0235 0.02777,0.047 0.0064,0.0235 0.01282,0.05768 0.0085,0.03418 0.0085,0.07477 0.0043,0.194412 -0.13032,0.29055 -0.134594,0.09614 -0.42728,0.08759 -0.166639,-0.0064 -0.412325,-0.05341 -0.01923,-0.0043 -0.03205,-0.01068 -0.01068,-0.0064 -0.01709,-0.01282 -0.0064,-0.0064 -0.01068,-0.01923 -0.0021,-0.01282 -0.0043,-0.01923 0,-0.0064 0,-0.0235 0,-0.01709 0,-0.0235 v -0.196548 q 0,-0.01496 0.01068,-0.0235 0.01068,-0.0085 0.0235,-0.0064 0.294823,0.04059 0.472144,0.047 0.04914,0.0021 0.05768,-0.02564 0.0085,-0.02777 -0.02777,-0.04273 -0.175185,-0.0705 -0.258504,-0.10682 -0.0085,-0.0043 -0.02777,-0.01282 -0.06409,-0.02777 -0.094,-0.04273 -0.02991,-0.01495 -0.0705,-0.04273 -0.04059,-0.02777 -0.05768,-0.05555 -0.01709,-0.02991 -0.03205,-0.07691 -0.01282,-0.047 -0.01282,-0.108957 -0.0021,-0.194412 0.130321,-0.288414 0.134593,-0.09614 0.42728,-0.08759 0.170912,0.0043 0.382415,0.05127 0.01709,0.0021 0.02777,0.0064 0.01068,0.0043 0.01709,0.01068 0.0085,0.0064 0.01068,0.01068 0.0043,0.0021 0.0064,0.01495 0.0021,0.01068 0.0021,0.01495 0,0.0043 0,0.0235 0,0.01709 0,0.02564 v 0.196548 q 0,0.01282 -0.01068,0.02136 -0.01068,0.0085 -0.0235,0.0085 l -0.459326,-0.04486 q -0.05555,-0.0021 -0.06837,0.01923 -0.0085,0.01282 -0.0021,0.02991 0.0064,0.01709 0.02777,0.0235 0.207231,0.08546 0.277732,0.115366 z"
         id="path2" /></g></g><style
     type="text/css"
     id="style1659">&#10;	.st0{fill:#FF6B81;}&#10;</style></svg>
