<?xml version="1.0" encoding="UTF-8" standalone="no"?>
<!-- Created with Inkscape (http://www.inkscape.org/) -->

<svg
   width="50mm"
   height="22mm"
   viewBox="0 0 50 22"
   version="1.1"
   id="svg5"
   xml:space="preserve"
   sodipodi:docname="white-logo.svg"
   inkscape:version="1.2.2 (732a01da63, 2022-12-09)"
   xmlns:inkscape="http://www.inkscape.org/namespaces/inkscape"
   xmlns:sodipodi="http://sodipodi.sourceforge.net/DTD/sodipodi-0.dtd"
   xmlns="http://www.w3.org/2000/svg"
   xmlns:svg="http://www.w3.org/2000/svg"><sodipodi:namedview
     id="namedview7"
     pagecolor="#ffffff"
     bordercolor="#000000"
     borderopacity="0.25"
     inkscape:showpageshadow="2"
     inkscape:pageopacity="0.0"
     inkscape:pagecheckerboard="0"
     inkscape:deskcolor="#d1d1d1"
     inkscape:document-units="mm"
     showgrid="false"
     inkscape:zoom="2.6053829"
     inkscape:cx="63.138512"
     inkscape:cy="77.53179"
     inkscape:window-width="1366"
     inkscape:window-height="697"
     inkscape:window-x="-8"
     inkscape:window-y="-8"
     inkscape:window-maximized="1"
     inkscape:current-layer="layer1" /><defs
     id="defs2" /><g
     inkscape:label="Camada 1"
     inkscape:groupmode="layer"
     id="layer1"><path
       style="fill:#ffffff;fill-opacity:1;stroke-width:0.0428567"
       d="M 11.13202,21.522942 C 10.71119,21.498106 10.277011,21.239344 10.026449,20.86404 9.8844584,20.651359 9.8784502,20.627065 9.7065381,19.570492 L 9.5313354,18.493698 9.3216714,18.358161 C 9.196813,18.277446 9.0396871,18.118125 8.9332075,17.964268 8.7605983,17.714859 8.7505073,17.684027 8.6418348,17.074073 L 8.529263,16.442237 8.2655457,16.795823 c -0.3484931,0.46725 -0.3696593,0.469562 -1.0891267,0.118942 l -0.5494677,-0.267773 -0.021807,0.339373 c -0.011994,0.186656 -0.030689,0.470288 -0.041546,0.630294 -0.030931,0.455877 -0.025228,0.452388 -0.9697434,0.593124 C 4.5961515,18.358444 4.6698837,18.39484 4.3757907,17.608506 4.2589619,17.296133 4.1572733,17.036036 4.1498178,17.030513 4.1423578,17.025013 3.9493073,17.196919 3.720807,17.412574 3.2802709,17.828348 3.1560108,17.909838 3.0124409,17.87713 2.9633279,17.86594 2.6288146,17.637123 2.269073,17.368644 1.71301,16.953648 1.6120745,16.860891 1.5954981,16.749644 1.5814441,16.655284 1.6516471,16.463568 1.8471934,16.062302 L 2.1183866,15.505816 1.8669364,15.492042 C 0.58517786,15.421821 0.6870267,15.499311 0.53499106,14.478936 0.38297499,13.458712 0.30839469,13.562264 1.5122254,13.122084 L 1.747239,13.03615 1.309633,12.562129 C 1.0689494,12.301418 0.86764865,12.058724 0.86229745,12.022811 c -0.005312,-0.03592 0.009608,-0.120832 0.0332516,-0.188708 0.0646579,-0.185641 0.92945755,-1.316334 1.02168315,-1.335809 0.1850757,-0.03909 0.2778605,-0.01118 0.7879109,0.236887 0.2944937,0.143232 0.5394381,0.255027 0.5443205,0.248435 0.00485,-0.0066 0.025256,-0.282085 0.045264,-0.612203 C 3.3341583,9.7211034 3.3736725,9.6111187 3.5955272,9.5342953 3.7236064,9.4899443 3.7322892,9.4742691 3.7103495,9.327031 3.6972931,9.2394287 3.6904619,8.9940063 3.6951776,8.7816592 3.7574591,5.9717673 5.5233544,3.5836366 8.193626,2.6981116 8.4378566,2.6171168 8.8166219,2.5359588 9.2470706,2.4723838 L 9.919175,2.373122 10.39168,1.8936253 c 0.47194,-0.4789236 0.578048,-0.5452367 0.76528,-0.4782713 0.04868,0.017409 0.326849,0.265996 0.618138,0.5524061 0.546262,0.5371092 0.650742,0.5979173 0.842078,0.4901041 0.189939,-0.1070267 0.215614,-0.2124486 0.210006,-0.8622526 -0.0074,-0.85415682 0.0069,-0.94545891 0.1625,-1.03832946 0.11095,-0.0662329 0.264133,-0.076214 1.225621,-0.0798672 0.99562,-0.003821 1.107669,0.003914 1.192983,0.0821784 0.119592,0.10968646 0.132913,0.20716544 0.138426,1.01286236 0.0049,0.7230106 0.03126,0.8142978 0.253072,0.8779884 0.213895,0.061415 0.299878,0.00643 0.834769,-0.5340143 0.750573,-0.7583367 0.64014,-0.7734984 1.658411,0.2276719 0.900082,0.8849648 0.931453,0.937364 0.721094,1.2044746 -0.06513,0.0827 -0.31604,0.3491268 -0.557579,0.5920573 -0.474993,0.4777307 -0.516195,0.5638671 -0.378602,0.791497 0.100421,0.1661321 0.192504,0.1833655 0.918812,0.1719651 0.7795,-0.012236 0.862279,0.00103 0.952768,0.1526088 0.06636,0.1111655 0.07631,0.2631135 0.07995,1.2203456 0.0035,0.9257913 -0.0075,1.1090608 -0.07167,1.1957489 -0.09492,0.1281603 -0.191129,0.1424413 -0.999977,0.1484439 -0.788329,0.00587 -0.751466,-3.345e-4 -0.858292,0.1438999 -0.16841,0.2273829 -0.106243,0.3462881 0.486024,0.9296047 0.440803,0.4341439 0.535964,0.5497333 0.555503,0.6747557 0.0296,0.1898109 0.01006,0.2145977 -0.866501,1.0959138 -0.555851,0.558865 -0.716127,0.697048 -0.8278,0.713688 -0.181725,0.02707 -0.21644,0.0035 -0.682132,-0.461647 -0.556619,-0.556068 -0.667082,-0.637209 -0.833678,-0.612386 -0.08239,0.01227 -0.17553,0.06531 -0.231924,0.13205 -0.08545,0.101132 -0.0939,0.179383 -0.09057,0.83909 0.0037,0.736662 -0.02828,0.913972 -0.178134,0.987331 -0.09077,0.04443 -2.225469,0.06524 -2.344018,0.02283 -0.166877,-0.05968 -0.201407,-0.228087 -0.203648,-0.993182 -0.0015,-0.520326 -0.01811,-0.75347 -0.058,-0.815662 -0.07166,-0.111681 -0.317616,-0.196215 -0.43228,-0.148569 -0.04878,0.02027 -0.316381,0.267161 -0.594675,0.548651 -0.278294,0.28149 -0.546065,0.528453 -0.595044,0.548804 -0.04898,0.02035 -0.141188,0.01877 -0.204908,-0.0035 C 10.894858,11.186913 9.5653558,9.9175879 9.4059868,9.7032316 9.3252995,9.5947082 9.2990337,9.4002582 9.3523723,9.3063793 9.3753726,9.2658958 9.6061068,9.0192711 9.865115,8.7583142 10.124124,8.4973581 10.355463,8.2506207 10.379201,8.2100096 10.448313,8.0917726 10.393692,7.8706858 10.270028,7.7681166 10.169556,7.6847826 10.085459,7.6763392 9.4012721,7.6809243 8.7041545,7.685584 8.634835,7.6783149 8.5318855,7.5895011 8.4703589,7.5364272 8.4162999,7.4680731 8.4117595,7.4375997 8.407193,7.4071252 8.4010701,6.9070438 8.3981066,6.3263077 8.392049,5.1470057 8.4097279,5.0607221 8.6696187,4.9990985 8.7533534,4.9792389 9.0965447,4.962231 9.4322572,4.9612898 10.200999,4.9591463 10.232871,4.9538343 10.340187,4.8088925 10.49901,4.5944514 10.443986,4.4917601 9.8536867,3.9009675 9.5579143,3.6049482 9.2961941,3.3079177 9.2720867,3.240901 L 9.2282576,3.1190518 8.8578518,3.2014073 C 7.2645646,3.5556532 5.8402334,4.6284859 5.038801,6.077986 3.9979124,7.9605723 4.099833,10.32341 5.2989127,12.108243 c 0.5367187,0.798907 1.4783772,1.610017 2.3695143,2.041012 0.5122125,0.24773 0.8190973,0.489416 1.0660444,0.83956 0.2903308,0.41166 0.3231304,0.512907 0.5117297,1.57961 0.1936533,1.095295 0.1980884,1.106266 0.5164733,1.277485 0.1260206,0.06777 0.1801607,0.0625 1.7346336,-0.16913 1.554472,-0.231621 1.6078,-0.242352 1.708589,-0.343922 0.254113,-0.256073 0.255451,-0.270689 0.123688,-1.35121 -0.102892,-0.843766 -0.113209,-1.028216 -0.07133,-1.275368 0.100387,-0.592432 0.32801,-1.001184 0.81993,-1.472384 0.180563,-0.172958 0.385788,-0.38175 0.456056,-0.463982 l 0.127757,-0.149512 0.25876,0.211499 0.258759,0.2115 -0.155542,0.174901 c -0.08555,0.0962 -0.266887,0.280319 -0.402973,0.409164 -0.321125,0.304031 -0.43481,0.444934 -0.554346,0.687072 -0.188013,0.380844 -0.192285,0.4963 -0.05853,1.582041 l 0.123448,1.001997 -0.09674,0.30247 c -0.05796,0.181206 -0.161304,0.378953 -0.257783,0.493241 l -0.161042,0.190774 0.146332,1.081096 c 0.143585,1.060794 0.144918,1.085784 0.0711,1.330621 -0.0961,0.318733 -0.333838,0.639361 -0.609949,0.822607 -0.20797,0.138026 -0.25159,0.149474 -1.063322,0.279102 -0.46555,0.07435 -0.928213,0.130348 -1.028142,0.124447 z m 1.829473,-1.021438 c 0.218388,-0.199773 0.284511,-0.394169 0.238685,-0.70172 l -0.04012,-0.269259 -1.356438,0.202114 -1.356438,0.202114 0.04012,0.269259 c 0.04582,0.30755 0.16575,0.474226 0.432893,0.601653 0.151114,0.07208 0.192352,0.06986 1.03501,-0.05569 0.842659,-0.125558 0.882751,-0.135463 1.006287,-0.248463 z m 0.04698,-1.988308 -0.05053,-0.339108 -1.356438,0.202114 -1.356437,0.202114 0.05053,0.339108 0.05053,0.339111 1.356439,-0.202115 1.356436,-0.202113 z M 5.9394131,17.020885 c 0.015041,-0.25843 0.048312,-0.522633 0.073931,-0.587117 0.069168,-0.174099 0.2811782,-0.350977 0.4860548,-0.405513 0.2123125,-0.05651 0.3334888,-0.02307 0.8473415,0.233887 L 7.7013897,16.439486 8.0215994,16.005038 8.3418091,15.57059 8.2260389,15.401432 C 8.0495426,15.143537 7.8673709,15.002769 7.3544856,14.727963 l -0.4696657,-0.251651 -0.050567,0.104903 c -0.027809,0.0577 -0.1434422,0.24066 -0.2569552,0.406589 -0.4579773,0.669447 -1.2180931,0.985963 -2.0134194,0.838403 -1.471862,-0.273084 -2.1600432,-1.994797 -1.2749833,-3.189793 0.2290856,-0.309305 0.6412087,-0.625808 0.9430881,-0.72427 0.1450442,-0.0473 0.1616103,-0.06559 0.1283317,-0.141653 -0.035842,-0.08192 -0.2819125,-0.699898 -0.3688504,-0.926328 -0.033624,-0.08757 -0.04436,-0.06789 -0.073921,0.135449 -0.043894,0.301985 -0.2379017,0.544367 -0.4998437,0.624468 -0.2361861,0.07222 -0.3464783,0.04657 -0.8476855,-0.197164 l -0.4190241,-0.203771 -0.2668291,0.360268 -0.2668282,0.360268 0.3393433,0.36647 c 0.3880977,0.41912 0.45957,0.571802 0.3981468,0.850541 -0.079103,0.358953 -0.218057,0.464409 -0.967421,0.734183 l -0.2364619,0.08513 0.062263,0.417875 0.062263,0.417877 0.2510066,0.01249 c 0.7954605,0.03959 0.9591268,0.09995 1.1394356,0.420253 0.1402736,0.249179 0.1160562,0.419954 -0.132231,0.932453 l -0.2169406,0.447793 0.3584434,0.265478 0.3584435,0.265477 0.3628682,-0.329564 c 0.1995767,-0.18126 0.405265,-0.350319 0.4570836,-0.375686 0.1732979,-0.08484 0.4528871,-0.05293 0.6568746,0.07497 0.2011684,0.126132 0.1922787,0.110464 0.458283,0.807749 l 0.1133937,0.297244 0.4149637,-0.06183 0.4149637,-0.06183 z M 5.6974183,14.962467 C 5.9240399,14.804211 6.1711697,14.48427 6.2389216,14.261423 l 0.048824,-0.160588 -0.396062,-0.355292 C 5.5116511,13.404633 5.0761009,12.921738 4.8669272,12.609395 4.7822512,12.482951 4.7479567,12.464636 4.6290655,12.482351 c -0.3861528,0.05754 -0.8494123,0.475892 -0.9984928,0.901705 -0.072384,0.206757 -0.074965,0.281414 -0.021994,0.636904 0.052804,0.354383 0.077407,0.426422 0.2050564,0.600479 0.1439045,0.196217 0.4301235,0.417439 0.6358398,0.491448 0.3888638,0.139898 0.9247028,0.07531 1.2479469,-0.15042 z m 9.2435337,-3.680816 c 0.0017,-0.0777 0.0024,-0.344478 0.0015,-0.59282 -0.0017,-0.466462 0.05021,-0.667983 0.231656,-0.89934 0.242963,-0.3098027 0.667162,-0.4377449 1.058256,-0.3191808 0.255813,0.077556 0.396463,0.1815082 0.846625,0.6257538 l 0.314345,0.310213 0.478476,-0.4855578 C 18.134963,9.6536627 18.346625,9.425332 18.34216,9.4133165 18.337686,9.4013038 18.155193,9.213355 17.936602,8.9956567 17.666114,8.7262704 17.511958,8.5357913 17.453979,8.3993163 17.25852,7.9392141 17.382741,7.4592011 17.769857,7.1786939 c 0.246485,-0.1786025 0.467702,-0.2227801 1.099736,-0.219619 0.226568,0.00112 0.432695,-6.831e-4 0.458061,-0.00401 0.04548,-0.00596 0.05986,-1.3407866 0.0148,-1.3741584 -0.01219,-0.00904 -0.282344,-0.015731 -0.600332,-0.014874 -0.659932,0.00177 -0.873399,-0.061359 -1.141923,-0.3376313 -0.132726,-0.136558 -0.168304,-0.2105 -0.219016,-0.4551834 -0.05209,-0.2513869 -0.04951,-0.3267864 0.0182,-0.5404372 0.06681,-0.2106602 0.141106,-0.3119853 0.490164,-0.6684632 0.226282,-0.2310921 0.409262,-0.434951 0.406622,-0.4530213 -0.0027,-0.01807 -0.218768,-0.2437003 -0.480282,-0.501401 L 17.340406,2.1413506 16.987053,2.4998369 c -0.498609,0.5058538 -0.60844,0.5783167 -0.946533,0.6244953 -0.45211,0.06175 -0.76029,-0.089084 -1.003255,-0.4910351 -0.11488,-0.190055 -0.152491,-0.4462945 -0.151747,-1.0338049 3.15e-4,-0.2477514 -0.0053,-0.4540539 -0.01243,-0.4584508 -0.03636,-0.022357 -1.345271,0.00429 -1.362638,0.027762 -0.01117,0.01507 -0.01946,0.2729566 -0.01844,0.5730793 0.0021,0.6097865 -0.03634,0.7868652 -0.224766,1.0364926 -0.17161,0.2273382 -0.333182,0.320534 -0.633207,0.3652382 -0.424478,0.063251 -0.661238,-0.047333 -1.170787,-0.5468154 L 11.03557,2.1775704 10.580981,2.6370491 c -0.250024,0.2527139 -0.468772,0.4764511 -0.486104,0.4971924 -0.01733,0.020745 0.138481,0.2043062 0.346251,0.40792 0.444946,0.4360451 0.477742,0.477494 0.572947,0.7241411 0.158099,0.4095864 0.01032,0.8877709 -0.35429,1.146385 -0.241536,0.1713221 -0.463504,0.2126592 -1.1273257,0.2099436 -0.2478558,-0.00103 -0.4550697,0.0041 -0.4604758,0.011435 -0.032683,0.044146 0.00401,1.345301 0.038592,1.3679061 0.023075,0.015088 0.2834829,0.024724 0.5786849,0.021407 0.5996226,-0.00671 0.7884896,0.038498 1.0464816,0.2506377 0.228878,0.1881967 0.325544,0.3852292 0.343691,0.7005303 0.02244,0.3899961 -0.08151,0.5879251 -0.564069,1.0740041 l -0.416642,0.4196793 0.119423,0.1176955 c 0.06568,0.064732 0.286291,0.2829405 0.490241,0.4849078 0.20395,0.201967 0.378952,0.366001 0.388893,0.364519 0.0099,-0.0015 0.187206,-0.175475 0.39392,-0.386652 0.448289,-0.4579678 0.569194,-0.5367922 0.898664,-0.5858839 0.300293,-0.044742 0.511897,0.00205 0.725662,0.1603299 0.344569,0.2552022 0.432131,0.526072 0.432482,1.337845 1.09e-4,0.253057 0.0092,0.4668 0.02029,0.474986 0.02698,0.01998 1.060565,0.02207 1.232994,0.0025 0.12211,-0.01386 0.136877,-0.03045 0.139671,-0.156787 z M 13.83991,8.9724794 C 12.630596,8.8020361 11.732204,7.9122466 11.552634,6.7071065 c -0.07976,-0.5353329 -0.06319,-0.794824 0.0797,-1.24778 0.228278,-0.7236322 0.836621,-1.3796233 1.562885,-1.6852957 1.547591,-0.6513547 3.447834,0.4238404 3.699096,2.0930219 0.113239,0.7522782 -0.0471,1.3939314 -0.506737,2.0278729 -0.231069,0.3186934 -0.353172,0.4416227 -0.621683,0.6258773 -0.396063,0.2717824 -0.637754,0.3614489 -1.18608,0.4400291 -0.292231,0.041881 -0.501973,0.04518 -0.739903,0.011649 z m 1.184551,-0.7947736 c 1.02905,-0.4770281 1.529467,-1.768394 1.062383,-2.7415632 -0.561842,-1.1705977 -1.983733,-1.5519938 -3.04719,-0.8173517 -0.924021,0.6383197 -1.153307,1.9414103 -0.503258,2.8601626 0.333397,0.471209 0.995366,0.8377538 1.579726,0.874722 0.211984,0.013411 0.706446,-0.082374 0.908339,-0.1759697 z m 0.859148,8.6938522 -0.17685,-1.186884 0.339111,-0.05053 0.339109,-0.05053 0.176849,1.186882 0.176851,1.186883 -0.339111,0.05053 -0.33911,0.05053 z m 2.387824,-1.136622 c -0.589752,-0.362037 -1.080392,-0.674237 -1.090311,-0.693782 -0.02165,-0.04265 0.257866,-0.524513 0.308641,-0.532078 0.04653,-0.0069 2.22485,1.31996 2.23063,1.358758 0.0083,0.05579 -0.284657,0.517783 -0.330746,0.521572 -0.02527,0.0021 -0.528463,-0.292434 -1.118214,-0.65447 z m -7.286942,0.826691 -0.07579,-0.508664 0.339109,-0.05053 0.33911,-0.05053 0.07579,0.508665 0.0758,0.508664 -0.339109,0.05053 -0.33911,0.05053 z M 10.763345,15.153864 C 10.68769,14.858647 10.491524,14.497133 10.280201,14.26346 9.9546781,13.903509 9.6723723,13.737119 9.061844,13.545368 8.7493265,13.447215 8.3404596,13.293902 8.1532516,13.204675 7.0355853,12.671965 6.1357373,11.684684 5.674488,10.485063 5.5342898,10.120432 5.3932949,9.2432972 5.4058052,8.8135698 5.4364101,7.7623162 5.8126237,6.7226475 6.4616598,5.8957108 6.7291767,5.554868 7.0304876,5.2472497 7.06726,5.2774334 7.077,5.2854434 7.1741115,5.3948764 7.2830645,5.5206537 L 7.4811603,5.7493395 7.3354647,5.902815 C 6.8129124,6.4532668 6.4860458,6.998221 6.2783101,7.6653125 5.7435447,9.3825718 6.3140126,11.107621 7.77434,12.189197 c 0.4633463,0.343173 0.7793119,0.494238 1.5047847,0.719447 0.4670152,0.144977 0.6422692,0.224513 0.9182933,0.41675 0.645559,0.449599 1.033095,0.999417 1.233908,1.750604 l 0.05292,0.197931 -0.332368,0.04952 -0.332368,0.04952 z m 6.624372,-2.146128 -0.05053,-0.339109 1.186882,-0.17685 1.186885,-0.17685 0.05053,0.33911 0.05053,0.33911 -1.186884,0.17685 -1.186883,0.17685 z M 0.16442778,8.7821187 C 0.12678675,8.698356 0.07439313,8.5628045 0.04799501,8.4808852 L 1.4241743e-7,8.3319408 1.2734961,7.8044715 C 2.262648,7.3947733 2.5562872,7.2880038 2.5886236,7.3262795 2.6418376,7.3892695 2.8154809,7.8526593 2.795818,7.8792075 2.778381,7.9027485 0.33530444,8.9191445 0.2743146,8.9282319 0.2515194,8.9315819 0.2020707,8.8658759 0.16442778,8.7821187 Z M 1.3471817,5.4580181 C 0.65708256,5.1024217 0.07920287,4.8016626 0.0630039,4.7896648 0.03999432,4.7726289 0.14537801,4.5402843 0.32790391,4.2056576 0.33507984,4.1925265 2.8006575,5.4397809 2.8951776,5.5043494 2.9320358,5.5295304 2.672582,6.1018213 2.6234474,6.1037234 2.6116024,6.104167 2.0372809,5.8136144 1.3471817,5.4580181 Z M 3.1486921,3.4237736 2.6101924,2.1457027 2.7757654,2.0653696 C 2.8668345,2.0211863 3.0068221,1.9710769 3.086857,1.9540215 l 0.1455177,-0.031015 0.5172495,1.2228227 c 0.2844866,0.6725517 0.5216717,1.2456198 0.5270751,1.2734829 0.00993,0.051229 -0.17216,0.1480283 -0.4421297,0.235036 l -0.1473769,0.047501 z"
       id="path317" /><path
       style="fill:#ffffff;stroke-width:0.0428567"
       d="m 9.2053384,18.310773 -0.1201326,-0.101255 0.1318815,0.08539 c 0.123263,0.07981 0.1554345,0.110108 0.1221894,0.115061 -0.00755,0.0011 -0.067864,-0.04351 -0.1339383,-0.0992 z m 4.6251536,-0.678338 c 0.04608,-0.06645 0.0933,-0.122228 0.10496,-0.123965 0.01166,-0.0018 -0.01651,0.0512 -0.06257,0.117648 -0.04608,0.06645 -0.0933,0.122226 -0.10496,0.123963 -0.01166,0.0018 0.01649,-0.0512 0.06257,-0.117646 z M 6.5565079,15.978571 c 0.028778,-0.0168 0.065562,-0.02074 0.08174,-0.0088 0.016179,0.01198 -0.00736,0.02573 -0.052319,0.03055 -0.049682,0.0053 -0.061228,-0.0032 -0.029431,-0.0218 z m 1.2218954,-0.986566 -0.094962,-0.08334 0.1074069,0.06654 c 0.1009356,0.06253 0.1310614,0.09291 0.09714,0.09797 -0.00801,0.0012 -0.057361,-0.03533 -0.1095849,-0.08116 z m 6.4486857,-0.950052 c 0.03525,-0.05291 0.07362,-0.09763 0.08528,-0.09937 0.01166,-0.0018 -0.0076,0.04014 -0.0429,0.09305 -0.03525,0.05292 -0.07362,0.09763 -0.08528,0.09937 -0.01166,0.0018 0.0076,-0.04014 0.0429,-0.09305 z m -9.2633827,1.134029 c 0.028778,-0.0168 0.065562,-0.02074 0.08174,-0.0088 0.016178,0.01199 -0.00736,0.02573 -0.052319,0.03056 -0.049682,0.0053 -0.061228,-0.0032 -0.029421,-0.02179 z m 0.296721,-0.04421 c 0.028778,-0.0168 0.065562,-0.02074 0.08174,-0.0088 0.016178,0.01198 -0.00736,0.02573 -0.052319,0.03055 -0.049682,0.0053 -0.061228,-0.0032 -0.029421,-0.02179 z m -1.1546336,-0.220823 -0.1201325,-0.101256 0.1318815,0.08539 c 0.123262,0.07981 0.1554335,0.110108 0.1221893,0.115062 -0.00755,0.0011 -0.067864,-0.04351 -0.1339383,-0.0992 z M 6.2192242,14.07795 c -0.032003,-0.05699 -0.027865,-0.06258 0.020195,-0.02727 0.033252,0.02444 0.051378,0.0567 0.040269,0.07169 -0.011109,0.015 -0.038312,-0.005 -0.060464,-0.04443 z M 3.8263583,13.013576 c 0.046075,-0.06645 0.093303,-0.122227 0.1049596,-0.123964 0.011659,-0.0018 -0.016495,0.0512 -0.06257,0.117648 -0.046075,0.06645 -0.093303,0.122228 -0.1049596,0.123964 -0.011659,0.0018 0.016505,-0.0512 0.06257,-0.117648 z M 3.1941092,12.696151 c 0.035246,-0.05292 0.073623,-0.09763 0.085282,-0.09937 0.011659,-0.0018 -0.00764,0.04014 -0.042897,0.09305 -0.035246,0.05291 -0.073623,0.09763 -0.085282,0.09937 -0.011659,0.0018 0.00764,-0.04014 0.042897,-0.09305 z M 3.66821,9.2891123 C 3.65954,9.2308293 3.6656,9.2055543 3.681695,9.2329443 3.697799,9.2603343 3.7049,9.3080213 3.697482,9.3389161 3.690022,9.3698101 3.676896,9.3473961 3.66821,9.2891123 Z M 16.244041,6.1587069 c -0.0087,-0.058283 -0.0026,-0.083558 0.01348,-0.056168 0.0161,0.02739 0.02321,0.075077 0.01579,0.1059727 -0.0075,0.030894 -0.02059,0.00848 -0.02927,-0.049803 z M 16.19983,5.8619858 c -0.0087,-0.058283 -0.0026,-0.083558 0.01349,-0.056168 0.0161,0.02739 0.0232,0.075077 0.01579,0.1059717 -0.0075,0.030894 -0.02059,0.00848 -0.02927,-0.049804 z M 15.378457,4.6303162 15.233429,4.5111044 15.389744,4.6150762 c 0.08597,0.057184 0.157203,0.1099409 0.158291,0.1172361 0.0048,0.032748 -0.0344,0.00913 -0.169578,-0.1019961 z m 3.737917,-1.5860451 c -0.0087,-0.058283 -0.0026,-0.083558 0.01348,-0.056168 0.0161,0.02739 0.02321,0.075077 0.01579,0.1059718 -0.0075,0.030894 -0.0206,0.00848 -0.02927,-0.049804 z M 4.9297557,5.006486 C 4.9966876,4.9131038 5.060983,4.8352785 5.0726397,4.8335414 5.0842983,4.8317707 5.0390713,4.9067825 4.972144,5.0001703 4.9052122,5.0935525 4.8409167,5.1713778 4.8292591,5.1731149 4.8176006,5.1748856 4.8628276,5.0998738 4.9297557,5.006486 Z M 17.513899,1.387381 c -0.06274,-0.059374 -0.06147,-0.061098 0.01363,-0.018387 0.04556,0.025917 0.08392,0.054323 0.08524,0.06313 0.0052,0.034892 -0.03295,0.017623 -0.09885,-0.044733 z M 8.6889592,2.5314781 c 0.039645,-0.016896 0.096971,-0.024715 0.1273999,-0.017381 0.030428,0.00736 -0.00205,0.021155 -0.072076,0.030717 -0.070073,0.00955 -0.094966,0.00354 -0.05532,-0.013336 z M 9.5791215,2.3988407 c 0.039645,-0.016896 0.096972,-0.024715 0.1273998,-0.017381 0.030428,0.00736 -0.00205,0.021155 -0.072076,0.030717 -0.070073,0.00955 -0.094966,0.00354 -0.05532,-0.013336 z M 10.920913,1.376974 c 0.02739,-0.016104 0.07508,-0.023205 0.105972,-0.015787 0.03089,0.00746 0.0085,0.020587 -0.0498,0.029272 -0.05828,0.00867 -0.08356,0.00261 -0.05617,-0.013485 z m 4.472573,-0.84354857 c -0.06275,-0.0593739 -0.06147,-0.0610979 0.01362,-0.0183872 0.07886,0.0448542 0.106501,0.0763165 0.07161,0.0815167 -0.0088,0.001305 -0.04716,-0.0271008 -0.08523,-0.0631295 z"
       id="path333" /><path
       style="fill:#ffffff;stroke-width:0.0428567"
       d="m 13.553315,11.387311 c -0.0053,-0.04968 0.0032,-0.06123 0.0218,-0.02943 0.0168,0.02878 0.02074,0.06556 0.0088,0.08174 -0.01198,0.01618 -0.02573,-0.0074 -0.03055,-0.05232 z m 2.746841,-3.3521053 c 0.04606,-0.066447 0.0933,-0.1222266 0.104959,-0.1239647 0.01166,-0.00177 -0.0165,0.051201 -0.06257,0.117648 -0.04608,0.066447 -0.0933,0.1222267 -0.104959,0.1239638 -0.01166,0.00177 0.0165,-0.051201 0.06257,-0.1176471 z m 3.002879,-1.1363462 c 0.0252,-0.037101 0.05345,-0.062104 0.06277,-0.055562 0.0287,0.020139 -0.023,0.1102643 -0.06703,0.1168233 -0.02286,0.00345 -0.02094,-0.024156 0.0043,-0.061256 z m -0.96385,0.044649 c 0.02877,-0.016803 0.06556,-0.020745 0.08174,-0.00876 0.01618,0.011985 -0.0074,0.02574 -0.05232,0.030549 -0.04968,0.00531 -0.06123,-0.00317 -0.02943,-0.021789 z M 16.940494,6.2029861 c -0.0053,-0.049682 0.0032,-0.061228 0.02179,-0.029431 0.0168,0.028778 0.02075,0.065562 0.0088,0.08174 -0.01199,0.016188 -0.02573,-0.00736 -0.03055,-0.052319 z M 19.325069,5.631027 c -0.0053,-0.049682 0.0032,-0.061228 0.0218,-0.029421 0.0168,0.028778 0.02075,0.065562 0.0088,0.08174 -0.01198,0.016178 -0.02574,-0.00736 -0.03055,-0.052319 z M 11.916728,4.7886648 c 0.04607,-0.066438 0.0933,-0.1222266 0.10496,-0.1239638 0.01166,-0.00177 -0.0165,0.051201 -0.06257,0.117648 -0.04608,0.066447 -0.0933,0.1222267 -0.104959,0.1239638 -0.01166,0.00177 0.0165,-0.051201 0.06257,-0.117648 z m 3.88234,-0.6759738 -0.120134,-0.101257 0.131882,0.085394 c 0.123262,0.079811 0.155434,0.1101086 0.122189,0.1150628 -0.0075,0.00112 -0.06786,-0.043512 -0.133937,-0.0992 z M 13.470533,3.6392827 c 0.02877,-0.016803 0.06556,-0.020745 0.08174,-0.00876 0.01618,0.011985 -0.0074,0.025731 -0.05232,0.030549 -0.04968,0.00531 -0.06123,-0.00317 -0.02943,-0.021798 z m 1.810376,-0.6626191 c -0.06274,-0.059374 -0.06147,-0.061098 0.01363,-0.018387 0.04556,0.025917 0.08392,0.054323 0.08523,0.06313 0.0052,0.034892 -0.03295,0.017623 -0.09885,-0.044733 z M 14.801203,1.1741309 c -0.04188,-0.018993 -0.0496,-0.034873 -0.01932,-0.039784 0.02772,-0.00447 0.06502,0.00913 0.0829,0.030316 0.04037,0.047781 0.02569,0.049971 -0.06359,0.00948 z"
       id="path327" /><path
       style="fill:#ffffff;stroke-width:0.0428567"
       d="m 10.745966,15.228669 c -0.0053,-0.04968 0.0032,-0.06122 0.0218,-0.02942 0.0168,0.02878 0.02074,0.06556 0.0088,0.08174 -0.01198,0.01619 -0.02573,-0.0074 -0.03055,-0.05232 z m 0.646639,-0.313 c -0.0053,-0.04968 0.0032,-0.06123 0.0218,-0.02942 0.0168,0.02877 0.02074,0.06556 0.0088,0.08174 -0.01199,0.01618 -0.02574,-0.0074 -0.03055,-0.05232 z M 8.1949848,14.431647 8.0252209,14.294456 8.2059454,14.416849 c 0.1682131,0.11392 0.2040509,0.145247 0.1716818,0.150071 -0.00708,0.001 -0.08927,-0.05982 -0.1826424,-0.135273 z m 5.4539662,-0.780161 c 0.03525,-0.05292 0.07363,-0.09763 0.08528,-0.09937 0.01166,-0.0018 -0.0076,0.04014 -0.0429,0.09305 -0.03525,0.05291 -0.07362,0.09763 -0.08528,0.09937 -0.01166,0.0018 0.0076,-0.04014 0.0429,-0.09305 z m -6.7571957,0.04276 -0.094962,-0.08334 0.107407,0.06654 c 0.1009355,0.06253 0.1310623,0.09291 0.09714,0.09797 -0.00801,0.0012 -0.057361,-0.03533 -0.1095849,-0.08116 z m -0.464075,-0.342485 c -0.062747,-0.05937 -0.061471,-0.0611 0.013616,-0.01839 0.045562,0.02592 0.083921,0.05432 0.085235,0.06313 0.00522,0.03489 -0.032953,0.01762 -0.098853,-0.04473 z M 7.3613092,12.75768 7.1178,12.566484 l 0.2538836,0.17719 c 0.2359129,0.16465 0.2769555,0.198676 0.2453255,0.203389 -0.00671,10e-4 -0.12177,-0.08422 -0.2556999,-0.189383 z m 0.364516,-0.595936 -0.1201326,-0.101256 0.1318806,0.08539 c 0.1232629,0.07981 0.1554344,0.110109 0.1221903,0.115063 -0.00755,0.0011 -0.067864,-0.04351 -0.1339383,-0.0992 z M 6.1553612,9.6551389 C 6.1362564,9.5269124 6.1363869,9.4732728 6.155651,9.5359383 6.174914,9.5986023 6.190552,9.7035159 6.190384,9.7690759 6.1902255,9.8346379 6.174457,9.7833629 6.155352,9.6551389 Z m -1.7651508,0.068032 c -0.024137,-0.1632227 -0.025638,-0.2259338 -0.00335,-0.1393548 0.022283,0.086577 0.042021,0.2201269 0.043876,0.2967714 0.00186,0.076643 -0.016383,0.00578 -0.040511,-0.1574166 z M 14.256394,8.331801 c 0.02877,-0.016803 0.06556,-0.020745 0.08174,-0.00876 0.01618,0.011985 -0.0074,0.025731 -0.05232,0.030549 -0.04968,0.00531 -0.06122,-0.00317 -0.02942,-0.021789 z M 5.3693617,9.0970359 c -0.00531,-0.049682 0.00317,-0.061228 0.021798,-0.029421 0.016803,0.028769 0.020745,0.065562 0.00876,0.08174 -0.011985,0.016188 -0.02574,-0.00736 -0.030549,-0.052319 z M 12.204178,6.6306866 c -0.01911,-0.1282256 -0.01897,-0.1818661 2.89e-4,-0.1191997 0.01926,0.062664 0.03489,0.1675785 0.03474,0.2331376 -1.56e-4,0.065562 -0.01593,0.014287 -0.03503,-0.1139379 z M 6.9140166,6.4006858 C 7.0215437,6.2535913 7.1190581,6.1318204 7.1307148,6.1300833 7.1423734,6.1283126 7.0639321,6.2472756 6.9564058,6.3943701 6.8488787,6.5414646 6.7513643,6.6632355 6.7397076,6.6649726 6.728049,6.6667433 6.8064904,6.5477803 6.9140166,6.4006858 Z M 6.5170123,5.7718691 c -0.0013,-0.00876 0.027092,-0.047156 0.06313,-0.085235 0.059374,-0.062747 0.061098,-0.061471 0.018387,0.013625 -0.044854,0.078861 -0.076316,0.1065011 -0.081517,0.07161 z M 5.1118697,5.9379109 c -0.0013,-0.00876 0.027092,-0.047156 0.06313,-0.085235 0.059374,-0.062738 0.061098,-0.061471 0.018387,0.013625 -0.044854,0.078861 -0.076316,0.106501 -0.081517,0.07161 z M 10.042862,4.9295293 c 0.03965,-0.016896 0.09697,-0.024706 0.1274,-0.017381 0.03043,0.00736 -0.002,0.021155 -0.07208,0.030717 -0.07007,0.00955 -0.09497,0.00354 -0.05532,-0.013336 z M 5.4113978,5.4763409 c 0.035246,-0.052916 0.073633,-0.09763 0.085282,-0.099367 0.011659,-0.00177 -0.00764,0.040139 -0.042897,0.093054 -0.035246,0.052916 -0.073623,0.09763 -0.085282,0.099367 -0.011659,0.00177 0.00764,-0.040139 0.042897,-0.093054 z M 13.823404,4.2808865 c 0.02739,-0.016104 0.07508,-0.023205 0.105972,-0.015787 0.03089,0.00746 0.0085,0.020587 -0.0498,0.029272 -0.05828,0.00867 -0.08356,0.00261 -0.05617,-0.013485 z M 9.043564,3.1720754 c 0.039207,-0.016747 0.1059727,-0.026691 0.1483601,-0.022106 0.042385,0.00457 0.010307,0.018275 -0.071293,0.030437 -0.081601,0.012162 -0.116279,0.00839 -0.077071,-0.00829 z"
       id="path323" /><path
       style="fill:#ffffff;stroke-width:0.0428567"
       d="m 13.207048,15.147214 c -0.0087,-0.05828 -0.0026,-0.08356 0.01348,-0.05617 0.0161,0.02739 0.02321,0.07508 0.01579,0.105971 -0.0075,0.03089 -0.02059,0.0085 -0.02927,-0.0498 z m -4.1187332,0.58843 c -0.00531,-0.04968 0.00317,-0.06123 0.021789,-0.02943 0.016803,0.02878 0.020745,0.06556 0.00876,0.08174 -0.011985,0.01618 -0.02574,-0.0074 -0.030549,-0.05232 z m 2.3302682,-0.668581 c -0.0087,-0.05828 -0.0026,-0.08356 0.01348,-0.05617 0.0161,0.02739 0.02321,0.07508 0.01579,0.105973 -0.0075,0.03089 -0.02059,0.0085 -0.02927,-0.0498 z m -0.691565,0.03445 c -0.0053,-0.04968 0.0032,-0.06123 0.0218,-0.02942 0.0168,0.02877 0.02074,0.06556 0.0088,0.08174 -0.01198,0.01618 -0.02574,-0.0074 -0.03055,-0.05232 z m -0.45926,-1.736979 -0.194403,-0.155184 0.205119,0.140718 c 0.190759,0.130865 0.22835,0.162997 0.196279,0.167775 -0.0069,0.001 -0.100072,-0.06796 -0.206995,-0.153309 z M 14.733195,12.6775 c -0.06275,-0.05937 -0.06147,-0.0611 0.01362,-0.01839 0.07886,0.04485 0.106502,0.07632 0.07161,0.08152 -0.0088,0.0013 -0.04716,-0.0271 -0.08524,-0.06313 z m 0.345977,-0.568611 c 0.02877,-0.0168 0.06556,-0.02074 0.08174,-0.0088 0.01618,0.01198 -0.0074,0.02574 -0.05232,0.03055 -0.04968,0.0053 -0.06123,-0.0032 -0.02942,-0.02179 z m -0.303039,0.0018 c 0.02878,-0.0168 0.06556,-0.02074 0.08174,-0.0088 0.01618,0.01198 -0.0074,0.02573 -0.05232,0.03056 -0.04968,0.0053 -0.06123,-0.0032 -0.02942,-0.02179 z m -0.303036,0.0018 c 0.02877,-0.0168 0.06556,-0.02075 0.08174,-0.0088 0.01618,0.01199 -0.0074,0.02573 -0.05232,0.03055 -0.04968,0.0053 -0.06123,-0.0032 -0.02942,-0.0218 z M 6.2815662,13.24344 c -0.062747,-0.05937 -0.061471,-0.0611 0.013625,-0.01839 0.045572,0.02592 0.083921,0.05432 0.085235,0.06313 0.00522,0.03489 -0.032953,0.01762 -0.098853,-0.04473 z M 14.17006,12.114255 c 0.02878,-0.0168 0.06556,-0.02074 0.08174,-0.0088 0.01618,0.01198 -0.0074,0.02574 -0.05232,0.03056 -0.04968,0.0053 -0.06123,-0.0032 -0.02943,-0.0218 z m -0.303037,0.0018 c 0.02878,-0.0168 0.06556,-0.02074 0.08174,-0.0088 0.01618,0.01198 -0.0074,0.02573 -0.05232,0.03055 -0.04968,0.0053 -0.06123,-0.0032 -0.02942,-0.02179 z m -0.303037,0.0018 c 0.02877,-0.0168 0.06556,-0.02074 0.08175,-0.0088 0.01618,0.01198 -0.0074,0.02574 -0.05232,0.03055 -0.04968,0.0053 -0.06123,-0.0032 -0.02942,-0.0218 z m -0.303036,0.0018 c 0.02878,-0.0168 0.06556,-0.02074 0.08174,-0.0088 0.01618,0.01198 -0.0074,0.02574 -0.05232,0.03055 -0.04968,0.0053 -0.06123,-0.0032 -0.02943,-0.02179 z M 7.9184449,12.30619 c -0.062747,-0.05937 -0.061471,-0.0611 0.013625,-0.0184 0.078861,0.04485 0.1065011,0.07632 0.07161,0.08152 -0.00876,0.0013 -0.047156,-0.0271 -0.085235,-0.06313 z M 12.849803,10.4124 c -0.0096,-0.07006 -0.0035,-0.09497 0.01334,-0.05532 0.0169,0.03964 0.02472,0.09697 0.01734,0.127404 -0.0074,0.03043 -0.02116,-0.0021 -0.03072,-0.07208 z m -0.131605,-0.20796 c -0.06275,-0.05937 -0.06147,-0.0611 0.01362,-0.01839 0.07886,0.04485 0.106502,0.07632 0.07161,0.08152 -0.0088,0.0013 -0.04716,-0.02709 -0.08524,-0.06313 z m -0.320306,-0.07846 c 0.02739,-0.0161 0.07508,-0.02321 0.105972,-0.01579 0.03089,0.0075 0.0085,0.02059 -0.0498,0.02927 -0.05828,0.0087 -0.08356,0.0026 -0.05617,-0.01348 z m -7.8563775,0.394111 c -0.00531,-0.04968 0.00317,-0.06122 0.021789,-0.02942 0.016803,0.02878 0.020745,0.06556 0.00876,0.08174 -0.011985,0.01618 -0.025731,-0.0074 -0.030549,-0.05232 z M 9.2942547,9.5338843 c -0.00867,-0.058283 -0.00261,-0.083558 0.013485,-0.056168 0.016104,0.02739 0.023205,0.075077 0.015787,0.1059717 -0.00746,0.030894 -0.020586,0.00848 -0.029272,-0.049804 z M 5.5074425,9.9898076 c -0.00955,-0.070073 -0.00354,-0.094966 0.013336,-0.055329 0.016896,0.039645 0.024715,0.096972 0.017381,0.1274004 -0.00736,0.03043 -0.021155,-0.002 -0.030717,-0.072076 z M 4.4366797,10.08436 c -0.00867,-0.05828 -0.00261,-0.08357 0.013485,-0.05617 0.016104,0.02739 0.023205,0.07508 0.015787,0.105972 -0.00746,0.03089 -0.020587,0.0085 -0.029272,-0.0498 z M 5.3953405,9.2482393 c -0.00867,-0.058283 -0.00261,-0.083558 0.013485,-0.056168 0.016104,0.02739 0.023205,0.075077 0.015787,0.1059718 -0.00746,0.030894 -0.020587,0.00848 -0.029272,-0.049804 z M 4.3293072,9.3637522 c -0.00867,-0.058283 -0.00261,-0.083558 0.013485,-0.056168 0.016104,0.02739 0.023205,0.075077 0.015787,0.1059717 -0.00746,0.030894 -0.020587,0.00848 -0.029272,-0.049804 z M 6.0665287,9.122955 c -0.00531,-0.049682 0.00317,-0.061228 0.021798,-0.029431 0.016803,0.028778 0.020745,0.065562 0.00876,0.08174 -0.011985,0.016179 -0.025731,-0.00736 -0.030549,-0.052319 z M 12.153242,6.3528317 c -0.0053,-0.049682 0.0032,-0.061228 0.02179,-0.029421 0.0168,0.028778 0.02074,0.065562 0.0088,0.08174 -0.01198,0.016178 -0.02573,-0.00736 -0.03055,-0.052319 z M 6.335684,6.0208768 C 6.4231185,5.8946493 6.5002262,5.7905424 6.5070285,5.7895294 6.5388542,5.7847765 6.5108494,5.82786 6.3498951,6.0314021 L 6.1767072,6.2503808 Z M 7.3963669,5.8573046 c -0.0013,-0.00876 0.027092,-0.047156 0.06313,-0.085235 0.059374,-0.062738 0.061098,-0.061471 0.018387,0.013625 -0.044854,0.078861 -0.076316,0.1065011 -0.081517,0.07161 z M 5.2498442,5.7005152 c -0.0013,-0.00876 0.027101,-0.047156 0.06313,-0.085235 0.059374,-0.062748 0.061098,-0.061471 0.018387,0.013616 -0.044854,0.078861 -0.076316,0.1065021 -0.081517,0.07161 z M 10.281466,4.8641267 c -0.0013,-0.00876 0.0271,-0.047156 0.06313,-0.085235 0.05937,-0.062747 0.0611,-0.061471 0.01839,0.013625 -0.04485,0.078861 -0.07632,0.1065011 -0.08152,0.07161 z m 3.7333,-0.613271 c 0.03964,-0.016896 0.09697,-0.024715 0.1274,-0.017381 0.03043,0.00736 -0.0021,0.021155 -0.07208,0.030717 -0.07007,0.00955 -0.09497,0.00354 -0.05533,-0.013336 z M 8.6393521,4.9664816 c 0.02739,-0.016104 0.075077,-0.023205 0.1059717,-0.015787 0.030894,0.00746 0.00848,0.020586 -0.049803,0.029272 -0.058283,0.00867 -0.083558,0.00261 -0.056169,-0.013485 z M 5.5027614,5.3623228 C 5.501643,5.3550537 5.5544281,5.2837976 5.6199965,5.204032 L 5.7392093,5.0590055 5.6352375,5.2153196 C 5.5383204,5.3610265 5.507641,5.3950702 5.5027614,5.3623228 Z M 8.4379321,3.3057285 c 0.028769,-0.016803 0.065562,-0.020745 0.08174,-0.00876 0.016188,0.011985 -0.00736,0.025731 -0.052319,0.030549 -0.049682,0.00531 -0.061228,-0.00317 -0.029421,-0.021798 z m 0.3513001,-0.095944 c 0.039207,-0.016747 0.1059717,-0.026691 0.14836,-0.022106 0.042385,0.00457 0.010307,0.018275 -0.071293,0.030437 -0.081601,0.012162 -0.116279,0.00839 -0.077071,-0.00829 z"
       id="path319" /><text
       xml:space="preserve"
       style="font-weight:500;font-size:8.78432px;line-height:normal;font-family:'Exo 2';-inkscape-font-specification:'Exo 2, Medium';text-align:end;text-decoration-color:#000000;fill:#ffffff;fill-opacity:1;stroke:none;stroke-width:0.506421;stroke-linecap:round;stroke-linejoin:round;stroke-opacity:1;paint-order:markers fill stroke;stop-color:#000000"
       x="21.011742"
       y="13.253189"
       id="text420"><tspan
         sodipodi:role="line"
         id="tspan418"
         style="font-style:normal;font-variant:normal;font-weight:normal;font-stretch:normal;font-size:8.78432px;font-family:'Brandan Personal Use';-inkscape-font-specification:'Brandan Personal Use, Normal';font-variant-ligatures:normal;font-variant-caps:normal;font-variant-numeric:normal;font-variant-east-asian:normal;fill:#ffffff;fill-opacity:1;stroke:none;stroke-width:0.506421;stroke-opacity:1"
         x="21.011742"
         y="13.253189">ABProj</tspan></text><text
       xml:space="preserve"
       style="font-weight:500;font-size:2.1364px;line-height:normal;font-family:'Exo 2';-inkscape-font-specification:'Exo 2, Medium';text-align:end;text-decoration-color:#000000;fill:#ffffff;fill-opacity:1;stroke:none;stroke-width:0.123164;stroke-linecap:round;stroke-linejoin:round;stroke-opacity:1;paint-order:markers fill stroke;stop-color:#000000"
       x="21.300924"
       y="15.796006"
       id="text1445"><tspan
         sodipodi:role="line"
         id="tspan1443"
         style="font-style:normal;font-variant:normal;font-weight:normal;font-stretch:normal;font-size:2.1364px;font-family:'Brandan Personal Use';-inkscape-font-specification:'Brandan Personal Use, Normal';font-variant-ligatures:normal;font-variant-caps:normal;font-variant-numeric:normal;font-variant-east-asian:normal;fill:#ffffff;fill-opacity:1;stroke:none;stroke-width:0.123164;stroke-opacity:1"
         x="21.300924"
         y="15.796006">Aprendizagem Baseada </tspan><tspan
         sodipodi:role="line"
         style="font-style:normal;font-variant:normal;font-weight:normal;font-stretch:normal;font-size:2.1364px;font-family:'Brandan Personal Use';-inkscape-font-specification:'Brandan Personal Use, Normal';font-variant-ligatures:normal;font-variant-caps:normal;font-variant-numeric:normal;font-variant-east-asian:normal;fill:#ffffff;fill-opacity:1;stroke:none;stroke-width:0.123164;stroke-opacity:1"
         x="21.300924"
         y="18.5317"
         id="tspan1553">em Projetos</tspan></text></g><style
     type="text/css"
     id="style1659">
	.st0{fill:#FF6B81;}
</style></svg>
