<?xml version="1.0" encoding="UTF-8" standalone="no"?>
<!-- Generator: Adobe Illustrator 21.0.0, SVG Export Plug-In . SVG Version: 6.00 Build 0)  -->

<svg
   version="1.1"
   id="Layer_1"
   x="0px"
   y="0px"
   viewBox="0 0 52.2 44.3"
   style="enable-background:new 0 0 52.2 44.3;"
   xml:space="preserve"
   sodipodi:docname="favicon.svg"
   inkscape:version="1.2.2 (732a01da63, 2022-12-09)"
   xmlns:inkscape="http://www.inkscape.org/namespaces/inkscape"
   xmlns:sodipodi="http://sodipodi.sourceforge.net/DTD/sodipodi-0.dtd"
   xmlns="http://www.w3.org/2000/svg"
   xmlns:svg="http://www.w3.org/2000/svg"><defs
   id="defs9" /><sodipodi:namedview
   id="namedview7"
   pagecolor="#ffffff"
   bordercolor="#000000"
   borderopacity="0.25"
   inkscape:showpageshadow="2"
   inkscape:pageopacity="0.0"
   inkscape:pagecheckerboard="0"
   inkscape:deskcolor="#d1d1d1"
   showgrid="false"
   inkscape:zoom="5.8352146"
   inkscape:cx="29.390522"
   inkscape:cy="25.020502"
   inkscape:window-width="1366"
   inkscape:window-height="697"
   inkscape:window-x="-8"
   inkscape:window-y="-8"
   inkscape:window-maximized="1"
   inkscape:current-layer="Layer_1" />
<style
   type="text/css"
   id="style2">
	.st0{fill:#FF6B81;}
</style>

<g
   id="g1497"
   transform="matrix(0.47481417,0,0,0.47481417,46.400685,13.68747)"><path
     style="fill:#000000;fill-opacity:1;stroke-width:0.161978"
     d="m -38.533176,57.594574 c -1.590539,-0.09387 -3.23153,-1.071866 -4.178536,-2.490338 -0.536658,-0.803834 -0.559366,-0.895654 -1.209112,-4.889 l -0.662184,-4.069773 -0.792431,-0.512266 c -0.471905,-0.305064 -1.065767,-0.907223 -1.46821,-1.488729 -0.652381,-0.942648 -0.69052,-1.059179 -1.101251,-3.364517 l -0.425468,-2.388041 -0.996727,1.336388 c -1.317139,1.765984 -1.397137,1.774722 -4.116384,0.449544 l -2.076729,-1.012055 -0.08242,1.282669 c -0.04533,0.705472 -0.11599,1.777467 -0.157024,2.382214 -0.116905,1.723 -0.09535,1.709813 -3.665172,2.241728 -3.770848,0.561869 -3.492175,0.699428 -4.603707,-2.272543 -0.441558,-1.180622 -0.825893,-2.163666 -0.854071,-2.18454 -0.02819,-0.02079 -0.757835,0.628936 -1.621458,1.44401 -1.665019,1.571429 -2.134663,1.879423 -2.677289,1.755802 -0.185624,-0.04229 -1.449927,-0.907113 -2.80958,-1.921837 -2.101655,-1.568488 -2.483144,-1.919066 -2.545795,-2.339527 -0.05312,-0.356636 0.212217,-1.081232 0.951289,-2.597828 l 1.024983,-2.103254 -0.950363,-0.05206 c -4.844442,-0.265402 -4.459502,0.02747 -5.034125,-3.829062 -0.574548,-3.855965 -0.856427,-3.464587 3.693485,-5.128259 l 0.88824,-0.32479 -1.653944,-1.791576 c -0.90967,-0.985364 -1.670492,-1.902633 -1.690717,-2.038367 -0.02008,-0.135761 0.03631,-0.456688 0.125675,-0.713227 0.244377,-0.701635 3.512911,-4.975121 3.86148,-5.048727 0.699499,-0.147742 1.050181,-0.04225 2.977931,0.895321 1.113047,0.541349 2.038821,0.963881 2.057274,0.938967 0.01833,-0.02494 0.09546,-1.066148 0.171077,-2.313838 0.149029,-2.457863 0.298374,-2.873554 1.13688,-3.16391 0.484079,-0.167626 0.516896,-0.22687 0.433974,-0.783361 -0.04935,-0.331095 -0.07516,-1.258676 -0.05734,-2.0612477 0.235394,-10.620064 6.909644,-19.6460703 17.00201,-22.9929363 0.923076,-0.306122 2.35463,-0.612861 3.981523,-0.853144 l 2.540237,-0.375163 1.785845,-1.812271 c 1.783711,-1.810105 2.184749,-2.060737 2.892397,-1.807639 0.183988,0.0658 1.235335,1.005339 2.33627,2.087834 2.064612,2.030019 2.459497,2.259845 3.182657,1.852362 0.71788,-0.404511 0.814919,-0.802956 0.793723,-3.258908 -0.02797,-3.228309 0.02608,-3.573388 0.614174,-3.924395 0.419338,-0.250329 0.998298,-0.288053 4.632268,-0.30186 3.762973,-0.01444 4.186466,0.01479 4.508912,0.310595 0.452001,0.414563 0.502349,0.782988 0.523185,3.828142 0.01852,2.732638 0.118148,3.077661 0.956493,3.318381 0.808422,0.23212 1.133397,0.0243 3.155032,-2.018322 2.836812,-2.866154 2.419427,-2.923458 6.26801,0.860493 3.4018851,3.344748 3.5204526,3.542793 2.725395,4.552345 -0.2461606,0.312566 -1.1944819,1.3195339 -2.107385,2.2376965 -1.795249,1.8055963 -1.950973,2.1311512 -1.430937,2.9914847 0.379544,0.6279009 0.727574,0.693035 3.4726754,0.6499469 2.9461417,-0.046246 3.2590073,0.00389 3.6010129,0.5767891 0.2508095,0.4201531 0.2884158,0.9944448 0.3021733,4.6123299 0.013228,3.4990538 -0.028347,4.1917259 -0.2708788,4.519366 -0.3587527,0.4843854 -0.7223773,0.5383608 -3.7794406,0.5610478 -2.9795112,0.022186 -2.8401862,-0.00126 -3.2439382,0.5438736 -0.63651,0.8594 -0.401548,1.3088055 1.836941,3.5134667 1.6660271,1.6408588 2.0256907,2.0777318 2.0995389,2.5502578 0.111874,0.717395 0.038022,0.811078 -3.2749649,4.142036 -2.100854,2.112246 -2.706621,2.634513 -3.128692,2.697404 -0.686835,0.102312 -0.818041,0.01323 -2.578137,-1.744808 -2.103757,-2.101674 -2.521255,-2.408349 -3.150909,-2.314529 -0.311396,0.04637 -0.663421,0.24684 -0.876563,0.499086 -0.322961,0.382231 -0.354898,0.677983 -0.342312,3.171364 0.01398,2.784234 -0.106885,3.454382 -0.673263,3.731645 -0.343067,0.167924 -8.411221,0.246576 -8.85928,0.08629 -0.630717,-0.225562 -0.761224,-0.862061 -0.769694,-3.753758 -0.0057,-1.966587 -0.06845,-2.847761 -0.219212,-3.082817 -0.270841,-0.422102 -1.200439,-0.7416 -1.633814,-0.561521 -0.184366,0.07661 -1.195771,1.009742 -2.247591,2.073641 -1.05182,1.0639 -2.063868,1.997303 -2.248985,2.07422 -0.185121,0.07691 -0.533624,0.07094 -0.774456,-0.01323 -0.388629,-0.136071 -5.41352,-4.93352 -6.015859,-5.743685 -0.30496,-0.410168 -0.404232,-1.145097 -0.202638,-1.499915 0.08693,-0.153008 0.958997,-1.085133 1.937925,-2.0714268 0.978932,-0.9862907 1.853284,-1.9188415 1.943003,-2.0723323 0.26121,-0.44688 0.05477,-1.2824837 -0.412623,-1.6701468 -0.379736,-0.3149632 -0.697583,-0.3468752 -3.283487,-0.3295457 -2.634775,0.017612 -2.89677,-0.00986 -3.28587,-0.3455365 -0.232542,-0.2005943 -0.436859,-0.4589405 -0.45402,-0.5741156 -0.01726,-0.1151792 -0.0404,-2.0052506 -0.0516,-4.20015874 -0.0229,-4.45720446 0.04392,-4.78331566 1.026187,-5.01622376 0.316478,-0.07506 1.613579,-0.1393418 2.882413,-0.1428991 2.905481,-0.0081 3.025942,-0.028178 3.431546,-0.5759898 0.600276,-0.810486 0.392311,-1.1986106 -1.838741,-3.4315276 -1.11788,-1.1188133 -2.107059,-2.2414483 -2.198173,-2.4947393 l -0.165654,-0.460533 -1.399959,0.311265 c -6.021873,1.338882 -11.405172,5.3936832 -14.434208,10.87210884 -3.934067,7.11528686 -3.548855,16.04569716 0.9831,22.79152316 2.028543,3.019491 5.587567,6.085103 8.955644,7.714061 1.935922,0.936302 3.095801,1.849761 4.029145,3.17314 1.097313,1.55588 1.22128,1.938546 1.934096,5.97018 0.731918,4.139697 0.748681,4.181162 1.952025,4.828289 0.476299,0.256139 0.680923,0.236221 6.556096,-0.639231 5.87517,-0.875418 6.076724,-0.915976 6.457659,-1.299863 0.960427,-0.967835 0.965484,-1.023076 0.467482,-5.106935 -0.388883,-3.189037 -0.427876,-3.886171 -0.269593,-4.820289 0.379415,-2.239113 1.239723,-3.784002 3.098948,-5.564916 0.682443,-0.653699 1.458096,-1.442834 1.723676,-1.753633 l 0.482861,-0.565084 0.977991,0.799366 0.977986,0.79937 -0.587875,0.661043 c -0.323338,0.363591 -1.008707,1.059474 -1.523047,1.546447 -1.213701,1.149093 -1.643377,1.68164 -2.095166,2.596807 -0.710601,1.439411 -0.726747,1.87578 -0.221216,5.979368 l 0.466575,3.787075 -0.365632,1.143194 c -0.219061,0.684873 -0.609652,1.432263 -0.974297,1.864218 l -0.608663,0.721036 0.553066,4.086032 c 0.542683,4.0093 0.547721,4.10375 0.268724,5.029119 -0.363213,1.20466 -1.26175,2.416482 -2.305319,3.109066 -0.786028,0.521673 -0.950891,0.564941 -4.018855,1.054873 -1.759559,0.281008 -3.508207,0.492654 -3.885891,0.470351 z m 6.914544,-3.860553 c 0.825403,-0.755047 1.075317,-1.489772 0.902116,-2.65217 l -0.151635,-1.017672 -5.126694,0.763896 -5.126695,0.763895 0.151634,1.017672 c 0.173178,1.162394 0.626457,1.79235 1.636131,2.273964 0.57114,0.272428 0.727,0.264038 3.911849,-0.210482 3.184853,-0.47455 3.336382,-0.511986 3.80329,-0.939073 z m 0.177562,-7.514865 -0.19098,-1.281668 -5.126695,0.763896 -5.126691,0.763895 0.19098,1.281668 0.190979,1.28168 5.126699,-0.7639 5.126687,-0.763891 z m -26.717707,-5.64023 c 0.05685,-0.976744 0.182596,-1.975306 0.279424,-2.219025 0.261422,-0.658012 1.062721,-1.326528 1.837058,-1.532648 0.80244,-0.213581 1.26043,-0.08719 3.20255,0.883983 l 1.340407,0.670276 1.210241,-1.642008 1.210242,-1.642008 -0.437557,-0.639338 c -0.667073,-0.974721 -1.355596,-1.506757 -3.29406,-2.545394 l -1.775114,-0.951122 -0.19112,0.396484 c -0.105104,0.218078 -0.542143,0.909581 -0.971169,1.536714 -1.730938,2.530193 -4.603816,3.726474 -7.609774,3.168767 -5.562943,-1.032128 -8.163943,-7.53939 -4.818835,-12.055911 0.865836,-1.169026 2.423466,-2.365258 3.564428,-2.737398 0.548198,-0.178772 0.610811,-0.247899 0.485033,-0.535381 -0.135466,-0.309619 -1.065496,-2.645284 -1.39408,-3.501083 -0.127083,-0.330973 -0.16766,-0.256592 -0.279387,0.511934 -0.165898,1.14136 -0.899156,2.05745 -1.889173,2.360194 -0.892672,0.272957 -1.309524,0.176012 -3.20385,-0.745187 l -1.583714,-0.770158 -1.008487,1.361643 -1.008485,1.361642 1.282557,1.385084 c 1.466826,1.584076 1.736958,2.161141 1.504807,3.214643 -0.298972,1.356673 -0.824152,1.755247 -3.656394,2.774865 l -0.893715,0.321751 0.235325,1.57937 0.235325,1.579378 0.948686,0.04721 c 3.006465,0.149632 3.625047,0.377764 4.306529,1.588358 0.530168,0.941779 0.438637,1.587228 -0.499771,3.524232 l -0.819933,1.692446 1.354747,1.003381 1.354747,1.003378 1.37147,-1.245596 c 0.754306,-0.685077 1.53171,-1.324041 1.72756,-1.419916 0.654984,-0.320655 1.711699,-0.20005 2.482676,0.283351 0.760321,0.47672 0.726723,0.417502 1.732093,3.05291 l 0.428575,1.123442 1.568367,-0.233688 1.568366,-0.233689 z m -0.914626,-7.779848 c 0.856522,-0.598133 1.790556,-1.807359 2.046626,-2.649615 l 0.184532,-0.606947 -1.496927,-1.342836 c -1.436344,-1.288479 -3.082518,-3.113594 -3.873095,-4.294103 -0.320036,-0.477898 -0.449653,-0.54712 -0.899005,-0.480166 -1.459475,0.217474 -3.210377,1.798647 -3.773831,3.408019 -0.273578,0.781444 -0.283333,1.063612 -0.08313,2.407196 0.199574,1.339401 0.292562,1.611674 0.775016,2.269527 0.543891,0.741608 1.625664,1.577722 2.403174,1.857442 1.469722,0.528748 3.49494,0.284636 4.71665,-0.568517 z m 34.93619,-13.911746 c 0.0064,-0.293669 0.0091,-1.301964 0.0057,-2.240579 -0.0064,-1.763006 0.18977,-2.52466 0.87555,-3.399081 0.918285,-1.170907 2.521557,-1.654469 3.999708,-1.206352 0.966852,0.293125 1.498443,0.686015 3.199842,2.365054 l 1.188076,1.172458 1.808413,-1.835179 c 0.994594,-1.009347 1.794577,-1.87233 1.777701,-1.917742 -0.01691,-0.0454 -0.706647,-0.75576 -1.532818,-1.578557 -1.022317,-1.0181532 -1.604953,-1.7380742 -1.824087,-2.2538852 -0.738742,-1.738969 -0.269246,-3.5531914 1.19387,-4.6133761 0.931597,-0.6750331 1.767693,-0.8420035 4.1564825,-0.830056 0.8563201,0.00423 1.6353827,-0.00258 1.7312542,-0.015156 0.171893,-0.022526 0.2262426,-5.0675399 0.055937,-5.1936696 -0.046072,-0.034167 -1.0671269,-0.059456 -2.2689713,-0.056217 -2.4942314,0.00669 -3.3010354,-0.2319081 -4.3159294,-1.2760869 -0.501642,-0.5161247 -0.63611,-0.7955905 -0.827777,-1.7203782 -0.196876,-0.9501237 -0.187125,-1.2350982 0.06879,-2.0425973 0.252511,-0.796196 0.533314,-1.179157 1.852589,-2.5264747 0.855239,-0.873419 1.546817,-1.643909 1.536839,-1.712207 -0.0102,-0.0683 -0.82684,-0.921072 -1.815239,-1.895058 l -1.797094,-1.770877 -1.335507,1.354909 c -1.884507,1.911888 -2.299616,2.185763 -3.577448,2.360297 -1.708762,0.233386 -2.873537,-0.336696 -3.79183,-1.855881 -0.434192,-0.718318 -0.576344,-1.686782 -0.573532,-3.907294 0.0012,-0.936383 -0.02003,-1.716109 -0.04698,-1.732728 -0.137424,-0.0845 -5.084489,0.01621 -5.150128,0.104928 -0.04222,0.05696 -0.07355,1.031647 -0.06969,2.165969 0.0079,2.304705 -0.137348,2.973978 -0.849509,3.917452 -0.648605,0.859231 -1.259271,1.211467 -2.393223,1.380428 -1.604327,0.239059 -2.499168,-0.178896 -4.425022,-2.066704 l -1.616429,-1.584483 -1.718131,1.736613 c -0.944973,0.955139 -1.771737,1.80076 -1.837244,1.879152 -0.0655,0.07841 0.523393,0.772181 1.308665,1.541745 1.681686,1.6480442 1.80564,1.8047015 2.165469,2.736911 0.59754,1.5480431 0.039,3.3553546 -1.339048,4.3327938 -0.912892,0.6475166 -1.751827,0.8037513 -4.260759,0.7934876 -0.936778,-0.00389 -1.719948,0.015496 -1.740381,0.043219 -0.123526,0.166851 0.01516,5.0846023 0.14586,5.1700389 0.08721,0.057025 1.071431,0.093445 2.187155,0.080908 2.26629,-0.025361 2.980118,0.1455043 3.955206,0.9472921 0.865051,0.7112946 1.230403,1.4559844 1.29899,2.6476736 0.08481,1.474001 -0.308069,2.2220792 -2.131915,4.059228 l -1.574709,1.586189 0.451362,0.444834 c 0.248239,0.244656 1.082045,1.069381 1.852879,1.832722 0.770835,0.76334 1.43226,1.383311 1.469832,1.37771 0.03742,-0.0057 0.707551,-0.663213 1.488832,-1.461362 1.69432,-1.730902 2.151284,-2.028821 3.396525,-2.214365 1.134966,-0.169103 1.934729,0.0077 2.74266,0.605972 1.302308,0.964543 1.633251,1.988303 1.634577,5.056422 4.12e-4,0.956436 0.03477,1.764283 0.07669,1.795222 0.101972,0.07552 4.008435,0.08342 4.660135,0.0094 0.461518,-0.05238 0.51733,-0.115086 0.52789,-0.59258 z m -4.161418,-8.727577 c -4.570636,-0.6441956 -7.966133,-4.0071796 -8.644823,-8.5620399 -0.301455,-2.02330544 -0.238828,-3.0040592 0.301228,-4.7160189 0.862783,-2.7349879 3.162033,-5.2143244 5.906967,-6.3696216 5.849163,-2.4618126 13.031184,1.6019165 13.980836,7.910634 0.42799,2.8432562 -0.178016,5.2684022 -1.915227,7.6644016 -0.873331,1.2045105 -1.334823,1.6691252 -2.349668,2.3655205 -1.496931,1.0272091 -2.410409,1.3661061 -4.482822,1.6631023 -1.104495,0.15829 -1.897221,0.170759 -2.796484,0.04403 z m 4.477043,-3.0038692 c 3.889323,-1.8029409 5.780663,-6.68369395 4.015306,-10.3618138 -2.123497,-4.4243063 -7.497574,-5.8658034 -11.516939,-3.0892033 -3.492363,2.4125469 -4.358955,7.3376138 -1.902077,10.8100635 1.260083,1.7809474 3.762013,3.1663136 5.970618,3.3060359 0.801199,0.050687 2.670032,-0.3113348 3.433092,-0.6650823 z m 3.247174,32.8586542 -0.66841,-4.485861 1.28168,-0.190979 1.281671,-0.19098 0.668406,4.485853 0.668413,4.485858 -1.281679,0.190979 -1.281676,0.19098 z m 9.024846,-4.295894 c -2.228984,-1.368329 -4.083371,-2.548297 -4.12086,-2.622168 -0.08183,-0.161197 0.974611,-1.982412 1.166517,-2.011004 0.175861,-0.02608 8.408882,4.988825 8.4307276,5.135464 0.03137,0.210859 -1.075869,1.956975 -1.2500636,1.971295 -0.095509,0.0079 -1.9973405,-1.105262 -4.226321,-2.473587 z m -27.541198,3.124501 -0.28645,-1.922509 1.281671,-0.19098 1.281676,-0.190979 0.28645,1.922513 0.286489,1.92251 -1.281672,0.190979 -1.281676,0.19098 z m -0.835828,-5.320679 c -0.28594,-1.115781 -1.027354,-2.482133 -1.826056,-3.365306 -1.230322,-1.360445 -2.297305,-1.989321 -4.604813,-2.714049 -1.181169,-0.370972 -2.726493,-0.950422 -3.434051,-1.287658 -4.22425,-2.013393 -7.625251,-5.744848 -9.368555,-10.278849 -0.529883,-1.378133 -1.062777,-4.693288 -1.015494,-6.3174547 0.115672,-3.973242 1.537582,-7.9026985 3.990632,-11.0281286 1.011087,-1.2882248 2.1499,-2.4508766 2.288882,-2.3367965 0.03681,0.030274 0.403848,0.4438791 0.815639,0.9192578 l 0.748709,0.8643243 -0.550661,0.5800649 c -1.975001,2.08044778 -3.210402,4.1401172 -3.995545,6.661408 -2.02116,6.4904288 0.134939,13.0102998 5.654287,17.0981458 1.75123,1.297032 2.94543,1.867987 5.687375,2.71917 1.765097,0.547945 2.427474,0.848553 3.470715,1.575118 2.439908,1.699272 3.904611,3.777325 4.663589,6.616457 l 0.200013,0.748085 -1.256194,0.187162 -1.256194,0.187163 z m 25.036997,-8.11135 -0.190979,-1.281672 4.485853,-0.668409 4.4858647,-0.66841 0.1909795,1.281676 0.1909795,1.281676 -4.4858607,0.668409 -4.485857,0.66841 z M -79.985494,9.440281 c -0.142265,-0.3165834 -0.340288,-0.8289041 -0.440061,-1.1385203 l -0.181397,-0.5629395 4.813213,-1.9935848 c 3.738527,-1.5484656 4.848344,-1.9520039 4.97056,-1.8073398 0.201124,0.2380724 0.857414,1.989467 0.783097,2.0898066 -0.0659,0.088974 -9.299579,3.9304706 -9.530091,3.9648167 -0.08616,0.012661 -0.273048,-0.2356762 -0.415321,-0.5522389 z m 4.470251,-12.5635299 c -2.608248,-1.3439865 -4.792361,-2.4807138 -4.853585,-2.5260598 -0.08697,-0.064388 0.311335,-0.9425405 1.001197,-2.2072713 0.02712,-0.049629 9.34584,4.664403 9.703082,4.9084415 0.139306,0.095172 -0.841307,2.25816151 -1.027012,2.26535055 -0.04477,0.001677 -2.215433,-1.09647495 -4.823682,-2.44046095 z m 6.808859,-7.6884831 -2.035275,-4.830504 0.625788,-0.303622 c 0.344198,-0.166992 0.873285,-0.356381 1.175779,-0.420843 l 0.549988,-0.117222 1.954959,4.621692 c 1.075225,2.541928 1.971673,4.7078547 1.992095,4.8131641 0.03753,0.1936214 -0.650683,0.559477 -1.671041,0.888325 l -0.557015,0.1795313 z"
     id="path317" /><path
     style="fill:#ffffff;stroke-width:0.161978"
     d="m -61.367587,42.612825 c -0.05125,-0.104957 -0.351912,-0.889217 -0.668171,-1.742808 -0.76694,-2.070051 -1.441646,-2.717582 -2.881058,-2.765023 -0.970524,-0.03205 -1.41502,0.212077 -2.903564,1.594507 l -1.296386,1.20395 -1.301543,-0.963976 -1.301539,-0.963969 0.852736,-1.759562 0.852736,-1.759556 -0.21648,-0.967566 c -0.378019,-1.689495 -1.121712,-2.156459 -3.673192,-2.306397 l -1.814209,-0.10662 -0.223241,-1.498152 -0.223242,-1.49814 1.70432,-0.630883 c 2.485546,-0.920065 3.040325,-1.597969 2.773462,-3.38897 -0.157164,-1.054878 -0.17675,-1.088126 -1.414249,-2.404645 l -1.254865,-1.334975 0.964526,-1.302285 0.964523,-1.302289 1.721653,0.827274 c 1.729508,0.83105 1.939113,0.877017 2.960446,0.649244 1.146175,-0.25561 2.018438,-1.321357 2.030788,-2.481249 0.0067,-0.646016 0.03345,-0.607041 0.639235,0.940963 0.950656,2.428898 0.951652,2.301467 -0.02113,2.715859 -2.41012,1.026576 -4.253,3.470827 -4.612495,6.117653 -0.177279,1.305233 0.172803,3.328535 0.783857,4.530164 2.296685,4.516509 8.252867,5.689769 12.037807,2.37123 0.727885,-0.638192 1.758993,-2.016022 2.14616,-2.867837 l 0.196721,-0.432798 1.632915,0.875384 c 1.794981,0.962268 2.701481,1.670778 3.3363,2.607614 l 0.417109,0.615545 -1.134596,1.544288 -1.134597,1.544293 -1.782761,-0.854242 c -1.610268,-0.771594 -1.857128,-0.842022 -2.551245,-0.727869 -0.905365,0.148876 -1.54508,0.570962 -2.009568,1.325874 -0.379939,0.617491 -0.385092,0.643457 -0.486714,2.4539 -0.04079,0.726644 -0.0901,1.452514 -0.109542,1.613038 -0.03027,0.25028 -0.239973,0.322356 -1.47151,0.505855 -1.008312,0.150237 -1.463868,0.157153 -1.529284,0.02343 z m -0.0077,-9.073496 c 0.103521,-0.06085 0.283755,-0.08769 0.400523,-0.05968 0.116765,0.02835 0.03205,0.07782 -0.188232,0.110627 -0.220282,0.03288 -0.315844,0.0098 -0.212292,-0.05099 z M -78.679939,30.98571 c -0.216621,-1.453898 -0.280973,-2.052295 -0.14297,-1.329767 0.138004,0.722529 0.315245,1.912079 0.393884,2.643447 0.07862,0.731377 -0.03417,0.140221 -0.250928,-1.31368 z m 21.07482,-1.952916 c -0.237154,-0.224391 -0.232331,-0.230929 0.0515,-0.06951 0.172241,0.09797 0.317182,0.205304 0.322148,0.238602 0.01973,0.131868 -0.124546,0.06659 -0.373617,-0.169096 z M -75.625286,18.411856 c 0.897071,-1.214521 1.667089,-2.213593 1.711146,-2.220158 0.04407,-0.0068 -0.653863,0.981762 -1.550938,2.196287 -0.897071,1.214525 -1.667086,2.213597 -1.711146,2.220166 -0.04406,0.0068 0.653864,-0.98177 1.550938,-2.196295 z m 56.31495,-19.4589828 c -0.02003,-0.1877745 0.01209,-0.231413 0.08236,-0.1111975 0.0635,0.1087672 0.07842,0.24779336 0.03326,0.30893856 -0.04532,0.0611452 -0.09728,-0.0278173 -0.115502,-0.19774106 z m -43.479577,-2.6585999 c -0.0049,-0.033109 0.102429,-0.1782274 0.238602,-0.322148 0.224406,-0.237154 0.230922,-0.2323314 0.06949,0.051496 -0.169527,0.2980574 -0.288442,0.4025239 -0.308096,0.270652 z m 1.363377,-1.8408087 c -0.0049,-0.033109 0.102429,-0.1782274 0.238602,-0.322148 0.224405,-0.2371541 0.230921,-0.2323314 0.06949,0.051462 -0.169527,0.2980573 -0.288439,0.4025235 -0.308096,0.270652 z m 13.106209,-8.5535616 c 0.108733,-0.06351 0.247794,-0.07841 0.308939,-0.03311 0.06118,0.0453 -0.02782,0.09725 -0.197741,0.115461 -0.187775,0.02007 -0.231413,-0.01198 -0.111236,-0.08239 z m 4.636549,-0.687456 c 0.103522,-0.06086 0.283756,-0.0877 0.400523,-0.05967 0.116765,0.0282 0.03205,0.07781 -0.188232,0.110634 -0.220286,0.03277 -0.315809,0.0099 -0.212291,-0.05097 z"
     id="path335" /><path
     style="fill:#9c9ea0;stroke-width:0.161978"
     d="m -45.815122,45.454093 -0.454045,-0.382696 0.49845,0.322734 c 0.465876,0.301644 0.587469,0.416156 0.461818,0.434876 -0.02854,0.0042 -0.256494,-0.164447 -0.506223,-0.374929 z m 17.480895,-2.563797 c 0.174161,-0.25115 0.35263,-0.461964 0.396699,-0.468529 0.04407,-0.0068 -0.0624,0.193511 -0.236485,0.444653 -0.17416,0.25115 -0.35263,0.461957 -0.396699,0.468522 -0.04407,0.0068 0.06233,-0.193512 0.236485,-0.444646 z M -55.82645,36.639471 c 0.108767,-0.0635 0.247793,-0.07839 0.308938,-0.03326 0.06115,0.04528 -0.02782,0.09725 -0.197741,0.115465 -0.187774,0.02003 -0.231413,-0.0121 -0.111235,-0.08239 z m 4.618187,-3.728753 -0.358912,-0.314986 0.405948,0.25149 c 0.381489,0.236333 0.49535,0.351156 0.367143,0.37028 -0.03027,0.0045 -0.216797,-0.133531 -0.414179,-0.306747 z m 24.372986,-3.590748 c 0.133228,-0.199975 0.278248,-0.368995 0.322318,-0.375572 0.04407,-0.0068 -0.02873,0.151711 -0.162142,0.351685 -0.133228,0.200013 -0.278249,0.368996 -0.322318,0.375572 -0.04407,0.0068 0.02872,-0.15171 0.162142,-0.351685 z m -35.011211,4.286094 c 0.108767,-0.0635 0.247793,-0.07839 0.308939,-0.03326 0.06114,0.04532 -0.02782,0.09725 -0.197742,0.115502 -0.187774,0.02003 -0.231412,-0.01209 -0.111197,-0.08236 z m 1.121465,-0.167093 c 0.108767,-0.0635 0.247794,-0.07839 0.308939,-0.03326 0.06114,0.04528 -0.02782,0.09725 -0.197741,0.115465 -0.187775,0.02003 -0.231413,-0.01209 -0.111198,-0.08236 z m -4.363969,-0.834607 -0.454044,-0.3827 0.498449,0.322734 c 0.465872,0.301644 0.587465,0.416157 0.461818,0.43488 -0.02854,0.0042 -0.256494,-0.164447 -0.506223,-0.374929 z m 7.987769,-3.148342 c -0.120957,-0.215396 -0.105317,-0.236523 0.07633,-0.103068 0.125677,0.09237 0.194185,0.214299 0.152198,0.270954 -0.04199,0.05669 -0.144801,-0.0189 -0.228525,-0.167924 z m -9.043903,-4.022831 c 0.174142,-0.25115 0.352641,-0.461961 0.396698,-0.468526 0.04407,-0.0068 -0.06234,0.193512 -0.236486,0.444654 -0.174141,0.25115 -0.352641,0.461964 -0.396697,0.468526 -0.04407,0.0068 0.06238,-0.193512 0.236485,-0.444654 z m -2.389603,-1.199717 c 0.133213,-0.200012 0.27826,-0.368995 0.322326,-0.375572 0.04406,-0.0068 -0.02888,0.151711 -0.162131,0.351686 -0.133213,0.199974 -0.27826,0.368995 -0.322326,0.375571 -0.04407,0.0068 0.02888,-0.15171 0.162131,-0.351685 z m 1.791877,-12.876997 c -0.03277,-0.220282 -0.0099,-0.315809 0.05097,-0.212288 0.06086,0.103521 0.0877,0.283755 0.05967,0.400523 -0.0282,0.116765 -0.07781,0.03205 -0.110634,-0.188235 z m 47.5307,-11.83145329 c -0.03288,-0.22028221 -0.0098,-0.31580977 0.05095,-0.21228851 0.06085,0.10352126 0.08772,0.2837556 0.05968,0.40052675 -0.02835,0.11676472 -0.07782,0.0320504 -0.110627,-0.18823182 z m -0.167096,-1.12146561 c -0.03288,-0.2202822 -0.0098,-0.3158097 0.05099,-0.2122885 0.06085,0.1035213 0.08769,0.2837556 0.05968,0.400523 -0.02835,0.1167647 -0.07782,0.03205 -0.110627,-0.1882356 z m -3.104402,-4.6551292 -0.548138,-0.4505643 0.590797,0.3929643 c 0.324926,0.2161285 0.594153,0.4155246 0.598265,0.443097 0.01814,0.123772 -0.130015,0.034507 -0.640924,-0.385497 z m 14.1275601,-5.9945009 c -0.032882,-0.220283 -0.00983,-0.31581 0.050948,-0.212289 0.06085,0.103521 0.087723,0.283756 0.059679,0.400523 -0.028346,0.116765 -0.077858,0.03205 -0.110627,-0.188234 z m -53.6187151,7.416245 c 0.252971,-0.3529406 0.495977,-0.6470835 0.540034,-0.6536489 0.04406,-0.00669 -0.126873,0.2768168 -0.379827,0.6297786 -0.25297,0.3529406 -0.495977,0.6470834 -0.540037,0.6536488 -0.04406,0.00669 0.126873,-0.2768167 0.37983,-0.6297785 z m 47.562117,-13.678507 c -0.237128,-0.224406 -0.232328,-0.230922 0.05151,-0.06949 0.172195,0.09795 0.317178,0.205315 0.322167,0.238601 0.01965,0.131875 -0.124536,0.06661 -0.373607,-0.169069 z m -33.354104,4.324146 c 0.149839,-0.06386 0.366505,-0.09341 0.481512,-0.06569 0.115003,0.02782 -0.0077,0.07996 -0.272414,0.116096 -0.264843,0.03609 -0.358926,0.01338 -0.209083,-0.0504 z m 3.364393,-0.501306 c 0.149839,-0.06386 0.366508,-0.09341 0.481511,-0.06569 0.115004,0.02782 -0.0077,0.07996 -0.272413,0.116095 -0.264843,0.03609 -0.358927,0.01338 -0.209084,-0.0504 z m 5.071338,-3.862174 c 0.103521,-0.06086 0.283767,-0.0877 0.400524,-0.05967 0.11675,0.0282 0.03213,0.07781 -0.18822,0.110634 -0.220271,0.03277 -0.315818,0.0099 -0.212296,-0.05097 z m 16.904213,-3.188215 c -0.237165,-0.224405 -0.232327,-0.230921 0.05148,-0.06949 0.298054,0.169528 0.402524,0.288441 0.270652,0.308095 -0.03326,0.0049 -0.178242,-0.102428 -0.322129,-0.2386 z"
     id="path333" /><path
     style="fill:#ffffff;stroke-width:0.161978"
     d="m -26.87333,19.447662 c -2.707491,0.01134 -2.440622,0.28218 -2.441805,-2.478704 -4.2e-4,-0.966921 -0.08731,-2.031546 -0.193096,-2.365822 -0.766371,-2.421781 -3.705891,-3.550041 -5.770235,-2.214761 -0.341027,0.220599 -1.224178,1.013813 -1.962584,1.762733 -0.738399,0.748921 -1.381463,1.367471 -1.429024,1.374558 -0.07642,0.01134 -3.110914,-2.930597 -3.460751,-3.355279 -0.08239,-0.100033 0.301039,-0.604753 0.966036,-1.271628 2.286444,-2.2929474 2.732076,-3.1649007 2.489302,-4.8707285 -0.172482,-1.2120306 -0.689359,-2.0421426 -1.635953,-2.6274452 -0.926181,-0.5726785 -1.800439,-0.7324002 -3.921498,-0.7164336 -1.079645,0.00809 -1.97362,0.00423 -1.98661,-0.00881 -0.07637,-0.075764 -0.02714,-4.8492318 0.05118,-4.9536889 0.05234,-0.069883 0.989511,-0.1326501 2.082615,-0.1394835 1.093104,-0.00669 2.253425,-0.089291 2.578495,-0.1831937 1.898978,-0.5486283 3.085981,-2.3740834 2.798464,-4.3036857 -0.169738,-1.1392671 -0.607445,-1.7998337 -2.295088,-3.4637709 -0.748917,-0.738403 -1.367467,-1.381464 -1.374553,-1.429029 -0.01134,-0.07633 2.930487,-3.110861 3.354073,-3.459737 0.09933,-0.08182 0.789948,0.477816 1.741282,1.411075 1.20455,1.181668 1.775497,1.619391 2.419298,1.854775 1.68813,0.617203 3.302007,0.219507 4.340587,-1.069635 0.84234,-1.045561 1.036948,-1.862686 1.007407,-4.229884 l -0.0257,-2.05254 2.432183,-0.01372 c 1.337699,-0.0074 2.481913,0.02324 2.542703,0.06826 0.06081,0.04501 0.122381,1.046268 0.136933,2.224992 0.03024,2.451127 0.219779,3.10268 1.212351,4.166933 1.063657,1.140493 3.064056,1.445062 4.540589,0.691331 0.284522,-0.145259 1.210306,-0.957155 2.05728,-1.804241 0.856645,-0.856758 1.60608,-1.484948 1.688991,-1.415735 0.08198,0.06844 0.824636,0.797549 1.650353,1.62026 0.825721,0.822716 1.578297,1.570255 1.672392,1.661197 0.117355,0.113416 -0.199823,0.541245 -1.010158,1.36245 -2.177684,2.2069053 -2.590745,2.954839 -2.518348,4.5600486 0.0494,1.0945376 0.521733,1.979175 1.425052,2.6687936 0.975942,0.7450738 1.868938,0.9469467 4.1014524,0.9272005 1.9764284,-0.017613 2.0042722,-0.011981 2.0611692,0.3978112 0.091653,0.6603095 0.072756,4.4143102 -0.023055,4.5434128 -0.047622,0.064282 -1.0653544,0.1309607 -2.2616429,0.1481462 -2.0861707,0.029934 -2.2084197,0.048113 -2.9911257,0.4443862 -1.594439,0.8071117 -2.44221,2.3622346 -2.189102,4.0156434 0.192491,1.2587184 0.524938,1.7758084 2.185145,3.4009295 0.810444,0.793315 1.478109,1.473099 1.483699,1.510629 0.01398,0.09499 -3.232536,3.375413 -3.457807,3.493716 -0.100656,0.05296 -0.829482,-0.55276 -1.619444,-1.345983 -0.78996,-0.793224 -1.740643,-1.60029 -2.112628,-1.793477 -1.606794,-0.834466 -3.4957,-0.478672 -4.637106,0.873443 -0.879927,1.042376 -1.08045,1.858637 -1.051657,4.281125 0.01436,1.205821 -0.04743,2.086277 -0.146608,2.088968 -0.09426,0.0026 -1.220863,0.0091 -2.503586,0.01436 z m 4.557929,-10.1042299 c 4.279601,-2.2685099 6.535325,-6.8345991 5.596717,-11.3290236 -0.524402,-2.5110512 -1.853095,-4.5153823 -4.093081,-6.1744022 -1.518595,-1.1247341 -2.748892,-1.6749336 -4.48258,-2.0046583 -6.346458,-1.207008 -12.418621,4.361148 -11.890655,10.90369286 0.425091,5.26774684 4.382075,9.21792844 9.638068,9.62151614 1.416408,0.108767 4.087071,-0.4104774 5.231531,-1.0171249 z"
     id="path331" /><path
     style="fill:#ff714b;fill-opacity:1;stroke-width:0.161978"
     d="m -42.821148,43.870274 c -0.707022,-0.0074 -1.984398,-1.026266 -2.225633,-1.775266 -0.108979,-0.338423 -0.405204,-1.999287 -0.658238,-3.690815 -0.423238,-2.82926 -0.507048,-3.171798 -1.046916,-4.278387 -1.0038,-2.05753 -2.440081,-3.359959 -5.114546,-4.6379 -5.311571,-2.538036 -9.513381,-7.415063 -11.312764,-13.130695 -0.975009,-3.097066 -1.251389,-7.4232593 -0.671849,-10.5165237 1.040858,-5.5555182 4.391119,-10.7609383 9.007356,-13.9950487 2.264455,-1.5864677 5.887081,-3.1187876 8.181505,-3.4606646 0.931829,-0.138848 1.017272,-0.123141 1.064771,0.195629 0.02853,0.190628 0.899096,1.184736 1.934867,2.2091308 2.298424,2.2731802 2.207296,2.1633449 2.277089,2.7446249 0.140182,1.1677096 -0.478428,1.3801565 -4.005801,1.3756479 -2.692325,-0.00348 -2.758065,0.00741 -3.20485,0.5244797 -0.349868,0.4049753 -0.370889,0.6470094 -0.363999,4.18933426 0.0091,4.61911714 0.05808,5.02767124 0.657375,5.47153974 0.248497,0.1840403 0.545532,0.322749 0.660049,0.3082356 0.114509,-0.014438 1.381464,-0.029594 2.815437,-0.033827 2.400404,-0.00669 2.641852,0.022526 3.043831,0.3698041 0.442326,0.3821299 0.57634,0.7451615 0.463192,1.2547419 -0.03401,0.1544164 -0.947334,1.1808548 -2.028992,2.2809472 -1.081658,1.1001019 -2.0205,2.1507309 -2.086314,2.3347429 -0.264947,0.740804 -0.0039,1.106326 2.711034,3.797645 3.333755,3.304618 3.536168,3.470547 4.126326,3.382613 0.616607,-0.09188 0.816775,-0.254967 2.869841,-2.338428 1.901707,-1.929849 2.271885,-2.126759 3.104689,-1.651468 0.575229,0.328289 0.616868,0.560405 0.613224,3.417713 -0.0035,2.870525 0.04169,3.117721 0.654531,3.568464 0.475782,0.349908 0.729026,0.370356 4.26827,0.344239 2.069371,-0.01512 3.995339,-0.0559 4.279926,-0.09029 l 0.517436,-0.06255 -0.510709,0.829221 c -0.280894,0.456072 -0.69038,1.058955 -0.90997,1.339733 l -0.399266,0.510523 -0.51696,-0.400297 -0.51696,-0.400309 -1.940069,1.980488 c -1.933361,1.973646 -2.631439,2.970739 -3.122895,4.460526 -0.572595,1.735782 -0.575618,1.974048 -0.07627,6.004755 0.456695,3.686302 0.465112,3.884633 0.187918,4.428121 -0.159647,0.312907 -0.497049,0.768529 -0.749858,1.012445 -0.456374,0.440319 -0.498913,0.449473 -5.983782,1.287742 -3.038276,0.464349 -5.734685,0.842105 -5.992025,0.839414 z m 6.293726,-5.409074 -0.286451,-1.92251 -1.281675,0.19098 -1.281672,0.190979 0.28645,1.92251 0.286451,1.922513 1.281675,-0.190979 1.281672,-0.19098 z m -0.854117,-5.481725 c -0.322885,-1.391448 -1.429478,-3.427967 -2.516625,-4.631532 -1.491231,-1.650905 -2.990471,-2.549208 -5.740425,-3.43951 -2.814718,-0.91127 -4.143854,-1.562762 -5.788468,-2.83728 -5.383821,-4.172269 -7.410568,-10.775541 -5.267011,-17.1602624 0.763696,-2.2747091 2.005412,-4.27634197 3.949706,-6.3668709 l 0.530439,-0.570336 -0.81815,-0.9425718 c -0.449983,-0.5184144 -0.844755,-0.9641356 -0.877265,-0.9904929 -0.122752,-0.099469 -1.443688,1.255598 -2.362999,2.4240473 -4.364966,5.54791 -5.208756,13.3949107 -2.090405,19.4401207 1.777844,3.446525 5.053556,6.674087 8.389736,8.266424 0.734992,0.350816 2.334045,0.946398 3.553451,1.323534 1.886395,0.583416 2.384566,0.81425 3.339818,1.547558 1.280297,0.982825 2.321572,2.373343 2.779208,3.71133 0.16955,0.495791 0.362117,1.059228 0.427892,1.252093 0.112403,0.329575 0.197707,0.339024 1.420124,0.156888 l 1.300554,-0.193814 z m 15.86089,-12.926245 c 0.01172,-0.249449 0.01172,-1.29958 -1.14e-4,-2.333647 -0.0257,-2.269485 0.06115,-2.708946 0.600408,-3.032651 0.458805,-0.275415 1.266101,-0.262073 1.427509,0.02343 0.197821,0.350097 -1.633277,5.734257 -1.96704,5.783988 -0.0452,0.0068 -0.07249,-0.191848 -0.06081,-0.441293 z M -27.29011,7.6911153 c -2.745407,-0.1823139 -5.305908,-1.8450146 -6.421893,-4.170177 -0.618365,-1.2883585 -0.949293,-3.42582841 -0.728553,-4.7059026 0.590404,-3.4241628 3.068315,-5.8301443 6.536693,-6.3469418 l 1.134988,-0.1691037 0.68894,0.6752372 c 2.550289,2.4995369 4.736984,5.8497703 5.898648,9.037309 0.289021,0.7930015 0.302514,0.9572073 0.112668,1.3688538 -0.729929,1.5826881 -2.766066,3.3737091 -4.532859,3.9871865 -1.043305,0.3622602 -1.421076,0.4077226 -2.688609,0.3235578 z"
     id="path329" /><path
     style="fill:#1d7589;stroke-width:0.161978"
     d="m -29.381825,19.286677 c -0.02003,-0.187767 0.01209,-0.23142 0.08239,-0.111231 0.0635,0.108775 0.07839,0.247786 0.03326,0.308938 -0.04528,0.06115 -0.09725,-0.02797 -0.115465,-0.197745 z M -19.000064,6.6173027 c 0.174086,-0.2511383 0.35263,-0.4619588 0.396696,-0.468528 0.04407,-0.00669 -0.06236,0.1935156 -0.236485,0.4446539 -0.174161,0.2511382 -0.35263,0.4619592 -0.396696,0.4685246 -0.04407,0.00669 0.06236,-0.1935156 0.236485,-0.4446505 z M -7.6505995,2.3224509 c 0.095244,-0.1402243 0.2020158,-0.2347238 0.237241,-0.2099981 0.1084724,0.076116 -0.086929,0.4167469 -0.2533417,0.4415369 -0.0864,0.013039 -0.079143,-0.091298 0.016252,-0.2315188 z M -11.293497,2.491203 c 0.108737,-0.063507 0.247786,-0.078406 0.308938,-0.033109 0.06115,0.045298 -0.02797,0.097285 -0.197744,0.1154607 -0.187767,0.020069 -0.231421,-0.011981 -0.111232,-0.082352 z m -5.286391,-2.79882483 c -0.02003,-0.18777449 0.01209,-0.23141292 0.08236,-0.11123528 0.0635,0.10876725 0.07842,0.24779339 0.03326,0.30893859 -0.04532,0.06118299 -0.09725,-0.0278173 -0.115464,-0.19774111 z M -7.5673213,-2.469357 c -0.020031,-0.1877745 0.012094,-0.231413 0.082394,-0.1111975 0.063496,0.1087672 0.078425,0.2477934 0.03326,0.3089386 -0.045279,0.061145 -0.097285,-0.027817 -0.1154646,-0.1977411 z M -35.567351,-5.6530882 c 0.174123,-0.2511043 0.35263,-0.4619588 0.3967,-0.4685246 0.04407,-0.00669 -0.06236,0.1935156 -0.236485,0.4446538 -0.174161,0.2511383 -0.35263,0.4619592 -0.396696,0.4685246 -0.04407,0.00669 0.06236,-0.1935156 0.236485,-0.4446538 z m 14.673412,-2.5548617 -0.45405,-0.3827036 0.498451,0.322749 c 0.465873,0.3016479 0.587468,0.4161585 0.461817,0.434883 -0.02835,0.00423 -0.256479,-0.1644548 -0.506218,-0.3749284 z m -8.800763,-1.7892597 c 0.108737,-0.063507 0.247786,-0.078406 0.308939,-0.033108 0.06115,0.045297 -0.02797,0.097251 -0.197745,0.1154617 -0.187767,0.020069 -0.231421,-0.011981 -0.111232,-0.082386 z m 6.842366,-2.5043874 c -0.237127,-0.224405 -0.232327,-0.230921 0.05152,-0.06949 0.172196,0.09795 0.317178,0.205315 0.322129,0.238602 0.01965,0.131875 -0.124535,0.06661 -0.373606,-0.16907 z m -1.813062,-6.812722 c -0.158286,-0.07178 -0.187464,-0.131803 -0.07302,-0.150365 0.104768,-0.01689 0.245745,0.03451 0.313323,0.114581 0.152579,0.180589 0.0971,0.188866 -0.240341,0.03583 z"
     id="path327" /><path
     style="fill:#ffffff;stroke-width:0.161978"
     d="m -63.051217,45.238301 c -0.237154,-0.224391 -0.232331,-0.230929 0.05146,-0.06951 0.172203,0.09797 0.317182,0.205304 0.322148,0.238602 0.01973,0.131868 -0.124547,0.06659 -0.373618,-0.169096 z m 56.8857867,-9.00841 c -0.030992,-0.207496 0.015118,-0.269745 0.1343622,-0.181455 0.1192441,0.08829 0.1353449,0.196611 0.047055,0.315855 -0.08829,0.119244 -0.1505386,0.07313 -0.1814173,-0.134362 z m -43.1259427,3.396238 c 0.482318,-0.657335 0.912985,-1.200525 0.957042,-1.20709 0.04406,-0.0068 -0.314506,0.525887 -0.79683,1.183219 -0.482318,0.657328 -0.912985,1.200518 -0.957042,1.207083 -0.04407,0.0068 0.314506,-0.525887 0.79683,-1.183212 z m 33.510424,-6.399454 c -0.07351,-0.08697 -0.07846,-0.232592 -0.01134,-0.323528 0.07245,-0.09781 0.141884,-0.03553 0.169928,0.152731 0.05424,0.364044 0.02835,0.392111 -0.158816,0.170835 z m -54.830297,6.71492 c -0.701129,-0.523468 -1.245915,-0.978126 -1.210632,-1.010343 0.0353,-0.0325 0.641617,0.391211 1.347406,0.940951 0.705786,0.54974 1.250572,1.004391 1.210632,1.010343 -0.03994,0.006 -0.646273,-0.417475 -1.347406,-0.940951 z m 7.159168,-1.276089 -0.358908,-0.314986 0.405947,0.25149 c 0.381489,0.236334 0.495351,0.351156 0.367144,0.37028 -0.03027,0.0045 -0.216798,-0.133493 -0.414183,-0.306746 z m -3.202738,-3.94447 -0.548135,-0.450569 0.590793,0.392969 c 0.550704,0.366312 0.679373,0.482252 0.555603,0.500693 -0.02748,0.0042 -0.296787,-0.195288 -0.598261,-0.443093 z m 8.659927,-2.948909 c -0.0049,-0.03364 0.102429,-0.178242 0.238602,-0.322167 0.224406,-0.237165 0.230922,-0.232327 0.06949,0.05148 -0.169527,0.298053 -0.288438,0.402523 -0.308096,0.270652 z m -19.782805,2.559179 c -0.237156,-0.224391 -0.23233,-0.230929 0.0515,-0.0695 0.172205,0.09797 0.317182,0.205303 0.322149,0.238601 0.01972,0.131868 -0.124548,0.06659 -0.373617,-0.169096 z m 6.312881,-1.595709 c -0.237154,-0.224391 -0.232332,-0.230929 0.05146,-0.0695 0.172203,0.09797 0.317182,0.205303 0.322148,0.238601 0.01973,0.131868 -0.124547,0.06659 -0.373618,-0.169096 z m 13.196753,-4.340969 -0.358907,-0.314986 0.405947,0.25149 c 0.381485,0.236334 0.49535,0.351156 0.367143,0.37028 -0.03027,0.0045 -0.216797,-0.133492 -0.414182,-0.306746 z m -13.937688,-1.321387 c 0.133213,-0.200013 0.27826,-0.368995 0.322326,-0.375572 0.04406,-0.0068 -0.02888,0.151711 -0.162131,0.351685 -0.133213,0.200013 -0.27826,0.368996 -0.322325,0.375572 -0.04407,0.0068 0.02887,-0.15171 0.16213,-0.351685 z m 57.403016,-8.497912 c 0.103521,-0.06085 0.283767,-0.08769 0.400528,-0.05968 0.11675,0.02835 0.03213,0.07782 -0.18822,0.110627 -0.220271,0.03288 -0.315818,0.0098 -0.212296,-0.05099 z m -64.108456,9.107686 c -0.0049,-0.03326 0.102393,-0.178243 0.2386,-0.322129 0.224405,-0.237166 0.230921,-0.232328 0.0695,0.05148 -0.169528,0.298054 -0.28844,0.402523 -0.308095,0.270652 z M -8.2352054,11.645833 c -0.032882,-0.220282 -0.00983,-0.315843 0.050948,-0.212322 0.06085,0.103521 0.087685,0.283755 0.059679,0.400523 -0.028346,0.116765 -0.077858,0.03205 -0.1106267,-0.188232 z M -74.441476,21.41087 c -0.01232,-0.08311 0.425253,-0.731766 0.972533,-1.441395 l 0.995054,-1.290236 -0.943079,1.364281 c -0.518696,0.750353 -0.956334,1.398977 -0.972533,1.441395 -0.01621,0.04241 -0.03959,0.0091 -0.05199,-0.07404 z M -5.3554927,4.7680301 c -0.00491,-0.033109 0.1024252,-0.1782274 0.2386016,-0.322148 0.2243906,-0.2371578 0.2309292,-0.2323313 0.069505,0.051462 -0.1695118,0.2980574 -0.2884535,0.4025239 -0.3081071,0.270652 z M -66.673928,11.905796 c -0.02007,-0.187774 0.01198,-0.231413 0.08239,-0.111235 0.06351,0.108767 0.07841,0.247793 0.03311,0.308938 -0.0453,0.06118 -0.09725,-0.02782 -0.115461,-0.197741 z m 3.498874,-14.8990727 c -0.0049,-0.033109 0.102429,-0.1782274 0.238598,-0.322148 0.224406,-0.23712 0.230922,-0.2323313 0.06953,0.051496 -0.169527,0.2980573 -0.288438,0.4025238 -0.308096,0.2706519 z m 47.735846,-15.6752723 c 0.103521,-0.06087 0.283767,-0.0877 0.400524,-0.05967 0.11675,0.0282 0.03213,0.07781 -0.18822,0.110635 -0.220271,0.03277 -0.315818,0.0099 -0.212296,-0.05097 z m -31.526541,4.365001 c 0.149839,-0.06386 0.366505,-0.09341 0.481511,-0.06569 0.115004,0.02782 -0.0077,0.07996 -0.272413,0.116096 -0.264839,0.03609 -0.358927,0.01338 -0.209084,-0.0504 z m 1.7623,-0.262586 c 0.14984,-0.06386 0.366509,-0.09341 0.481511,-0.06569 0.115004,0.02782 -0.0077,0.07996 -0.272413,0.116096 -0.264843,0.03609 -0.358926,0.01338 -0.209083,-0.0504 z m 23.277313,-6.234465 c -0.02003,-0.187773 0.01209,-0.231414 0.08236,-0.111198 0.0635,0.108768 0.07839,0.247793 0.03326,0.30894 -0.04528,0.06115 -0.09725,-0.02782 -0.115465,-0.197742 z m -46.751355,4.165743 c 0.108733,-0.06351 0.247793,-0.07841 0.308939,-0.03311 0.06118,0.0453 -0.02782,0.09728 -0.197741,0.115461 -0.187775,0.02007 -0.231413,-0.01198 -0.111198,-0.08239 z"
     id="path325" /><path
     style="fill:#9c6c0a;stroke-width:0.161978"
     d="m -39.992278,33.805196 c -0.02003,-0.187767 0.0121,-0.231383 0.08239,-0.111194 0.0635,0.108775 0.07839,0.247786 0.03326,0.308939 -0.04528,0.06119 -0.09725,-0.02797 -0.115465,-0.197745 z m 2.44399,-1.182992 c -0.02003,-0.187767 0.0121,-0.231421 0.08239,-0.111194 0.0635,0.108737 0.07839,0.247786 0.03326,0.308939 -0.04532,0.06115 -0.09728,-0.02797 -0.115465,-0.197745 z m -12.085494,-1.829375 -0.641627,-0.518517 0.683053,0.462588 c 0.635766,0.430563 0.771216,0.548965 0.648876,0.567197 -0.02676,0.0038 -0.337398,-0.226091 -0.690302,-0.511268 z m 20.613416,-2.94864 c 0.133228,-0.200012 0.278287,-0.368995 0.322318,-0.375572 0.04407,-0.0068 -0.02872,0.151711 -0.162142,0.351686 -0.133228,0.199974 -0.278248,0.368995 -0.322318,0.375571 -0.04407,0.0068 0.02872,-0.15171 0.162142,-0.351685 z m -25.539008,0.161613 -0.358911,-0.314986 0.405948,0.25149 c 0.381488,0.236334 0.495353,0.351156 0.367143,0.37028 -0.03027,0.0045 -0.216798,-0.133531 -0.414179,-0.306746 z m -1.753984,-1.294432 c -0.237154,-0.22439 -0.232331,-0.230929 0.05146,-0.0695 0.172203,0.09797 0.317182,0.205304 0.322148,0.238601 0.01973,0.131868 -0.124547,0.0666 -0.373617,-0.169058 z m 3.528676,-2.245345 -0.920349,-0.722631 0.95956,0.669695 c 0.891639,0.622299 1.046761,0.750901 0.927214,0.768714 -0.02536,0.0038 -0.460233,-0.318312 -0.966425,-0.715778 z m 1.377699,-2.252357 -0.454045,-0.3827 0.498446,0.322734 c 0.465876,0.301644 0.587469,0.41616 0.461822,0.434884 -0.02854,0.0042 -0.256494,-0.164447 -0.506223,-0.374929 z m -5.935612,-9.473783 c -0.07221,-0.484636 -0.07171,-0.687368 0.0011,-0.450522 0.07281,0.23684 0.131909,0.633364 0.131274,0.88115 -5.99e-4,0.247793 -0.0602,0.054 -0.132404,-0.430628 z m -6.671437,0.257129 c -0.09123,-0.616905 -0.0969,-0.853923 -0.01266,-0.526696 0.08422,0.327221 0.158819,0.831976 0.165831,1.121656 0.007,0.289674 -0.06192,0.02185 -0.153113,-0.59496 z m 37.289514,-5.2587212 c 0.108737,-0.063507 0.247785,-0.078406 0.308938,-0.033109 0.06115,0.045298 -0.02797,0.097251 -0.197745,0.1154608 -0.187767,0.020069 -0.231382,-0.011981 -0.111193,-0.082352 z m -33.588784,2.8922262 c -0.02007,-0.187774 0.01198,-0.231413 0.08239,-0.111197 0.06351,0.108733 0.07841,0.247793 0.03311,0.308938 -0.0453,0.06118 -0.09728,-0.02782 -0.115461,-0.197741 z m 25.832377,-9.321635 c -0.07223,-0.48463218 -0.0717,-0.68736793 0.0011,-0.45051854 0.07279,0.23684034 0.131868,0.63336754 0.131301,0.88114994 -5.9e-4,0.2477934 -0.06021,0.053998 -0.132397,-0.4306314 z M -54.475236,0.43958964 c 0.406401,-0.55594772 0.77496,-1.0161842 0.819016,-1.02274962 0.04406,-0.006692 -0.252407,0.44293154 -0.658805,0.99887926 -0.406402,0.55594772 -0.77496,1.01618422 -0.819017,1.02274962 -0.04406,0.00669 0.252407,-0.44293154 0.658806,-0.99887926 z m -1.500489,-2.37663004 c -0.0049,-0.033109 0.102395,-0.1782274 0.238601,-0.3221481 0.224406,-0.237154 0.230922,-0.2323313 0.0695,0.051496 -0.169527,0.2980573 -0.288439,0.4025238 -0.308096,0.270652 z m -5.310775,0.6275595 c -0.0049,-0.033109 0.102395,-0.1782274 0.238601,-0.322148 0.224406,-0.23712 0.230922,-0.2323313 0.06949,0.051496 -0.169527,0.2980573 -0.288438,0.4025234 -0.308095,0.2706519 z m 18.636821,-3.8112061 c 0.149858,-0.063859 0.366501,-0.093377 0.481512,-0.065692 0.115011,0.027817 -0.0076,0.079956 -0.272428,0.1160957 -0.264832,0.036095 -0.358942,0.01338 -0.209084,-0.050404 z m -17.504747,2.0666896 c 0.133214,-0.1999975 0.278298,-0.3689953 0.322326,-0.3755603 0.04407,-0.00669 -0.02888,0.1517064 -0.16213,0.3517001 -0.133214,0.1999975 -0.278261,0.3689953 -0.322326,0.3755603 -0.04407,0.00669 0.02888,-0.1517064 0.16213,-0.3517001 z m 31.79341,-4.5182529 c 0.103521,-0.060865 0.283767,-0.087704 0.400524,-0.059667 0.11675,0.028195 0.03213,0.077809 -0.18822,0.1106343 -0.220271,0.032768 -0.315818,0.00986 -0.212296,-0.050967 z m -18.065537,-4.1907817 c 0.148184,-0.0633 0.400526,-0.10088 0.560731,-0.08355 0.160195,0.01727 0.03896,0.06907 -0.269454,0.115038 -0.308413,0.04597 -0.43948,0.03171 -0.291292,-0.03133 z"
     id="path323" /><path
     style="fill:#6d4b06;stroke-width:0.161978"
     d="m -30.690551,33.497334 c -0.03288,-0.22027 -0.0098,-0.315817 0.05095,-0.212296 0.06085,0.103522 0.08772,0.283767 0.05968,0.400521 -0.02835,0.116749 -0.07782,0.03213 -0.110627,-0.188221 z m -15.566865,2.223988 c -0.02007,-0.187767 0.01198,-0.231421 0.08235,-0.111232 0.06351,0.108775 0.07841,0.247786 0.03311,0.308939 -0.0453,0.06115 -0.09728,-0.02797 -0.11546,-0.197745 z m 8.807313,-2.526921 c -0.03288,-0.22027 -0.0098,-0.315817 0.05095,-0.212296 0.06085,0.103522 0.08772,0.283767 0.05968,0.400528 -0.02835,0.11675 -0.07782,0.03213 -0.110626,-0.18822 z m -2.613789,0.130205 c -0.02003,-0.187767 0.01209,-0.23142 0.08239,-0.111194 0.0635,0.108737 0.07839,0.247786 0.03326,0.308939 -0.04528,0.06115 -0.09728,-0.02797 -0.115464,-0.197745 z m -1.735786,-6.56496 -0.734752,-0.586522 0.775253,0.531847 c 0.720979,0.494608 0.863055,0.616052 0.741842,0.634111 -0.02608,0.0038 -0.378225,-0.256857 -0.782343,-0.579436 z m 16.877242,-2.596664 c -0.237165,-0.22439 -0.232327,-0.230929 0.05148,-0.0695 0.298054,0.169511 0.402528,0.288453 0.270652,0.308107 -0.03326,0.0049 -0.178242,-0.102425 -0.322167,-0.238602 z m 1.30763,-2.149081 c 0.108737,-0.0635 0.247786,-0.07839 0.308938,-0.03326 0.06115,0.04528 -0.02797,0.09729 -0.197745,0.115465 -0.187766,0.02003 -0.23142,-0.01209 -0.111193,-0.08236 z m -1.145345,0.0068 c 0.108775,-0.0635 0.247786,-0.07839 0.308939,-0.03326 0.06115,0.04528 -0.02797,0.09725 -0.197745,0.115503 -0.187767,0.02003 -0.23142,-0.01209 -0.111194,-0.08236 z m -1.145332,0.0068 c 0.108737,-0.0635 0.247785,-0.07842 0.308938,-0.03326 0.06115,0.04532 -0.02797,0.09725 -0.197745,0.115464 -0.187767,0.02003 -0.23142,-0.01209 -0.111193,-0.08239 z M -56.8656,26.301968 c -0.237154,-0.224391 -0.232332,-0.230929 0.0515,-0.06951 0.172241,0.09797 0.317182,0.205304 0.322148,0.238602 0.01973,0.131868 -0.124547,0.0666 -0.373618,-0.169058 z m 29.81478,-4.267786 c 0.108775,-0.0635 0.247786,-0.07839 0.308938,-0.03326 0.06115,0.04528 -0.02797,0.09728 -0.197744,0.115503 -0.187767,0.02003 -0.231421,-0.01209 -0.111232,-0.08239 z m -1.145337,0.0068 c 0.108775,-0.0635 0.247786,-0.07839 0.308939,-0.03326 0.06115,0.04528 -0.02797,0.09725 -0.197745,0.115465 -0.187767,0.02003 -0.231421,-0.01209 -0.111194,-0.08236 z m -1.145337,0.0068 c 0.108737,-0.0635 0.247786,-0.07839 0.308977,-0.03326 0.06115,0.04528 -0.02797,0.09728 -0.197745,0.115464 -0.187767,0.02003 -0.231421,-0.01209 -0.111194,-0.08239 z m -1.145332,0.0068 c 0.108774,-0.0635 0.247785,-0.07839 0.308938,-0.03326 0.06115,0.04528 -0.02797,0.09728 -0.197745,0.115464 -0.187767,0.02003 -0.23142,-0.01209 -0.111231,-0.08236 z m -20.192146,0.705014 c -0.237154,-0.224391 -0.232331,-0.230929 0.0515,-0.06954 0.298057,0.169512 0.402524,0.288454 0.270652,0.308108 -0.03311,0.0049 -0.178227,-0.102426 -0.322148,-0.238602 z m 18.638204,-7.157632 c -0.03628,-0.264794 -0.01323,-0.358942 0.05042,-0.209083 0.06387,0.14982 0.09343,0.366501 0.06554,0.481527 -0.02797,0.115011 -0.07998,-0.0079 -0.116107,-0.272429 z m -0.497405,-0.78599 c -0.237165,-0.224391 -0.232327,-0.23093 0.05148,-0.06951 0.298053,0.169512 0.402527,0.288454 0.270652,0.308107 -0.03326,0.0049 -0.178243,-0.102387 -0.322167,-0.238601 z m -1.210605,-0.296542 c 0.103521,-0.06085 0.283767,-0.08772 0.400524,-0.05968 0.11675,0.02835 0.03213,0.07782 -0.18822,0.110627 -0.220271,0.03288 -0.315818,0.0098 -0.212296,-0.05095 z m -29.693396,1.489553 c -0.02007,-0.187767 0.01198,-0.231382 0.08235,-0.111193 0.06351,0.108774 0.07841,0.247785 0.03311,0.308938 -0.0453,0.06115 -0.09725,-0.02797 -0.115461,-0.197745 z M -45.479061,12.2816 c -0.03277,-0.220282 -0.0099,-0.31581 0.05097,-0.212289 0.06087,0.103522 0.0877,0.283756 0.05967,0.400523 -0.0282,0.116765 -0.07781,0.03205 -0.110634,-0.188234 z m -14.312361,1.723175 c -0.0361,-0.264843 -0.01338,-0.358927 0.0504,-0.209118 0.06386,0.149839 0.09341,0.366508 0.06569,0.481513 -0.02782,0.115011 -0.07996,-0.0076 -0.116096,-0.272413 z m -4.046978,0.357363 c -0.03277,-0.220271 -0.0099,-0.315855 0.05097,-0.212296 0.06087,0.103521 0.0877,0.283767 0.05967,0.400524 -0.0282,0.11675 -0.07781,0.03213 -0.110635,-0.18822 z m 3.623285,-3.160141 c -0.03277,-0.220283 -0.0099,-0.31581 0.05097,-0.212289 0.06087,0.103521 0.0877,0.283756 0.05967,0.400524 -0.0282,0.116764 -0.07781,0.03205 -0.110635,-0.188235 z m -4.029102,0.436584 c -0.03277,-0.220282 -0.0099,-0.31581 0.05097,-0.212289 0.06087,0.103522 0.0877,0.283756 0.05967,0.400523 -0.02819,0.116765 -0.07781,0.03205 -0.110634,-0.188234 z m 6.565877,-0.9101 c -0.02007,-0.187774 0.01198,-0.231413 0.08239,-0.111235 0.06351,0.108767 0.07841,0.247793 0.03311,0.308939 -0.0453,0.06115 -0.09725,-0.02782 -0.11546,-0.197742 z M -34.673439,0.25872375 c -0.02003,-0.18777449 0.01209,-0.23141292 0.08235,-0.11119748 0.0635,0.10876724 0.07839,0.24779339 0.03326,0.30893858 -0.04528,0.0611452 -0.09725,-0.0278173 -0.115464,-0.1977411 z M -56.66106,-0.99590896 c 0.330461,-0.47708034 0.621891,-0.87055524 0.647601,-0.87438384 0.120286,-0.017964 0.01444,0.1448715 -0.59389,0.9141645 l -0.654569,0.82763604 z m 4.00888,-0.61822564 c -0.0049,-0.033109 0.102395,-0.1782274 0.238601,-0.322148 0.224406,-0.23712 0.230922,-0.2323314 0.06949,0.051496 -0.169527,0.2980574 -0.288439,0.4025239 -0.308096,0.270652 z m -8.112842,-0.5925899 c -0.0049,-0.033109 0.102429,-0.1782274 0.238602,-0.322148 0.224405,-0.2371578 0.230921,-0.2323313 0.06949,0.051462 -0.169527,0.2980574 -0.288439,0.4025277 -0.308096,0.270652 z m 19.017154,-3.1611534 c -0.0049,-0.033109 0.102425,-0.1782274 0.238601,-0.322148 0.224391,-0.237154 0.230929,-0.2323314 0.06951,0.051496 -0.169512,0.2980574 -0.288454,0.4025239 -0.308107,0.270652 z m 14.11011,-2.3178747 c 0.14982,-0.063859 0.366501,-0.093411 0.481512,-0.065692 0.115011,0.027817 -0.0079,0.079956 -0.272429,0.1160957 -0.264831,0.036094 -0.358941,0.01338 -0.209121,-0.050404 z m -20.316525,2.7047279 c 0.103521,-0.060866 0.283755,-0.087704 0.400523,-0.059667 0.116764,0.028195 0.03205,0.077805 -0.188232,0.1106343 -0.220282,0.032769 -0.31581,0.00986 -0.212291,-0.050967 z m -11.854831,1.4960927 c -0.0042,-0.027474 0.195275,-0.2967881 0.443093,-0.5982644 l 0.450568,-0.5481317 -0.392964,0.5907935 c -0.366301,0.5507032 -0.482255,0.6793723 -0.500697,0.5556026 z m 11.093558,-7.772955 c 0.108733,-0.06351 0.247794,-0.07841 0.308939,-0.03311 0.06118,0.0453 -0.02782,0.09725 -0.197741,0.115461 -0.187775,0.02007 -0.231413,-0.01198 -0.111198,-0.08239 z m 1.327749,-0.362623 c 0.148184,-0.0633 0.400523,-0.100879 0.56073,-0.08355 0.160196,0.01727 0.03896,0.06907 -0.269453,0.115037 -0.308414,0.04597 -0.43948,0.03171 -0.291292,-0.03133 z"
     id="path319" /></g></svg>
